<svg width="103" height="31" viewBox="0 0 103 31" fill="none" xmlns="http://www.w3.org/2000/svg">
<path fill-rule="evenodd" clip-rule="evenodd" d="M5.09703 25.3713C6.82849 26.0423 9.02531 26.3777 11.6875 26.3777C15.3667 26.3777 18.1805 25.7177 20.1284 24.3973C22.0981 23.0555 23.0827 21.2157 23.0827 18.8782C23.0827 17.1251 22.7149 15.7509 21.9789 14.7552C21.2647 13.7596 20.1391 13.0129 18.6025 12.5151C17.0874 11.9956 15.1288 11.606 12.7263 11.3463C11.2979 11.1732 10.1832 11.0108 9.38243 10.8593C8.60327 10.6862 8.06217 10.4481 7.75917 10.1451C7.55104 9.93698 7.41439 9.66758 7.34924 9.33692L1.49905 6.11148C0.889254 7.11011 0.584373 8.28151 0.584373 9.62567C0.584373 11.1623 0.963145 12.4068 1.72065 13.3592C2.47816 14.3115 3.62529 15.0473 5.16196 15.5668C6.69863 16.0862 8.63573 16.4865 10.9732 16.768C12.3151 16.9196 13.3756 17.0819 14.1548 17.255C14.934 17.4066 15.4859 17.6446 15.8105 17.9692C16.1569 18.2721 16.33 18.7484 16.33 19.3977C16.33 20.1986 15.9621 20.8154 15.2262 21.2482C14.4902 21.681 13.3974 21.8975 11.9472 21.8975C10.259 21.8975 8.99285 21.5836 8.14876 20.956C7.30466 20.3285 6.86096 19.4951 6.81768 18.4562H0C0.0216543 19.9928 0.443702 21.3673 1.26614 22.5793C2.11024 23.7698 3.38719 24.7002 5.09703 25.3713ZM2.54384 4.83391C2.83268 4.56253 3.1535 4.30927 3.50624 4.07412C5.4758 2.75386 8.17041 2.09375 11.5901 2.09375C14.685 2.09375 17.1741 2.7214 19.057 3.97673C20.9618 5.21041 22.0221 6.98515 22.2386 9.30102H15.6157C15.5076 8.30541 15.0638 7.59117 14.2847 7.15831C13.5273 6.72542 12.5424 6.50901 11.3303 6.50901C10.0534 6.50901 9.05778 6.72542 8.34354 7.15831C8.08454 7.3121 7.87397 7.48706 7.71184 7.68321L2.54384 4.83391Z" fill="white"/>
<path d="M24.576 30.0463V7.09344H30.5496L30.7769 9.62572H30.9717C31.4911 8.80328 32.2703 8.13232 33.3092 7.61288C34.348 7.09344 35.6791 6.83371 37.3024 6.83371C39.0123 6.83371 40.5057 7.20164 41.7826 7.93753C43.0594 8.67342 44.0551 9.72311 44.7693 11.0867C45.4836 12.4285 45.8407 14.0302 45.8407 15.8915C45.8407 17.7313 45.4836 19.3328 44.7693 20.6963C44.0551 22.0381 43.0487 23.088 41.7501 23.8455C40.4732 24.5814 38.9688 24.9493 37.2374 24.9493C35.8956 24.9493 34.6834 24.7003 33.6013 24.2026C32.5193 23.6831 31.6966 22.9796 31.134 22.0923H30.9067V30.0463H24.576ZM35.322 20.2094C36.5774 20.2094 37.5838 19.8415 38.3413 19.1055C39.1204 18.3481 39.51 17.2768 39.51 15.8915C39.51 14.4847 39.1204 13.4133 38.3413 12.6774C37.5838 11.9416 36.5774 11.5736 35.322 11.5736C33.9367 11.5736 32.8546 11.9524 32.0755 12.7099C31.2963 13.4674 30.9067 14.4198 30.9067 15.5668V16.1512C30.9067 17.32 31.2963 18.2939 32.0755 19.0731C32.8546 19.8305 33.9367 20.2094 35.322 20.2094ZM46.5092 24.6246V0.95752H52.8399V24.6246H46.5092ZM54.2385 5.0806V0.95752H60.5692V5.0806H54.2385ZM54.2385 24.6246V7.09344H60.5692V24.6246H54.2385ZM71.6752 24.9493C69.5325 24.9493 67.682 24.5704 66.1236 23.813C64.5653 23.0556 63.3641 21.9949 62.52 20.6314C61.6977 19.2461 61.2863 17.6339 61.2863 15.7941C61.2863 13.8895 61.7301 12.2662 62.6174 10.9243C63.5047 9.58244 64.7494 8.55437 66.3509 7.84014C67.9524 7.1259 69.8247 6.76878 71.9674 6.76878C73.9584 6.76878 75.6901 7.06097 77.1618 7.64534C78.6334 8.22972 79.7915 9.05216 80.6356 10.1127C81.4797 11.1516 81.9342 12.3636 81.9991 13.7488H75.7333C75.5817 13.0778 75.1597 12.5476 74.4672 12.158C73.7961 11.7468 72.952 11.5412 71.9349 11.5412C70.5496 11.5412 69.4783 11.9307 68.7208 12.7099C67.9634 13.4891 67.5846 14.5171 67.5846 15.7941C67.5846 17.2443 67.9741 18.3371 68.7533 19.0731C69.5542 19.7873 70.6145 20.1444 71.9349 20.1444C72.8657 20.1444 73.6773 19.9604 74.3698 19.5925C75.084 19.2029 75.5492 18.6403 75.7658 17.9043H82.064C81.9773 19.3546 81.4579 20.6097 80.5057 21.6703C79.5535 22.7309 78.3088 23.5426 76.7722 24.1052C75.2356 24.6678 73.5364 24.9493 71.6752 24.9493ZM92.7272 24.9493C90.5631 24.9493 88.6801 24.5922 87.0783 23.8779C85.4768 23.1637 84.2324 22.1355 83.3448 20.7937C82.4793 19.4519 82.0462 17.8394 82.0462 15.9564C82.0462 14.0085 82.49 12.3528 83.3772 10.9893C84.2648 9.62572 85.5092 8.58683 87.1107 7.8726C88.7126 7.13671 90.5631 6.76878 92.6623 6.76878C94.9348 6.76878 96.8613 7.18002 98.4411 8.00246C100.043 8.8249 101.233 10.0153 102.012 11.5736C102.813 13.132 103.127 15.0149 102.954 17.2226H88.3444C88.3879 18.3264 88.81 19.1922 89.6105 19.8198C90.4115 20.4259 91.5046 20.7288 92.8895 20.7288C93.9284 20.7288 94.8267 20.5665 95.5841 20.2418C96.3419 19.9172 96.8288 19.4844 97.0451 18.9432H102.986C102.835 20.1337 102.294 21.1833 101.363 22.0923C100.454 23.0014 99.2527 23.7049 97.7593 24.2026C96.2659 24.7003 94.5888 24.9493 92.7272 24.9493ZM92.6298 10.9893C91.4396 10.9893 90.4657 11.2382 89.708 11.736C88.9505 12.2121 88.4743 12.9264 88.2795 13.8787H96.7204C96.6123 13.0129 96.2227 12.3203 95.5517 11.8009C94.881 11.2598 93.907 10.9893 92.6298 10.9893Z" fill="white"/>
</svg>
