<svg width="542" height="253" viewBox="0 0 542 253" fill="none" xmlns="http://www.w3.org/2000/svg">
<g clip-path="url(#clip0_14_1090)">
<path d="M34.5183 119.516C34.601 116.638 33.6749 114.276 31.7399 112.429C29.8048 110.581 27.0058 109.423 23.3426 108.953C20.8535 108.633 18.7067 108.716 16.9022 109.2C15.1006 109.662 13.6637 110.444 12.5912 111.547C11.5423 112.654 10.9184 113.982 10.7196 115.532C10.5069 116.817 10.6324 117.979 11.0959 119.017C11.5829 120.058 12.3096 120.999 13.2759 121.839C14.2452 122.655 15.3895 123.411 16.7086 124.105C18.0308 124.776 19.4559 125.389 20.984 125.943L27.2662 128.324C30.3224 129.432 33.0901 130.742 35.5695 132.253C38.0488 133.765 40.1413 135.501 41.8469 137.462C43.5525 139.423 44.7845 141.634 45.543 144.094C46.3249 146.558 46.5348 149.294 46.1727 152.302C45.5829 156.714 43.9648 160.397 41.3183 163.351C38.6983 166.285 35.1839 168.376 30.7752 169.625C26.393 170.852 21.2667 171.09 15.3963 170.337C9.57277 169.59 4.61516 168.047 0.523454 165.708C-3.54478 163.372 -6.56378 160.299 -8.53356 156.49C-10.4768 152.661 -11.1743 148.144 -10.626 142.939L4.13232 144.833C3.98642 147.272 4.42006 149.381 5.43326 151.157C6.47296 152.914 7.97329 154.336 9.93425 155.423C11.9217 156.489 14.2304 157.191 16.8604 157.528C19.4434 157.86 21.7341 157.772 23.7325 157.264C25.7544 156.76 27.3796 155.906 28.608 154.703C29.8363 153.5 30.562 152.03 30.7849 150.292C30.9928 148.672 30.6861 147.249 29.8649 146.021C29.0672 144.797 27.8023 143.68 26.0701 142.67C24.3615 141.664 22.2328 140.674 19.6842 139.703L12.0825 136.723C6.19053 134.463 1.68522 131.534 -1.43339 127.936C-4.552 124.337 -5.75766 119.875 -5.05036 114.547C-4.51354 110.177 -2.86168 106.51 -0.094774 103.547C2.69561 100.587 6.27469 98.4569 10.6424 97.1555C15.0102 95.8541 19.8241 95.5408 25.084 96.2156C30.4378 96.9024 34.9932 98.4176 38.7502 100.761C42.5306 103.108 45.3268 106.056 47.1389 109.607C48.9509 113.157 49.6165 117.085 49.1357 121.391L34.5183 119.516Z" fill="#003C36"/>
<path d="M512.761 251.812L4.96212 186.669C3.64606 186.5 2.45976 185.75 1.66344 184.584C0.867113 183.417 0.525988 181.931 0.715872 180.451L10.0233 107.899C13.5328 108.349 17.0988 107.212 19.9384 104.74C22.778 102.267 24.6588 98.6607 25.1651 94.7136C25.6715 90.7665 24.7619 86.8023 22.6384 83.6929C20.5149 80.5835 17.3513 78.5837 13.8418 78.1335L23.1493 5.58096C23.3392 4.1008 24.0444 2.7488 25.1093 1.82155C26.1741 0.894295 27.5114 0.46775 28.8274 0.636582L388.203 46.7394C387.841 47.268 387.608 47.8897 387.525 48.5425C387.442 49.1952 387.511 49.8555 387.729 50.4578C387.947 51.06 388.305 51.5833 388.766 51.9739C389.227 52.3645 389.776 52.6094 390.356 52.6839C390.936 52.7583 391.526 52.6595 392.071 52.3979C392.615 52.1362 393.094 51.7203 393.457 51.1926C393.82 50.6649 394.057 50.0438 394.141 49.3913C394.225 48.7387 394.154 48.0779 393.937 47.4751L536.626 65.7801C537.942 65.9489 539.129 66.6992 539.925 67.8652C540.721 69.0312 541.062 70.5175 540.872 71.9976L531.565 144.55C528.056 144.1 524.49 145.236 521.65 147.709C518.81 150.182 516.93 153.788 516.423 157.735C515.917 161.682 516.826 165.646 518.95 168.756C521.074 171.865 524.237 173.865 527.747 174.315L518.439 246.868C518.249 248.348 517.544 249.7 516.479 250.627C515.414 251.554 514.077 251.981 512.761 251.812ZM368.396 223.837C367.742 223.754 367.074 223.889 366.478 224.228C365.881 224.567 365.383 225.095 365.045 225.743C364.708 226.39 364.547 227.13 364.582 227.868C364.617 228.606 364.847 229.309 365.242 229.889C365.638 230.468 366.181 230.898 366.805 231.124C367.428 231.35 368.104 231.362 368.744 231.158C369.385 230.954 369.961 230.543 370.403 229.978C370.845 229.413 371.133 228.718 371.227 227.983C371.354 226.996 371.126 226.005 370.595 225.228C370.064 224.45 369.274 223.95 368.396 223.837ZM370.305 208.955C369.651 208.871 368.983 209.007 368.387 209.346C367.79 209.685 367.292 210.212 366.955 210.86C366.617 211.508 366.456 212.247 366.492 212.985C366.527 213.723 366.756 214.426 367.152 215.006C367.548 215.586 368.091 216.016 368.714 216.242C369.337 216.467 370.013 216.479 370.654 216.275C371.294 216.071 371.87 215.661 372.312 215.096C372.754 214.53 373.042 213.836 373.136 213.1C373.263 212.113 373.035 211.122 372.505 210.345C371.974 209.568 371.183 209.067 370.305 208.955ZM372.215 194.072C371.56 193.988 370.893 194.124 370.296 194.463C369.7 194.802 369.201 195.33 368.864 195.978C368.526 196.625 368.366 197.365 368.401 198.103C368.436 198.841 368.665 199.544 369.061 200.124C369.457 200.703 370 201.133 370.623 201.359C371.246 201.585 371.922 201.597 372.563 201.393C373.203 201.189 373.779 200.778 374.221 200.213C374.663 199.648 374.951 198.953 375.046 198.217C375.172 197.231 374.945 196.24 374.414 195.462C373.883 194.685 373.092 194.185 372.215 194.072ZM374.124 179.19C373.47 179.106 372.802 179.242 372.205 179.581C371.609 179.92 371.111 180.447 370.773 181.095C370.435 181.743 370.275 182.482 370.31 183.22C370.345 183.958 370.574 184.661 370.97 185.241C371.366 185.821 371.909 186.251 372.532 186.476C373.156 186.702 373.831 186.714 374.472 186.51C375.113 186.306 375.689 185.896 376.131 185.331C376.573 184.765 376.86 184.071 376.955 183.335C377.081 182.348 376.854 181.357 376.323 180.58C375.792 179.803 375.001 179.302 374.124 179.19ZM376.033 164.307C375.379 164.223 374.711 164.359 374.115 164.698C373.518 165.037 373.02 165.565 372.682 166.212C372.345 166.86 372.184 167.599 372.219 168.338C372.254 169.076 372.484 169.779 372.879 170.358C373.275 170.938 373.818 171.368 374.442 171.594C375.065 171.82 375.741 171.832 376.381 171.628C377.022 171.424 377.598 171.013 378.04 170.448C378.482 169.883 378.77 169.188 378.864 168.452C378.991 167.465 378.763 166.475 378.232 165.697C377.701 164.92 376.91 164.42 376.033 164.307ZM377.942 149.425C377.288 149.341 376.62 149.477 376.024 149.816C375.427 150.155 374.929 150.682 374.592 151.33C374.254 151.978 374.093 152.717 374.128 153.455C374.163 154.193 374.393 154.896 374.789 155.476C375.185 156.056 375.728 156.485 376.351 156.711C376.974 156.937 377.65 156.949 378.29 156.745C378.931 156.541 379.507 156.131 379.949 155.565C380.391 155 380.679 154.306 380.773 153.57C380.9 152.583 380.672 151.592 380.141 150.815C379.611 150.037 378.82 149.537 377.942 149.425ZM379.852 134.542C379.197 134.458 378.529 134.594 377.933 134.933C377.336 135.272 376.838 135.8 376.501 136.447C376.163 137.095 376.003 137.834 376.038 138.572C376.073 139.311 376.302 140.014 376.698 140.593C377.094 141.173 377.637 141.603 378.26 141.829C378.883 142.055 379.559 142.067 380.2 141.862C380.84 141.658 381.416 141.248 381.858 140.683C382.3 140.118 382.588 139.423 382.682 138.687C382.809 137.7 382.582 136.71 382.051 135.932C381.52 135.155 380.729 134.655 379.852 134.542ZM381.761 119.66C381.107 119.576 380.439 119.711 379.842 120.05C379.246 120.39 378.748 120.917 378.41 121.565C378.072 122.212 377.912 122.952 377.947 123.69C377.982 124.428 378.211 125.131 378.607 125.711C379.003 126.29 379.546 126.72 380.169 126.946C380.793 127.172 381.468 127.184 382.109 126.98C382.75 126.776 383.326 126.366 383.768 125.8C384.21 125.235 384.497 124.54 384.592 123.805C384.718 122.818 384.491 121.827 383.96 121.05C383.429 120.272 382.638 119.772 381.761 119.66ZM383.67 104.777C383.016 104.693 382.348 104.829 381.751 105.168C381.155 105.507 380.657 106.034 380.319 106.682C379.982 107.33 379.821 108.069 379.856 108.807C379.891 109.545 380.12 110.248 380.516 110.828C380.912 111.408 381.455 111.838 382.078 112.064C382.702 112.289 383.378 112.301 384.018 112.097C384.659 111.893 385.235 111.483 385.677 110.918C386.119 110.353 386.406 109.658 386.501 108.922C386.627 107.935 386.4 106.944 385.869 106.167C385.338 105.39 384.547 104.89 383.67 104.777ZM385.579 89.8944C384.925 89.8105 384.257 89.9463 383.661 90.2854C383.064 90.6244 382.566 91.1519 382.228 91.7996C381.891 92.4473 381.73 93.1866 381.765 93.9247C381.8 94.6628 382.03 95.3659 382.426 95.9456C382.821 96.5253 383.364 96.9552 383.988 97.181C384.611 97.4069 385.287 97.4188 385.927 97.2147C386.568 97.0107 387.144 96.6004 387.586 96.0352C388.028 95.4699 388.316 94.7753 388.41 94.0394C388.537 93.0527 388.309 92.0618 387.778 91.2845C387.247 90.5072 386.457 90.007 385.579 89.8944ZM387.488 75.0118C386.834 74.9279 386.166 75.0638 385.57 75.4028C384.973 75.7418 384.475 76.2693 384.138 76.917C383.8 77.5648 383.639 78.3041 383.675 79.0422C383.71 79.7803 383.939 80.4833 384.335 81.063C384.731 81.6427 385.274 82.0726 385.897 82.2985C386.52 82.5244 387.196 82.5362 387.837 82.3322C388.477 82.1281 389.053 81.7178 389.495 81.1526C389.937 80.5874 390.225 79.8927 390.319 79.1569C390.446 78.1701 390.218 77.1793 389.688 76.4019C389.157 75.6246 388.366 75.1244 387.488 75.0118ZM389.398 60.1293C388.743 60.0453 388.076 60.1812 387.479 60.5202C386.883 60.8593 386.384 61.3867 386.047 62.0345C385.709 62.6822 385.549 63.4215 385.584 64.1596C385.619 64.8977 385.848 65.6008 386.244 66.1805C386.64 66.7602 387.183 67.19 387.806 67.4159C388.429 67.6418 389.105 67.6537 389.746 67.4496C390.386 67.2456 390.962 66.8353 391.404 66.27C391.846 65.7048 392.134 65.0102 392.229 64.2743C392.355 63.2875 392.128 62.2967 391.597 61.5194C391.066 60.742 390.275 60.2418 389.398 60.1293Z" fill="white"/>
<g filter="url(#filter0_d_14_1090)">
<rect x="49.6218" y="25.03" width="16.7604" height="16.7604" rx="2.39434" transform="rotate(7.31032 49.6218 25.03)" fill="#003C36" shape-rendering="crispEdges"/>
<rect x="50.1394" y="25.6999" width="15.5632" height="15.5632" rx="1.79575" transform="rotate(7.31032 50.1394 25.6999)" stroke="#003C36" stroke-width="1.19717" shape-rendering="crispEdges"/>
<g clip-path="url(#clip1_14_1090)">
<path d="M57.439 29.9555C54.9806 29.6401 52.7302 31.3788 52.4148 33.8372C52.0995 36.2955 53.8381 38.5459 56.2965 38.8613C58.7549 39.1767 61.0053 37.438 61.3206 34.9797C61.636 32.5213 59.8973 30.2709 57.439 29.9555Z" stroke="white" stroke-width="0.897877" stroke-miterlimit="10"/>
<path d="M57.2485 31.4399L56.8201 34.7796L59.0465 35.0652" stroke="white" stroke-width="0.897877" stroke-linecap="round" stroke-linejoin="round"/>
</g>
</g>
<path d="M72.2318 31.6343L73.733 38.9761L73.83 38.9886L77.1359 32.2634L78.5443 32.4441L74.3287 40.6813L72.8233 40.4882L70.8234 31.4536L72.2318 31.6343ZM78.6504 41.2357L77.2674 41.0583L81.483 32.8211L82.9884 33.0142L84.9882 42.0488L83.6051 41.8713L82.0703 34.4908L82.0028 34.4822L78.6504 41.2357ZM79.3162 37.8836L83.8028 38.4592L83.6622 39.5556L79.1756 38.98L79.3162 37.8836ZM86.3541 42.224L87.4619 33.5881L88.7649 33.7552L87.801 41.2695L91.7141 41.7715L91.5702 42.8931L86.3541 42.224ZM95.5862 34.6303L94.4783 43.2662L93.1754 43.0991L94.2832 34.4631L95.5862 34.6303ZM99.2903 43.8835L96.4946 43.5249L97.6025 34.889L100.487 35.259C101.333 35.3675 102.037 35.6336 102.6 36.0573C103.163 36.4782 103.565 37.0312 103.806 37.7164C104.05 38.3992 104.114 39.189 103.999 40.0858C103.884 40.9853 103.62 41.7373 103.209 42.3417C102.799 42.9464 102.263 43.3834 101.6 43.6527C100.937 43.9191 100.167 43.996 99.2903 43.8835ZM97.9437 42.5535L99.3647 42.7358C100.023 42.8202 100.585 42.7667 101.053 42.5752C101.52 42.3809 101.893 42.0615 102.17 41.617C102.447 41.1696 102.63 40.6044 102.717 39.9213C102.804 39.2438 102.77 38.655 102.614 38.155C102.461 37.6553 102.188 37.256 101.795 36.9569C101.402 36.6579 100.89 36.468 100.261 36.3872L98.7594 36.1946L97.9437 42.5535ZM108.444 45.0578L109.552 36.4219L114.907 37.1089L114.763 38.2306L110.711 37.7107L110.374 40.342L114.042 40.8126L113.899 41.9301L110.23 41.4594L109.747 45.225L108.444 45.0578ZM123.576 42.61C123.458 43.5321 123.187 44.3032 122.765 44.9234C122.343 45.5407 121.815 45.9902 121.182 46.2719C120.552 46.5511 119.864 46.6429 119.119 46.5473C118.371 46.4514 117.726 46.1886 117.184 45.759C116.645 45.327 116.25 44.7576 115.998 44.0509C115.745 43.3442 115.678 42.5312 115.796 41.612C115.914 40.6899 116.185 39.9202 116.607 39.3029C117.029 38.6827 117.555 38.233 118.186 37.9538C118.819 37.6722 119.51 37.5793 120.257 37.6752C121.002 37.7708 121.644 38.0346 122.183 38.4666C122.725 38.8962 123.122 39.4644 123.375 40.1711C123.627 40.875 123.694 41.688 123.576 42.61ZM122.286 42.4445C122.376 41.7417 122.338 41.1354 122.172 40.6254C122.009 40.1131 121.747 39.7079 121.385 39.4101C121.026 39.1097 120.6 38.9278 120.105 38.8644C119.607 38.8005 119.147 38.8687 118.724 39.0687C118.302 39.266 117.946 39.5918 117.656 40.0461C117.369 40.4979 117.181 41.0753 117.091 41.7781C117.001 42.4808 117.037 43.0884 117.2 43.6008C117.366 44.1107 117.628 44.5158 117.987 44.8162C118.346 45.1137 118.774 45.2943 119.272 45.3582C119.766 45.4217 120.225 45.3548 120.648 45.1575C121.073 44.9578 121.429 44.632 121.716 44.1802C122.006 43.7258 122.196 43.1473 122.286 42.4445ZM124.765 47.1516L125.873 38.5157L128.952 38.9106C129.621 38.9964 130.161 39.1829 130.573 39.4701C130.987 39.7576 131.278 40.1192 131.445 40.5549C131.612 40.9879 131.662 41.47 131.594 42.0013C131.526 42.5298 131.355 42.9808 131.082 43.3543C130.811 43.7254 130.44 43.9934 129.967 44.1585C129.497 44.324 128.928 44.3638 128.259 44.278L125.927 43.9788L126.071 42.8572L128.284 43.1412C128.706 43.1953 129.057 43.1788 129.337 43.0919C129.619 43.0052 129.837 42.8546 129.99 42.64C130.144 42.4253 130.241 42.1563 130.282 41.8331C130.324 41.507 130.297 41.2163 130.201 40.9612C130.108 40.7063 129.936 40.4985 129.686 40.3378C129.438 40.1746 129.099 40.0654 128.669 40.0102L127.033 39.8003L126.068 47.3188L124.765 47.1516ZM129.528 43.8022L131.162 47.9723L129.678 47.7818L128.086 43.6172L129.528 43.8022ZM138.672 49.0557C138.093 48.9814 137.589 48.8152 137.159 48.5572C136.732 48.2996 136.409 47.9767 136.19 47.5886C135.974 47.198 135.887 46.7668 135.927 46.2948L137.252 46.4646C137.236 46.7226 137.293 46.9557 137.423 47.1639C137.557 47.3696 137.744 47.5393 137.984 47.673C138.224 47.8066 138.498 47.8933 138.808 47.9329C139.148 47.9766 139.456 47.9561 139.733 47.8716C140.012 47.7874 140.24 47.6495 140.416 47.4578C140.592 47.2632 140.698 47.0268 140.734 46.7485C140.771 46.459 140.729 46.195 140.608 45.9566C140.491 45.7158 140.298 45.5139 140.03 45.351C139.765 45.1884 139.433 45.0815 139.034 45.0303L138.305 44.9367L138.441 43.8741L139.171 43.9677C139.491 44.0088 139.78 43.9872 140.036 43.903C140.295 43.8191 140.507 43.6834 140.671 43.4958C140.836 43.3055 140.936 43.0711 140.971 42.7928C141.006 42.5258 140.975 42.2861 140.879 42.0738C140.787 41.8591 140.638 41.6814 140.433 41.5408C140.231 41.4006 139.983 41.3116 139.688 41.2737C139.407 41.2377 139.137 41.2559 138.879 41.3286C138.624 41.3988 138.409 41.5197 138.232 41.6914C138.057 41.8603 137.946 42.0761 137.901 42.3389L136.64 42.1772C136.714 41.7123 136.904 41.3196 137.211 40.9989C137.521 40.6786 137.905 40.4464 138.364 40.3023C138.822 40.1583 139.316 40.1202 139.844 40.188C140.398 40.259 140.862 40.4285 141.236 40.6966C141.614 40.9622 141.889 41.2875 142.062 41.6727C142.239 42.0582 142.298 42.463 142.241 42.8871C142.182 43.371 141.994 43.7641 141.678 44.0665C141.365 44.3692 140.976 44.5493 140.512 44.6069L140.503 44.6744C141.065 44.8351 141.48 45.1198 141.748 45.5284C142.018 45.9374 142.117 46.4144 142.044 46.9594C141.986 47.4349 141.799 47.8438 141.484 48.1863C141.171 48.5291 140.772 48.7793 140.286 48.937C139.801 49.0919 139.263 49.1314 138.672 49.0557ZM147.94 41.3466L149.521 41.5494L151.41 48.6152L151.511 48.6282L155.121 42.2678L156.703 42.4707L155.595 51.1066L154.355 50.9476L155.157 44.6983L155.077 44.688L151.73 50.5979L150.701 50.4659L148.954 43.8984L148.874 43.8881L148.072 50.1415L146.832 49.9825L147.94 41.3466ZM165.663 48.0092C165.545 48.9313 165.275 49.7024 164.852 50.3226C164.43 50.9399 163.902 51.3894 163.269 51.6711C162.639 51.9503 161.951 52.0421 161.206 51.9465C160.459 51.8506 159.814 51.5878 159.272 51.1583C158.733 50.7262 158.337 50.1569 158.085 49.4501C157.833 48.7434 157.766 47.9304 157.883 47.0112C158.002 46.0891 158.272 45.3194 158.694 44.7021C159.116 44.0819 159.643 43.6322 160.273 43.353C160.906 43.0714 161.597 42.9785 162.345 43.0745C163.09 43.17 163.731 43.4338 164.27 43.8659C164.813 44.2954 165.21 44.8636 165.462 45.5703C165.714 46.2742 165.782 47.0872 165.663 48.0092ZM164.373 47.8437C164.463 47.1409 164.425 46.5346 164.259 46.0246C164.096 45.5123 163.834 45.1071 163.472 44.8093C163.114 44.509 162.687 44.3271 162.192 44.2636C161.694 44.1998 161.234 44.2679 160.811 44.4679C160.389 44.6652 160.033 44.991 159.743 45.4453C159.457 45.8971 159.268 46.4745 159.178 47.1773C159.088 47.8801 159.124 48.4876 159.287 49C159.453 49.5099 159.715 49.9151 160.074 50.2154C160.433 50.5129 160.861 50.6936 161.359 50.7574C161.854 50.8209 162.312 50.754 162.735 50.5567C163.161 50.357 163.517 50.0312 163.803 49.5794C164.093 49.1251 164.283 48.5465 164.373 47.8437ZM174.931 44.8091L173.823 53.445L172.625 53.2914L169.048 46.3947L168.968 46.3844L168.156 52.718L166.853 52.5508L167.961 43.9149L169.167 44.0696L172.747 50.9753L172.827 50.9856L173.641 44.6436L174.931 44.8091ZM176.381 46.1352L176.524 45.0135L183.208 45.871L183.064 46.9926L180.37 46.6469L179.406 54.1612L178.107 53.9946L179.071 46.4803L176.381 46.1352ZM183.696 54.7116L184.804 46.0757L186.107 46.2428L185.625 49.9957L189.93 50.548L190.412 46.7951L191.719 46.9628L190.611 55.5987L189.304 55.431L189.787 51.6655L185.482 51.1132L184.999 54.8787L183.696 54.7116ZM198.154 50.0943C198.161 49.6894 198.015 49.3563 197.717 49.0952C197.419 48.8313 197.023 48.6676 196.528 48.6042C196.174 48.5587 195.86 48.5756 195.587 48.6549C195.315 48.7314 195.094 48.8574 194.926 49.033C194.761 49.2061 194.663 49.4149 194.631 49.6595C194.605 49.8647 194.63 50.048 194.707 50.2092C194.786 50.3708 194.898 50.5123 195.042 50.6337C195.19 50.7527 195.351 50.8576 195.525 50.9485C195.699 51.0366 195.868 51.1126 196.031 51.1764L196.846 51.5038C197.113 51.6066 197.384 51.7342 197.659 51.8866C197.934 52.0391 198.183 52.2253 198.406 52.4454C198.629 52.6655 198.799 52.9244 198.915 53.2222C199.034 53.5203 199.068 53.8634 199.018 54.2513C198.956 54.7404 198.774 55.1585 198.472 55.5056C198.173 55.853 197.77 56.1057 197.264 56.2637C196.761 56.422 196.172 56.4579 195.498 56.3713C194.851 56.2884 194.305 56.114 193.859 55.8482C193.413 55.5824 193.081 55.244 192.862 54.8331C192.643 54.4193 192.554 53.9506 192.592 53.4269L193.899 53.5946C193.885 53.9099 193.952 54.1829 194.103 54.4136C194.256 54.6419 194.466 54.8245 194.731 54.9614C195 55.0959 195.301 55.1846 195.636 55.2275C196.004 55.2747 196.339 55.2591 196.64 55.1806C196.945 55.0997 197.194 54.9659 197.386 54.7791C197.579 54.5896 197.694 54.3542 197.73 54.0731C197.763 53.8173 197.716 53.5985 197.591 53.4167C197.469 53.2353 197.291 53.0753 197.057 52.9367C196.826 52.7985 196.561 52.6688 196.262 52.5476L195.278 52.1384C194.61 51.8613 194.098 51.5141 193.74 51.0967C193.385 50.6797 193.246 50.1704 193.323 49.5688C193.387 49.0712 193.577 48.6542 193.895 48.3177C194.212 47.9813 194.615 47.74 195.102 47.594C195.59 47.4451 196.123 47.4078 196.702 47.4821C197.287 47.5571 197.79 47.7259 198.21 47.9884C198.634 48.2513 198.952 48.5793 199.164 48.9723C199.377 49.3625 199.459 49.7902 199.411 50.2555L198.154 50.0943Z" fill="#003C36"/>
<path d="M44.9538 71.9439L46.5048 59.8536L50.9324 60.4216C51.7903 60.5317 52.4825 60.7645 53.009 61.1201C53.5359 61.4717 53.9083 61.9055 54.1262 62.4215C54.3445 62.9336 54.4153 63.4887 54.3386 64.0869C54.2739 64.5907 54.1269 65.0039 53.8975 65.3265C53.6686 65.6451 53.3853 65.8888 53.0477 66.0575C52.7144 66.2228 52.3568 66.3289 51.9747 66.3759L51.9596 66.494C52.3585 66.5652 52.7334 66.7453 53.0844 67.0343C53.4398 67.32 53.7154 67.6974 53.9112 68.1665C54.1071 68.6357 54.1648 69.1832 54.0846 69.8089C54.0053 70.4268 53.7885 70.9631 53.4341 71.4177C53.0842 71.8688 52.5898 72.1994 51.9508 72.4095C51.3123 72.6156 50.5247 72.6586 49.588 72.5384L44.9538 71.9439ZM46.9786 70.6135L49.6116 70.9513C50.4853 71.0634 51.1328 70.9744 51.554 70.6844C51.9752 70.3944 52.2184 69.9956 52.2836 69.4879C52.3325 69.1061 52.281 68.7435 52.1291 68.3999C51.9771 68.0564 51.7342 67.7672 51.4003 67.5324C51.0703 67.298 50.6613 67.1495 50.1733 67.0869L47.4754 66.7408L46.9786 70.6135ZM47.658 65.3181L50.102 65.6316C50.5113 65.6841 50.8894 65.6526 51.2362 65.5371C51.587 65.4221 51.877 65.2353 52.1062 64.9767C52.3398 64.7146 52.4817 64.3888 52.5316 63.9991C52.5958 63.4993 52.4744 63.0577 52.1675 62.6743C51.8607 62.2909 51.3452 62.0527 50.621 61.9598L48.1298 61.6402L47.658 65.3181ZM55.3567 73.2785L56.52 64.2108L58.2261 64.4296L58.0413 65.8701L58.1357 65.8822C58.3636 65.4154 58.7041 65.069 59.1571 64.8431C59.6146 64.6137 60.109 64.5332 60.6403 64.6013C60.7505 64.6155 60.8799 64.636 61.0284 64.6631C61.1809 64.6907 61.2997 64.7159 61.3847 64.7388L61.1681 66.4272C61.0998 66.3984 60.9767 66.3606 60.7987 66.3138C60.6211 66.263 60.4419 66.226 60.2608 66.2028C59.8437 66.1493 59.4604 66.1901 59.111 66.3253C58.7661 66.4571 58.4792 66.6663 58.2504 66.953C58.0221 67.2357 57.8827 67.5739 57.8322 67.9675L57.1219 73.5049L55.3567 73.2785ZM64.8758 74.6856C64.0257 74.5766 63.3088 74.2866 62.7251 73.8157C62.1415 73.3448 61.7195 72.7366 61.4591 71.9911C61.1987 71.2456 61.1285 70.4045 61.2487 69.4679C61.3694 68.5272 61.65 67.7272 62.0907 67.0676C62.5313 66.4081 63.0935 65.9241 63.7771 65.6158C64.4607 65.3074 65.2276 65.2078 66.0777 65.3169C66.9278 65.4259 67.6446 65.7159 68.2283 66.1868C68.8119 66.6577 69.2337 67.2679 69.4936 68.0173C69.7535 68.7667 69.8231 69.6117 69.7025 70.5524C69.5823 71.489 69.3021 72.2852 68.862 72.9408C68.4219 73.5964 67.86 74.0784 67.1763 74.3867C66.4927 74.6951 65.7259 74.7947 64.8758 74.6856ZM65.0718 73.2046C65.6228 73.2753 66.098 73.1883 66.4974 72.9435C66.8968 72.6987 67.2142 72.3454 67.4495 71.8835C67.6887 71.4221 67.8456 70.9002 67.9204 70.3177C67.9946 69.7392 67.9742 69.1965 67.8592 68.6897C67.7486 68.1795 67.5312 67.7536 67.207 67.4119C66.8828 67.0703 66.4452 66.8642 65.8942 66.7935C65.3393 66.7223 64.8599 66.8108 64.456 67.059C64.0561 67.3077 63.7362 67.6648 63.4965 68.1301C63.2613 68.5919 63.1065 69.1121 63.0323 69.6907C62.9576 70.2731 62.9757 70.8175 63.0868 71.3238C63.2018 71.8306 63.4217 72.2529 63.7464 72.5906C64.075 72.9288 64.5168 73.1334 65.0718 73.2046ZM73.2197 70.0975L72.5291 75.4814L70.7639 75.255L71.9272 66.1873L73.6215 66.4046L73.4321 67.8805L73.5443 67.8949C73.8145 67.4415 74.1906 67.0977 74.6727 66.8635C75.1587 66.6298 75.7422 66.5567 76.4231 66.644C77.0409 66.7233 77.5654 66.9226 77.9965 67.2419C78.4281 67.5573 78.7392 67.9853 78.9299 68.5258C79.1206 69.0663 79.168 69.7104 79.0721 70.4582L78.3322 76.2259L76.567 75.9994L77.2797 70.4443C77.364 69.787 77.2587 69.2515 76.9637 68.8376C76.6693 68.4198 76.223 68.1725 75.6248 68.0958C75.2154 68.0433 74.84 68.0851 74.4985 68.2213C74.161 68.358 73.8777 68.5857 73.6488 68.9044C73.4244 69.2196 73.2813 69.6173 73.2197 70.0975ZM80.178 76.4627L80.3333 75.2525L86.0455 69.6426L86.0561 69.56L81.3038 68.9503L81.5007 67.4154L88.455 68.3076L88.2899 69.5945L82.7765 75.1519L82.7659 75.2345L87.6539 75.8616L87.457 77.3965L80.178 76.4627ZM92.8318 78.272C91.9384 78.1574 91.1935 77.8678 90.597 77.4033C90.005 76.9353 89.5785 76.3305 89.3176 75.589C89.0612 74.844 88.9933 74.0012 89.1139 73.0606C89.2331 72.1318 89.5113 71.3354 89.9485 70.6714C90.3896 70.0079 90.9486 69.5176 91.6254 69.2003C92.3061 68.8836 93.0675 68.7793 93.9097 68.8873C94.4214 68.953 94.9064 69.1012 95.3649 69.332C95.8233 69.5628 96.2202 69.8838 96.5555 70.2948C96.8908 70.7059 97.1315 71.2148 97.2777 71.8216C97.4244 72.4245 97.445 73.1372 97.3394 73.9598L97.2592 74.5855L90.051 73.6608L90.2207 72.3385L95.6991 73.0413C95.7587 72.5769 95.717 72.1535 95.574 71.7711C95.4315 71.3848 95.2025 71.0654 94.8869 70.8129C94.5751 70.5608 94.191 70.4056 93.7345 70.347C93.2386 70.2834 92.79 70.3498 92.3888 70.5464C91.992 70.7395 91.6682 71.018 91.4175 71.3819C91.1712 71.7423 91.0191 72.1489 90.961 72.6015L90.8285 73.6346C90.7507 74.2407 90.7909 74.7699 90.9489 75.2222C91.1108 75.675 91.3702 76.0383 91.7271 76.3121C92.0845 76.582 92.521 76.75 93.0366 76.8161C93.3711 76.8591 93.6822 76.851 93.9698 76.7918C94.2579 76.7288 94.5147 76.6137 94.7402 76.4466C94.9656 76.2795 95.1497 76.0611 95.2923 75.7914L96.9243 76.3068C96.7274 76.7816 96.4321 77.1817 96.0383 77.5072C95.6489 77.8293 95.1814 78.0594 94.6356 78.1974C94.0943 78.332 93.493 78.3568 92.8318 78.272ZM111.359 71.2459L106.908 79.8917L105.019 79.6494L102.888 70.1591L104.783 70.4022L106.184 77.6747L106.278 77.6868L109.464 71.0027L111.359 71.2459ZM115.01 81.1172C114.16 81.0081 113.443 80.7181 112.859 80.2472C112.276 79.7763 111.854 79.1681 111.593 78.4226C111.333 77.6771 111.263 76.836 111.383 75.8994C111.503 74.9587 111.784 74.1587 112.225 73.4991C112.665 72.8396 113.228 72.3556 113.911 72.0473C114.595 71.739 115.362 71.6393 116.212 71.7484C117.062 71.8574 117.779 72.1474 118.362 72.6183C118.946 73.0892 119.368 73.6994 119.628 74.4488C119.888 75.1982 119.957 76.0432 119.837 76.9839C119.716 77.9205 119.436 78.7167 118.996 79.3723C118.556 80.0279 117.994 80.5099 117.31 80.8182C116.627 81.1266 115.86 81.2262 115.01 81.1172ZM115.206 79.6361C115.757 79.7068 116.232 79.6198 116.632 79.375C117.031 79.1302 117.348 78.7769 117.584 78.315C117.823 77.8536 117.98 77.3317 118.054 76.7492C118.129 76.1707 118.108 75.628 117.993 75.1212C117.883 74.611 117.665 74.1851 117.341 73.8434C117.017 73.5018 116.579 73.2957 116.028 73.225C115.473 73.1538 114.994 73.2423 114.59 73.4905C114.19 73.7393 113.87 74.0963 113.631 74.5616C113.395 75.0234 113.241 75.5436 113.166 76.1222C113.092 76.7046 113.11 77.249 113.221 77.7553C113.336 78.2621 113.556 78.6844 113.881 79.0221C114.209 79.3603 114.651 79.565 115.206 79.6361ZM127.125 78.6629L127.805 73.3557L129.576 73.5829L128.413 82.6506L126.678 82.4279L126.879 80.8576L126.785 80.8455C126.514 81.3028 126.128 81.6633 125.626 81.927C125.128 82.1872 124.539 82.2736 123.858 82.1863C123.276 82.1115 122.777 81.9175 122.361 81.6041C121.949 81.2873 121.648 80.8587 121.458 80.3181C121.271 79.7781 121.225 79.1342 121.321 78.3865L122.061 72.6188L123.826 72.8452L123.114 78.4004C123.035 79.0183 123.143 79.5322 123.438 79.9421C123.734 80.3521 124.155 80.5921 124.702 80.6623C125.032 80.7047 125.372 80.6642 125.719 80.5408C126.071 80.418 126.377 80.2031 126.636 79.8964C126.9 79.5901 127.062 79.179 127.125 78.6629ZM134.248 83.5852C133.371 83.4726 132.641 83.1769 132.058 82.6981C131.48 82.2159 131.067 81.6008 130.819 80.8529C130.57 80.105 130.505 79.2765 130.621 78.3674C130.74 77.4465 131.017 76.656 131.454 75.9959C131.891 75.3319 132.45 74.8416 133.131 74.5249C133.811 74.2081 134.579 74.1046 135.433 74.2141C136.121 74.3025 136.719 74.5092 137.225 74.8341C137.732 75.1552 138.122 75.5652 138.394 76.0641C138.67 76.5636 138.8 77.1224 138.785 77.7405L137.067 77.5201C137.027 77.0829 136.857 76.6891 136.558 76.3387C136.263 75.9888 135.834 75.7778 135.271 75.7056C134.779 75.6425 134.332 75.7171 133.928 75.9294C133.53 76.1382 133.197 76.4676 132.932 76.9176C132.666 77.3636 132.492 77.9093 132.41 78.5548C132.325 79.216 132.352 79.7995 132.491 80.3054C132.63 80.8113 132.866 81.2196 133.198 81.5302C133.534 81.8414 133.952 82.029 134.452 82.0931C134.786 82.136 135.097 82.1139 135.384 82.0268C135.676 81.9362 135.929 81.7866 136.144 81.5781C136.363 81.3702 136.53 81.1077 136.647 80.7906L138.365 81.011C138.227 81.5893 137.969 82.0883 137.591 82.5078C137.213 82.9274 136.74 83.2347 136.171 83.4297C135.605 83.6253 134.965 83.6771 134.248 83.5852ZM142.008 78.922L141.317 84.306L139.552 84.0796L141.103 71.9893L142.845 72.2127L142.268 76.7111L142.38 76.7255C142.655 76.2648 143.029 75.9188 143.503 75.6875C143.977 75.4562 144.566 75.3858 145.27 75.4762C145.892 75.5559 146.419 75.7535 146.85 76.0689C147.286 76.3848 147.599 76.813 147.79 77.3535C147.985 77.8906 148.034 78.537 147.937 79.2926L147.197 85.0603L145.432 84.8339L146.145 79.2787C146.23 78.6136 146.125 78.0761 145.829 77.6661C145.535 77.2522 145.082 77.0062 144.472 76.9279C144.055 76.8744 143.67 76.915 143.316 77.0497C142.967 77.1849 142.676 77.4116 142.443 77.7297C142.215 78.0445 142.07 78.4419 142.008 78.922ZM153.105 86.0042C152.211 85.8896 151.466 85.6 150.87 85.1354C150.278 84.6674 149.851 84.0627 149.591 83.3211C149.334 82.5762 149.266 81.7334 149.387 80.7928C149.506 79.8639 149.784 79.0675 150.221 78.4036C150.663 77.7401 151.221 77.2497 151.898 76.9325C152.579 76.6158 153.34 76.5115 154.183 76.6195C154.694 76.6851 155.179 76.8334 155.638 77.0642C156.096 77.295 156.493 77.616 156.828 78.027C157.164 78.4381 157.404 78.947 157.551 79.5538C157.697 80.1567 157.718 80.8694 157.612 81.692L157.532 82.3177L150.324 81.393L150.494 80.0706L155.972 80.7734C156.032 80.309 155.99 79.8856 155.847 79.5033C155.704 79.117 155.475 78.7975 155.16 78.545C154.848 78.293 154.464 78.1377 154.007 78.0792C153.511 78.0155 153.063 78.082 152.662 78.2786C152.265 78.4717 151.941 78.7502 151.69 79.1141C151.444 79.4745 151.292 79.881 151.234 80.3336L151.101 81.3667C151.024 81.9728 151.064 82.502 151.222 82.9543C151.384 83.4072 151.643 83.7705 152 84.0443C152.357 84.3142 152.794 84.4822 153.31 84.5483C153.644 84.5912 153.955 84.5831 154.243 84.524C154.531 84.461 154.788 84.3459 155.013 84.1788C155.239 84.0117 155.423 83.7933 155.565 83.5235L157.197 84.0389C157 84.5137 156.705 84.9139 156.311 85.2394C155.922 85.5615 155.454 85.7915 154.908 85.9296C154.367 86.0641 153.766 86.089 153.105 86.0042ZM158.645 86.5289L159.808 77.4611L161.514 77.68L161.329 79.1205L161.424 79.1326C161.652 78.6658 161.992 78.3194 162.445 78.0935C162.902 77.8641 163.397 77.7835 163.928 77.8517C164.038 77.8658 164.168 77.8864 164.316 77.9135C164.469 77.9411 164.588 77.9663 164.673 77.9892L164.456 79.6776C164.388 79.6488 164.265 79.611 164.087 79.5642C163.909 79.5134 163.73 79.4764 163.549 79.4532C163.132 79.3997 162.748 79.4405 162.399 79.5757C162.054 79.7075 161.767 79.9167 161.538 80.2034C161.31 80.4861 161.171 80.8243 161.12 81.2179L160.41 86.7553L158.645 86.5289Z" fill="#003C36"/>
<path d="M43.31 84.1748L44.8078 84.367L47.2261 93.4209L47.3476 93.4365L51.9729 85.2861L53.4707 85.4783L52.1413 95.8414L50.9673 95.6908L51.9774 87.8173L51.8762 87.8043L47.6277 95.2624L46.4942 95.1169L44.2658 86.828L44.1646 86.815L43.1545 94.6885L41.9806 94.5379L43.31 84.1748ZM56.3318 96.5641C55.8393 96.501 55.4042 96.3508 55.0266 96.1138C54.6494 95.8734 54.3654 95.5609 54.1747 95.1764C53.9845 94.7886 53.9218 94.3416 53.9867 93.8356C54.0438 93.3903 54.1779 93.0406 54.3888 92.7865C54.6001 92.529 54.8627 92.3398 55.1765 92.2189C55.4903 92.098 55.8293 92.0215 56.1935 91.9894C56.5614 91.9543 56.9289 91.9363 57.2959 91.9353C57.776 91.9352 58.1647 91.9388 58.4621 91.9461C58.7633 91.9504 58.9863 91.9225 59.1312 91.8622C59.2795 91.8023 59.366 91.6763 59.3906 91.484L59.3958 91.4435C59.4599 90.9442 59.373 90.5388 59.1353 90.2271C58.9009 89.9159 58.5087 89.725 57.9589 89.6544C57.3888 89.5813 56.9258 89.6488 56.5699 89.8568C56.214 90.0649 55.9522 90.3022 55.7842 90.5687L54.7027 90.0185C54.9657 89.5722 55.2827 89.2391 55.6538 89.0193C56.0287 88.7965 56.4236 88.6585 56.8385 88.6055C57.2571 88.5494 57.6621 88.5465 58.0534 88.5967C58.3031 88.6288 58.5859 88.6959 58.902 88.7982C59.2218 88.8975 59.5219 89.0577 59.8021 89.2788C60.0857 89.5004 60.3051 89.808 60.4604 90.2016C60.6156 90.5953 60.6536 91.1008 60.5744 91.7181L59.9175 96.839L58.7233 96.6858L58.8583 95.6333L58.7976 95.6255C58.695 95.7838 58.5369 95.9469 58.3233 96.115C58.1098 96.283 57.8375 96.4144 57.5064 96.5091C57.1754 96.6038 56.7839 96.6221 56.3318 96.5641ZM56.6516 95.5148C57.1239 95.5753 57.5338 95.5336 57.8815 95.3897C58.2325 95.2461 58.5095 95.0382 58.7124 94.7659C58.9188 94.494 59.0427 94.1962 59.0842 93.8724L59.2245 92.7794C59.1661 92.8336 59.0476 92.875 58.8691 92.9035C58.6943 92.9291 58.4933 92.9462 58.2659 92.9547C58.0423 92.9603 57.8242 92.9632 57.6115 92.9634C57.4027 92.9606 57.2332 92.9594 57.1028 92.9598C56.7873 92.9605 56.4887 92.989 56.2071 93.0455C55.9294 93.099 55.6964 93.2046 55.5082 93.3622C55.3237 93.5168 55.2121 93.7459 55.1731 94.0495C55.1199 94.4645 55.2331 94.7979 55.5128 95.0498C55.7964 95.2988 56.1759 95.4537 56.6516 95.5148ZM63.4637 92.5414L62.8638 97.2169L61.6697 97.0637L62.6667 89.2914L63.8204 89.4394L63.6647 90.6539L63.7659 90.6668C63.9987 90.2955 64.316 90.0139 64.7178 89.822C65.12 89.6267 65.6146 89.5667 66.2016 89.642C66.7278 89.7095 67.1744 89.8766 67.5414 90.1431C67.9088 90.4062 68.1743 90.7695 68.3377 91.2328C68.5016 91.6927 68.5411 92.2532 68.4563 92.9144L67.8228 97.8531L66.6286 97.6999L67.2517 92.8422C67.3301 92.2316 67.2325 91.7356 66.9592 91.3542C66.6862 90.9695 66.2731 90.7416 65.7199 90.6706C65.3387 90.6217 64.9873 90.6607 64.6659 90.7874C64.3478 90.9147 64.0824 91.1258 63.8697 91.4208C63.657 91.7158 63.5216 92.0894 63.4637 92.5414ZM69.5774 98.0782L70.5745 90.3059L71.7687 90.4591L70.7716 98.2314L69.5774 98.0782ZM71.3479 89.0884C71.1152 89.0585 70.9246 88.9535 70.7763 88.7733C70.6313 88.5936 70.5731 88.3924 70.6017 88.1697C70.6302 87.9471 70.7373 87.7671 70.923 87.6297C71.112 87.4928 71.3229 87.4393 71.5556 87.4692C71.7884 87.499 71.9773 87.6038 72.1222 87.7836C72.2706 87.9638 72.3304 88.1652 72.3019 88.3878C72.2733 88.6105 72.1645 88.7902 71.9755 88.9272C71.7899 89.0645 71.5807 89.1182 71.3479 89.0884ZM75.6681 99.0241C74.9395 98.9307 74.3341 98.6781 73.852 98.2665C73.3699 97.8549 73.0259 97.329 72.82 96.6888C72.6141 96.0487 72.5609 95.3406 72.6604 94.5647C72.7617 93.7754 72.9961 93.0974 73.3637 92.5307C73.7351 91.9612 74.204 91.5396 74.7706 91.2659C75.341 90.9894 75.977 90.8961 76.6787 90.9861C77.2252 91.0562 77.7047 91.2206 78.1173 91.4792C78.5299 91.7379 78.8528 92.0674 79.0861 92.4676C79.3193 92.8679 79.4385 93.3152 79.4437 93.8096L78.2495 93.6564C78.2038 93.2905 78.0417 92.9508 77.763 92.6373C77.4881 92.3209 77.0876 92.1289 76.5613 92.0614C76.0958 92.0017 75.672 92.0708 75.2901 92.2687C74.9119 92.4636 74.5968 92.7678 74.3449 93.1812C74.0968 93.5917 73.9351 94.0905 73.8598 94.6775C73.7828 95.2779 73.8101 95.8129 73.9419 96.2824C74.0771 96.7524 74.3026 97.1328 74.6185 97.4236C74.9377 97.7149 75.3335 97.8908 75.8057 97.9514C76.1161 97.9912 76.4047 97.9734 76.6715 97.8979C76.9384 97.8224 77.1725 97.6947 77.3739 97.5148C77.5753 97.3349 77.7313 97.108 77.8418 96.8342L79.036 96.9874C78.9097 97.4375 78.6897 97.8293 78.376 98.1628C78.0662 98.4934 77.6798 98.7387 77.2169 98.8988C76.7579 99.0559 76.2416 99.0977 75.6681 99.0241ZM85.3693 96.874L85.9587 92.2795L87.1529 92.4327L86.1558 100.205L84.9616 100.052L85.1304 98.7362L85.0495 98.7258C84.8167 99.0971 84.4902 99.3964 84.0702 99.6237C83.6506 99.8476 83.1473 99.9219 82.5603 99.8466C82.0745 99.7843 81.6564 99.6226 81.3058 99.3616C80.9557 99.0973 80.7004 98.7353 80.5399 98.2758C80.3798 97.813 80.3422 97.2509 80.427 96.5898L81.0605 91.6511L82.2547 91.8043L81.6315 96.662C81.5588 97.2287 81.6594 97.7011 81.9332 98.0791C82.2104 98.4576 82.597 98.6786 83.0929 98.7422C83.3897 98.7803 83.7014 98.7431 84.0278 98.6307C84.3577 98.5187 84.6473 98.3193 84.8967 98.0324C85.1494 97.7459 85.307 97.3598 85.3693 96.874ZM87.9156 100.431L88.9127 92.6584L90.0664 92.8064L89.9158 93.9804L89.9967 93.9907C90.1877 93.6243 90.4842 93.3452 90.886 93.1533C91.2878 92.9614 91.7214 92.8953 92.1869 92.955C92.2747 92.9663 92.3841 92.982 92.5152 93.0023C92.6463 93.0225 92.7452 93.0403 92.8118 93.0557L92.656 94.2702C92.6168 94.2549 92.526 94.2278 92.3835 94.1889C92.2449 94.1471 92.0963 94.1161 91.9377 94.0957C91.5599 94.0473 91.2124 94.0833 90.8952 94.2037C90.5818 94.3213 90.3214 94.5073 90.1138 94.7618C89.9101 95.0134 89.7857 95.3147 89.7407 95.6655L89.1098 100.584L87.9156 100.431ZM95.7912 101.606C95.0423 101.51 94.4175 101.261 93.9168 100.861C93.4199 100.458 93.063 99.939 92.8461 99.3042C92.633 98.6665 92.5776 97.9496 92.6797 97.1535C92.7818 96.3574 93.0169 95.6743 93.3849 95.1043C93.7567 94.5314 94.2259 94.1081 94.7925 93.8345C95.3629 93.5579 95.9989 93.4646 96.7006 93.5546C97.1054 93.6066 97.4965 93.7253 97.8739 93.9109C98.2513 94.0964 98.5824 94.3618 98.8673 94.707C99.1526 95.0487 99.3596 95.4799 99.4883 96.0005C99.617 96.521 99.6348 97.1439 99.5417 97.8692L99.4768 98.3752L93.4856 97.6066L93.6181 96.5744L98.3948 97.1872C98.4511 96.7486 98.4136 96.3461 98.2823 95.9795C98.1544 95.6133 97.943 95.3102 97.648 95.07C97.3565 94.8303 96.9948 94.6828 96.563 94.6274C96.0873 94.5663 95.6606 94.6316 95.2829 94.8232C94.9089 95.0118 94.6052 95.2814 94.3716 95.6321C94.138 95.9827 93.9938 96.3723 93.9388 96.8007L93.8505 97.4889C93.7752 98.0758 93.8126 98.5864 93.9626 99.0205C94.1165 99.4518 94.3619 99.797 94.699 100.056C95.0365 100.312 95.4464 100.471 95.9288 100.533C96.2426 100.573 96.5315 100.566 96.7958 100.51C97.0639 100.452 97.3021 100.346 97.5106 100.191C97.7195 100.032 97.8919 99.8246 98.0277 99.5678L99.1399 100.04C98.9682 100.415 98.72 100.733 98.3952 100.993C98.0708 101.25 97.6871 101.434 97.2443 101.545C96.8018 101.653 96.3175 101.673 95.7912 101.606ZM102.382 100.846L102.231 101.383C102.124 101.76 101.984 102.16 101.81 102.583C101.639 103.007 101.466 103.405 101.291 103.777C101.117 104.149 100.974 104.445 100.864 104.664L99.9531 104.547C100.025 104.336 100.119 104.059 100.235 103.714C100.351 103.368 100.473 102.981 100.6 102.552C100.73 102.126 100.848 101.689 100.953 101.239L101.087 100.68L102.382 100.846ZM107.192 105.866L108.563 95.1792L109.716 95.3272L109.558 96.5619L109.7 96.5801C109.805 96.4564 109.948 96.2999 110.13 96.1107C110.316 95.9185 110.566 95.7586 110.881 95.6309C111.2 95.5004 111.612 95.4675 112.118 95.5324C112.772 95.6164 113.328 95.854 113.785 96.2453C114.243 96.6365 114.573 97.1504 114.776 97.7868C114.979 98.4231 115.028 99.1495 114.923 99.9659C114.818 100.789 114.586 101.485 114.229 102.052C113.872 102.617 113.424 103.033 112.886 103.3C112.348 103.563 111.755 103.654 111.107 103.57C110.608 103.506 110.219 103.373 109.94 103.169C109.661 102.962 109.455 102.741 109.32 102.508C109.186 102.271 109.084 102.076 109.014 101.924L108.913 101.911L108.386 106.019L107.192 105.866ZM109.238 99.216C109.163 99.803 109.182 100.332 109.297 100.803C109.412 101.27 109.618 101.651 109.917 101.947C110.215 102.239 110.604 102.416 111.083 102.477C111.582 102.541 112.016 102.463 112.383 102.243C112.755 102.019 113.054 101.694 113.28 101.267C113.51 100.837 113.661 100.346 113.732 99.7924C113.802 99.2459 113.78 98.7426 113.668 98.2824C113.559 97.8193 113.353 97.4379 113.048 97.1383C112.748 96.8357 112.345 96.6519 111.838 96.587C111.353 96.5247 110.929 96.5954 110.567 96.7993C110.205 96.9998 109.911 97.3085 109.687 97.7254C109.462 98.1389 109.313 98.6358 109.238 99.216ZM119.059 104.591C118.31 104.495 117.686 104.246 117.185 103.846C116.688 103.443 116.331 102.924 116.114 102.289C115.901 101.651 115.846 100.935 115.948 100.138C116.05 99.3423 116.285 98.6593 116.653 98.0893C117.025 97.5164 117.494 97.0931 118.061 96.8194C118.631 96.5429 119.267 96.4496 119.969 96.5396C120.373 96.5915 120.765 96.7103 121.142 96.8958C121.519 97.0814 121.85 97.3468 122.135 97.6919C122.421 98.0337 122.628 98.4649 122.756 98.9854C122.885 99.506 122.903 100.129 122.81 100.854L122.745 101.36L116.754 100.592L116.886 99.5593L121.663 100.172C121.719 99.7336 121.682 99.331 121.55 98.9644C121.422 98.5983 121.211 98.2951 120.916 98.055C120.625 97.8153 120.263 97.6677 119.831 97.6123C119.355 97.5513 118.929 97.6166 118.551 97.8081C118.177 97.9968 117.873 98.2664 117.64 98.6171C117.406 98.9677 117.262 99.3572 117.207 99.7857L117.119 100.474C117.043 101.061 117.081 101.571 117.231 102.006C117.385 102.437 117.63 102.782 117.967 103.041C118.305 103.297 118.714 103.456 119.197 103.518C119.511 103.558 119.8 103.551 120.064 103.495C120.332 103.437 120.57 103.331 120.779 103.176C120.988 103.017 121.16 102.81 121.296 102.553L122.408 103.025C122.236 103.4 121.988 103.718 121.663 103.978C121.339 104.235 120.955 104.419 120.512 104.53C120.07 104.638 119.586 104.658 119.059 104.591ZM126.601 105.558C125.954 105.475 125.403 105.238 124.949 104.847C124.496 104.453 124.167 103.938 123.964 103.301C123.762 102.662 123.713 101.93 123.819 101.107C123.924 100.291 124.155 99.6003 124.512 99.0357C124.869 98.4712 125.318 98.0573 125.859 97.7941C126.4 97.531 126.998 97.4414 127.653 97.5253C128.159 97.5902 128.547 97.7259 128.819 97.9322C129.095 98.1356 129.297 98.3535 129.425 98.5859C129.556 98.8154 129.657 99.0032 129.728 99.1494L129.829 99.1624L130.32 95.337L131.514 95.4901L130.185 105.853L129.031 105.705L129.184 104.511L129.042 104.493C128.936 104.623 128.789 104.786 128.599 104.981C128.41 105.173 128.154 105.334 127.833 105.464C127.511 105.591 127.101 105.622 126.601 105.558ZM126.901 104.506C127.38 104.568 127.801 104.495 128.163 104.288C128.527 104.077 128.823 103.76 129.052 103.337C129.281 102.91 129.434 102.403 129.509 101.816C129.584 101.236 129.564 100.718 129.452 100.261C129.339 99.8008 129.133 99.428 128.834 99.1427C128.535 98.8541 128.142 98.6786 127.657 98.6162C127.151 98.5513 126.712 98.6271 126.342 98.8436C125.975 99.0571 125.679 99.374 125.453 99.7943C125.232 100.212 125.086 100.694 125.016 101.24C124.945 101.793 124.965 102.307 125.075 102.78C125.19 103.251 125.397 103.641 125.697 103.951C126 104.257 126.402 104.442 126.901 104.506ZM132.11 106.1L133.107 98.3279L134.301 98.4811L133.304 106.253L132.11 106.1ZM133.88 97.1104C133.648 97.0806 133.457 96.9756 133.309 96.7954C133.164 96.6156 133.106 96.4144 133.134 96.1918C133.163 95.9691 133.27 95.7891 133.456 95.6518C133.645 95.5149 133.855 95.4613 134.088 95.4912C134.321 95.5211 134.51 95.6259 134.655 95.8056C134.803 95.9858 134.863 96.1872 134.834 96.4099C134.806 96.6325 134.697 96.8123 134.508 96.9492C134.322 97.0866 134.113 97.1403 133.88 97.1104ZM138.201 107.046C137.472 106.953 136.867 106.7 136.385 106.289C135.902 105.877 135.558 105.351 135.353 104.711C135.147 104.071 135.093 103.363 135.193 102.587C135.294 101.797 135.529 101.119 135.896 100.553C136.268 99.9832 136.737 99.5616 137.303 99.288C137.874 99.0114 138.51 98.9181 139.211 99.0081C139.758 99.0783 140.237 99.2426 140.65 99.5013C141.062 99.76 141.385 100.089 141.619 100.49C141.852 100.89 141.971 101.337 141.976 101.832L140.782 101.678C140.736 101.313 140.574 100.973 140.296 100.659C140.021 100.343 139.62 100.151 139.094 100.083C138.628 100.024 138.205 100.093 137.823 100.291C137.444 100.486 137.129 100.79 136.877 101.203C136.629 101.614 136.468 102.113 136.392 102.7C136.315 103.3 136.343 103.835 136.474 104.304C136.61 104.774 136.835 105.155 137.151 105.446C137.47 105.737 137.866 105.913 138.338 105.973C138.649 106.013 138.937 105.995 139.204 105.92C139.471 105.844 139.705 105.717 139.906 105.537C140.108 105.357 140.264 105.13 140.374 104.856L141.569 105.009C141.442 105.46 141.222 105.851 140.909 106.185C140.599 106.515 140.212 106.761 139.749 106.921C139.29 107.078 138.774 107.12 138.201 107.046ZM147.902 104.896L148.491 100.302L149.685 100.455L148.688 108.227L147.494 108.074L147.663 106.758L147.582 106.748C147.349 107.119 147.023 107.418 146.603 107.646C146.183 107.87 145.68 107.944 145.093 107.869C144.607 107.806 144.189 107.645 143.838 107.384C143.488 107.119 143.233 106.757 143.072 106.298C142.912 105.835 142.875 105.273 142.96 104.612L143.593 99.6731L144.787 99.8263L144.164 104.684C144.091 105.251 144.192 105.723 144.466 106.101C144.743 106.48 145.13 106.701 145.625 106.764C145.922 106.802 146.234 106.765 146.56 106.653C146.89 106.541 147.18 106.341 147.429 106.054C147.682 105.768 147.84 105.382 147.902 104.896ZM150.448 108.453L151.445 100.68L152.599 100.828L152.448 102.002L152.529 102.013C152.72 101.646 153.017 101.367 153.419 101.175C153.82 100.983 154.254 100.917 154.72 100.977C154.807 100.988 154.917 101.004 155.048 101.024C155.179 101.045 155.278 101.062 155.344 101.078L155.189 102.292C155.149 102.277 155.059 102.25 154.916 102.211C154.777 102.169 154.629 102.138 154.47 102.118C154.092 102.069 153.745 102.105 153.428 102.226C153.114 102.343 152.854 102.529 152.646 102.784C152.443 103.036 152.318 103.337 152.273 103.688L151.642 108.606L150.448 108.453ZM158.324 109.628C157.575 109.532 156.95 109.283 156.449 108.883C155.952 108.48 155.596 107.961 155.379 107.326C155.166 106.689 155.11 105.972 155.212 105.176C155.314 104.379 155.549 103.696 155.917 103.126C156.289 102.553 156.758 102.13 157.325 101.857C157.895 101.58 158.531 101.487 159.233 101.577C159.638 101.629 160.029 101.747 160.406 101.933C160.784 102.118 161.115 102.384 161.4 102.729C161.685 103.071 161.892 103.502 162.021 104.023C162.15 104.543 162.167 105.166 162.074 105.891L162.009 106.397L156.018 105.629L156.151 104.596L160.927 105.209C160.984 104.771 160.946 104.368 160.815 104.002C160.687 103.635 160.476 103.332 160.181 103.092C159.889 102.852 159.527 102.705 159.096 102.649C158.62 102.588 158.193 102.654 157.815 102.845C157.441 103.034 157.138 103.303 156.904 103.654C156.671 104.005 156.526 104.394 156.471 104.823L156.383 105.511C156.308 106.098 156.345 106.608 156.495 107.043C156.649 107.474 156.894 107.819 157.232 108.078C157.569 108.334 157.979 108.493 158.461 108.555C158.775 108.595 159.064 108.588 159.328 108.532C159.596 108.474 159.835 108.368 160.043 108.213C160.252 108.054 160.424 107.847 160.56 107.59L161.672 108.062C161.501 108.437 161.253 108.755 160.928 109.015C160.603 109.272 160.22 109.456 159.777 109.567C159.334 109.675 158.85 109.695 158.324 109.628Z" fill="#003C36"/>
<path d="M47.4959 154.63L47.3228 155.98L33.5593 154.214L33.7324 152.865L47.4959 154.63ZM47.122 157.545L46.9489 158.894L33.1854 157.129L33.3585 155.779L47.122 157.545ZM46.9492 149.431L45.1766 163.248L42.9501 162.963L37.6401 152.715L37.5322 152.701L36.3247 162.113L33.8149 161.791L35.5875 147.973L37.8342 148.261L43.1231 158.513L43.2513 158.53L44.4596 149.111L46.9492 149.431ZM54.7672 150.434L52.9946 164.251L50.4915 163.93L51.9516 152.548L51.8707 152.538L48.3741 154.188L48.6684 151.894L52.3855 150.128L54.7672 150.434ZM60.7124 165.433C59.8129 165.318 59.0294 165.046 58.362 164.617C57.6952 164.184 57.1907 163.644 56.8486 162.997C56.5109 162.35 56.3777 161.642 56.4488 160.874L58.8776 161.186C58.8499 161.758 59.0356 162.253 59.4347 162.67C59.8344 163.083 60.3469 163.329 60.9721 163.409C61.4624 163.472 61.9131 163.416 62.3242 163.24C62.7354 163.064 63.0769 162.79 63.3486 162.418C63.6204 162.046 63.7869 161.603 63.8482 161.09C63.9196 160.569 63.8688 160.091 63.6959 159.658C63.5229 159.224 63.2555 158.867 62.8936 158.588C62.5323 158.304 62.0975 158.129 61.5892 158.064C61.176 158.006 60.7592 158.03 60.3386 158.137C59.9181 158.243 59.5745 158.409 59.3077 158.635L57.0951 157.974L58.731 150.942L66.7463 151.97L66.4779 154.062L60.534 153.299L59.666 156.912L59.7469 156.922C60.042 156.654 60.4361 156.451 60.9292 156.313C61.423 156.17 61.9487 156.135 62.5065 156.206C63.3431 156.314 64.0643 156.607 64.6702 157.087C65.2767 157.563 65.7247 158.169 66.0143 158.906C66.3038 159.642 66.3917 160.454 66.2781 161.34C66.1609 162.253 65.8451 163.04 65.3305 163.701C64.8211 164.358 64.1668 164.843 63.3676 165.157C62.5735 165.466 61.6885 165.558 60.7124 165.433ZM70.0587 164.52L69.8758 165.251C69.7401 165.81 69.5538 166.371 69.3168 166.935C69.0838 167.504 68.8479 168.024 68.609 168.497C68.3701 168.969 68.1785 169.34 68.0342 169.609L66.388 169.398C66.4861 169.132 66.6195 168.77 66.788 168.311C66.9611 167.853 67.1371 167.336 67.3161 166.76C67.4952 166.184 67.6416 165.595 67.7555 164.993L67.8997 164.243L70.0587 164.52ZM76.4907 167.533C75.3797 167.39 74.4623 166.987 73.7383 166.322C73.0193 165.654 72.5146 164.76 72.2241 163.639C71.9386 162.514 71.8925 161.198 72.0858 159.692C72.2836 158.185 72.6617 156.931 73.2201 155.928C73.7836 154.921 74.4969 154.19 75.3601 153.734C76.2277 153.278 77.2148 153.121 78.3213 153.263C79.4278 153.405 80.3433 153.806 81.0679 154.466C81.7924 155.126 82.298 156.014 82.5847 157.129C82.8758 158.246 82.925 159.555 82.7323 161.057C82.5384 162.569 82.1591 163.832 81.5945 164.848C81.035 165.86 80.3211 166.595 79.4528 167.056C78.5891 167.516 77.6017 167.675 76.4907 167.533ZM76.7616 165.421C77.6252 165.532 78.3612 165.194 78.9695 164.408C79.5829 163.618 79.996 162.393 80.209 160.734C80.3498 159.636 80.3533 158.699 80.2197 157.923C80.0861 157.147 79.8344 156.543 79.4646 156.112C79.0953 155.676 78.6251 155.421 78.0538 155.348C77.1948 155.238 76.4608 155.578 75.8519 156.369C75.2435 157.155 74.8315 158.37 74.6159 160.016C74.47 161.117 74.4613 162.058 74.5899 162.838C74.7229 163.619 74.974 164.227 75.3433 164.663C75.7131 165.094 76.1859 165.347 76.7616 165.421ZM88.5929 169.085C87.482 168.943 86.5645 168.539 85.8405 167.875C85.1216 167.207 84.6168 166.312 84.3263 165.191C84.0408 164.067 83.9947 162.751 84.188 161.244C84.3858 159.738 84.7639 158.483 85.3223 157.481C85.8858 156.474 86.5991 155.742 87.4623 155.286C88.33 154.831 89.317 154.674 90.4235 154.816C91.53 154.958 92.4455 155.359 93.1701 156.019C93.8947 156.678 94.4003 157.566 94.6869 158.682C94.978 159.798 95.0272 161.108 94.8345 162.61C94.6406 164.121 94.2614 165.385 93.6967 166.4C93.1372 167.412 92.4233 168.148 91.555 168.608C90.6913 169.069 89.7039 169.228 88.5929 169.085ZM88.8639 166.974C89.7274 167.084 90.4634 166.747 91.0717 165.961C91.6851 165.171 92.0983 163.946 92.3112 162.286C92.452 161.189 92.4556 160.252 92.322 159.476C92.1884 158.7 91.9366 158.096 91.5668 157.664C91.1975 157.228 90.7273 156.974 90.1561 156.901C89.297 156.79 88.563 157.131 87.9541 157.921C87.3458 158.707 86.9338 159.923 86.7181 161.569C86.5722 162.67 86.5635 163.611 86.6921 164.391C86.8251 165.171 87.0763 165.78 87.4455 166.216C87.8153 166.647 88.2881 166.9 88.8639 166.974ZM100.695 170.638C99.5842 170.495 98.6667 170.092 97.9427 169.428C97.2238 168.759 96.7191 167.865 96.4285 166.744C96.143 165.619 96.097 164.303 96.2903 162.797C96.4881 161.29 96.8661 160.036 97.4245 159.033C97.988 158.026 98.7013 157.295 99.5645 156.839C100.432 156.383 101.419 156.226 102.526 156.368C103.632 156.51 104.548 156.911 105.272 157.571C105.997 158.231 106.502 159.119 106.789 160.234C107.08 161.351 107.129 162.66 106.937 164.162C106.743 165.674 106.364 166.937 105.799 167.953C105.239 168.965 104.526 169.701 103.657 170.161C102.794 170.621 101.806 170.78 100.695 170.638ZM100.966 168.526C101.83 168.637 102.566 168.299 103.174 167.513C103.787 166.723 104.2 165.498 104.413 163.839C104.554 162.741 104.558 161.804 104.424 161.028C104.291 160.252 104.039 159.649 103.669 159.217C103.3 158.781 102.83 158.526 102.258 158.453C101.399 158.343 100.665 158.683 100.056 159.474C99.448 160.26 99.036 161.476 98.8203 163.121C98.6744 164.223 98.6658 165.163 98.7943 165.943C98.9273 166.724 99.1785 167.332 99.5477 167.768C99.9176 168.2 100.39 168.452 100.966 168.526Z" fill="#003C36"/>
<path opacity="0.1" fill-rule="evenodd" clip-rule="evenodd" d="M455.765 127.825L467.697 119.312C469.894 117.745 470.272 114.795 468.542 112.725C466.812 110.654 463.629 110.245 461.433 111.812L449.501 120.326C447.304 121.893 446.926 124.842 448.656 126.913C450.386 128.984 453.569 129.393 455.765 127.825ZM472.519 109.887C469.06 105.745 462.694 104.928 458.301 108.063L446.369 116.576C441.976 119.711 441.219 125.609 444.679 129.751C448.138 133.893 454.504 134.71 458.897 131.575L470.829 123.062C475.222 119.927 475.979 114.029 472.519 109.887ZM453.939 142.059L465.871 133.545C468.068 131.978 468.446 129.029 466.716 126.958C464.986 124.887 461.803 124.478 459.607 126.046L447.675 134.559C445.479 136.126 445.1 139.076 446.83 141.146C448.56 143.217 451.743 143.626 453.939 142.059ZM470.694 124.12C467.234 119.978 460.868 119.161 456.475 122.296L444.543 130.809C440.15 133.944 439.393 139.842 442.853 143.984C446.312 148.126 452.678 148.943 457.072 145.808L469.003 137.295C473.396 134.16 474.153 128.262 470.694 124.12Z" fill="#003C36"/>
<path d="M409.958 165.058L410.087 164.048L416.102 164.82L415.973 165.829L413.548 165.518L412.68 172.281L411.511 172.131L412.379 165.368L409.958 165.058ZM417.602 169.394L417.158 172.856L416.023 172.71L417.02 164.938L418.14 165.081L417.769 167.973L417.841 167.982C418.018 167.686 418.258 167.464 418.563 167.315C418.867 167.166 419.246 167.121 419.699 167.179C420.099 167.231 420.437 167.358 420.715 167.56C420.995 167.763 421.196 168.039 421.319 168.386C421.444 168.731 421.476 169.147 421.413 169.633L420.938 173.34L419.803 173.195L420.261 169.624C420.316 169.196 420.248 168.851 420.058 168.587C419.869 168.321 419.578 168.163 419.186 168.112C418.918 168.078 418.67 168.104 418.443 168.191C418.218 168.278 418.031 168.423 417.881 168.628C417.735 168.83 417.641 169.086 417.602 169.394ZM424.628 173.934C424.054 173.86 423.575 173.674 423.192 173.375C422.811 173.074 422.537 172.685 422.369 172.209C422.204 171.73 422.161 171.188 422.238 170.583C422.315 169.986 422.494 169.474 422.775 169.047C423.058 168.621 423.418 168.306 423.853 168.102C424.29 167.898 424.78 167.831 425.321 167.901C425.65 167.943 425.962 168.038 426.257 168.186C426.552 168.335 426.807 168.541 427.022 168.805C427.238 169.07 427.393 169.397 427.487 169.787C427.581 170.174 427.594 170.633 427.526 171.161L427.475 171.564L422.841 170.969L422.95 170.119L426.472 170.571C426.51 170.272 426.483 170 426.391 169.754C426.3 169.506 426.152 169.301 425.95 169.138C425.749 168.976 425.502 168.877 425.209 168.839C424.89 168.798 424.602 168.841 424.344 168.967C424.089 169.091 423.88 169.27 423.719 169.504C423.561 169.736 423.463 169.997 423.426 170.288L423.341 170.952C423.291 171.342 423.316 171.682 423.418 171.973C423.522 172.264 423.689 172.498 423.918 172.674C424.148 172.847 424.429 172.955 424.76 172.998C424.975 173.025 425.175 173.02 425.36 172.982C425.545 172.941 425.71 172.867 425.855 172.76C426 172.653 426.119 172.512 426.21 172.339L427.259 172.67C427.133 172.975 426.943 173.233 426.69 173.442C426.439 173.649 426.139 173.797 425.788 173.886C425.44 173.972 425.054 173.988 424.628 173.934ZM437.952 167.623L436.955 175.395L435.877 175.257L432.658 169.05L432.586 169.041L431.854 174.741L430.682 174.59L431.679 166.818L432.764 166.957L435.986 173.173L436.059 173.182L436.791 167.474L437.952 167.623ZM439.934 175.909C439.564 175.861 439.239 175.75 438.958 175.575C438.677 175.398 438.467 175.166 438.326 174.881C438.188 174.595 438.143 174.262 438.192 173.88C438.234 173.551 438.332 173.288 438.486 173.092C438.64 172.896 438.832 172.749 439.063 172.653C439.294 172.557 439.546 172.494 439.82 172.465C440.094 172.435 440.371 172.422 440.651 172.425C441.005 172.429 441.293 172.432 441.513 172.435C441.735 172.435 441.898 172.411 442.005 172.363C442.111 172.315 442.173 172.223 442.191 172.086L442.194 172.059C442.237 171.728 442.176 171.459 442.012 171.253C441.851 171.047 441.587 170.921 441.22 170.874C440.838 170.825 440.526 170.871 440.284 171.012C440.045 171.151 439.871 171.318 439.761 171.512L438.726 171.132C438.898 170.794 439.119 170.532 439.39 170.346C439.663 170.157 439.966 170.034 440.297 169.976C440.629 169.916 440.971 169.908 441.323 169.953C441.555 169.983 441.799 170.043 442.052 170.132C442.308 170.219 442.541 170.349 442.75 170.522C442.962 170.696 443.124 170.926 443.236 171.213C443.349 171.498 443.378 171.853 443.324 172.278L442.827 176.149L441.719 176.006L441.821 175.209L441.776 175.204C441.683 175.341 441.555 175.471 441.39 175.594C441.225 175.717 441.021 175.81 440.779 175.874C440.537 175.938 440.255 175.95 439.934 175.909ZM440.297 175.029C440.611 175.07 440.887 175.042 441.126 174.947C441.367 174.852 441.558 174.712 441.7 174.527C441.845 174.339 441.932 174.131 441.962 173.901L442.058 173.149C442.013 173.184 441.929 173.212 441.808 173.233C441.69 173.251 441.556 173.263 441.406 173.27C441.257 173.274 441.111 173.277 440.969 173.279C440.828 173.279 440.709 173.28 440.614 173.28C440.391 173.28 440.183 173.301 439.993 173.343C439.805 173.386 439.648 173.462 439.524 173.572C439.402 173.68 439.328 173.835 439.302 174.038C439.266 174.318 439.342 174.544 439.531 174.715C439.721 174.883 439.976 174.988 440.297 175.029ZM444.018 176.301L444.766 170.472L445.9 170.618L445.152 176.447L444.018 176.301ZM445.454 169.646C445.257 169.621 445.096 169.533 444.971 169.384C444.849 169.232 444.8 169.063 444.823 168.879C444.847 168.691 444.937 168.541 445.093 168.427C445.252 168.311 445.43 168.266 445.628 168.291C445.825 168.317 445.985 168.405 446.107 168.557C446.232 168.707 446.282 168.875 446.258 169.063C446.234 169.247 446.143 169.398 445.984 169.514C445.828 169.627 445.651 169.671 445.454 169.646ZM448.49 168.975L447.493 176.747L446.358 176.602L447.356 168.829L448.49 168.975ZM451.298 177.235L452.295 169.463L455.141 169.828C455.693 169.899 456.138 170.048 456.476 170.277C456.815 170.503 457.054 170.782 457.194 171.114C457.335 171.443 457.38 171.8 457.331 172.184C457.289 172.508 457.195 172.774 457.047 172.981C456.9 173.186 456.718 173.343 456.501 173.451C456.287 173.557 456.057 173.626 455.811 173.656L455.802 173.732C456.058 173.778 456.299 173.893 456.525 174.079C456.753 174.263 456.93 174.505 457.056 174.807C457.182 175.109 457.219 175.46 457.168 175.863C457.117 176.26 456.977 176.605 456.75 176.897C456.525 177.187 456.207 177.4 455.796 177.535C455.385 177.667 454.879 177.695 454.277 177.617L451.298 177.235ZM452.6 176.38L454.292 176.597C454.854 176.669 455.27 176.612 455.541 176.426C455.812 176.239 455.968 175.983 456.01 175.656C456.041 175.411 456.008 175.178 455.911 174.957C455.813 174.736 455.657 174.55 455.442 174.399C455.23 174.249 454.967 174.153 454.653 174.113L452.919 173.89L452.6 176.38ZM453.036 172.976L454.607 173.177C454.871 173.211 455.114 173.191 455.337 173.117C455.562 173.043 455.749 172.923 455.896 172.756C456.046 172.588 456.137 172.378 456.169 172.128C456.211 171.807 456.133 171.523 455.935 171.276C455.738 171.03 455.407 170.877 454.941 170.817L453.34 170.611L453.036 172.976ZM460.319 178.512C459.772 178.442 459.312 178.256 458.936 177.953C458.561 177.65 458.29 177.259 458.123 176.78C457.955 176.301 457.91 175.76 457.987 175.158C458.065 174.553 458.245 174.039 458.529 173.615C458.812 173.191 459.173 172.88 459.613 172.681C460.052 172.483 460.545 172.419 461.092 172.489C461.638 172.559 462.099 172.746 462.474 173.049C462.849 173.351 463.12 173.744 463.288 174.225C463.455 174.707 463.499 175.25 463.422 175.855C463.345 176.457 463.164 176.969 462.882 177.39C462.599 177.812 462.237 178.122 461.798 178.32C461.358 178.518 460.865 178.582 460.319 178.512ZM460.445 177.56C460.799 177.605 461.105 177.55 461.361 177.392C461.618 177.235 461.822 177.008 461.973 176.711C462.127 176.414 462.228 176.079 462.276 175.704C462.324 175.332 462.311 174.983 462.237 174.658C462.166 174.33 462.026 174.056 461.818 173.836C461.609 173.617 461.328 173.484 460.974 173.439C460.617 173.393 460.309 173.45 460.049 173.609C459.792 173.769 459.586 173.999 459.432 174.298C459.281 174.595 459.182 174.929 459.134 175.301C459.086 175.676 459.098 176.025 459.169 176.351C459.243 176.677 459.384 176.948 459.593 177.165C459.804 177.383 460.088 177.514 460.445 177.56ZM468 176.921L468.438 173.509L469.576 173.655L468.828 179.484L467.713 179.341L467.842 178.332L467.781 178.324C467.607 178.618 467.359 178.85 467.037 179.019C466.717 179.186 466.338 179.242 465.9 179.186C465.526 179.138 465.205 179.013 464.938 178.811C464.673 178.608 464.48 178.332 464.357 177.985C464.237 177.638 464.208 177.224 464.269 176.743L464.745 173.035L465.88 173.181L465.422 176.752C465.371 177.149 465.44 177.48 465.63 177.743C465.82 178.007 466.091 178.161 466.443 178.206C466.655 178.233 466.873 178.207 467.097 178.128C467.323 178.049 467.519 177.911 467.686 177.714C467.855 177.517 467.96 177.252 468 176.921ZM473.501 174.158L473.385 175.069L470.2 174.661L470.317 173.75L473.501 174.158ZM471.35 172.463L472.485 172.609L471.778 178.123C471.749 178.343 471.761 178.513 471.813 178.633C471.864 178.75 471.94 178.835 472.038 178.889C472.14 178.941 472.252 178.974 472.376 178.99C472.467 179.002 472.548 179.006 472.618 179.002C472.688 178.998 472.742 178.995 472.781 178.992L472.866 179.956C472.797 179.973 472.7 179.986 472.575 179.996C472.45 180.008 472.296 180.004 472.114 179.983C471.815 179.95 471.543 179.861 471.299 179.716C471.056 179.572 470.869 179.373 470.739 179.12C470.61 178.867 470.568 178.564 470.613 178.213L471.35 172.463ZM473.688 180.108L474.436 174.278L475.571 174.424L474.823 180.253L473.688 180.108ZM475.124 173.452C474.927 173.427 474.766 173.34 474.641 173.19C474.519 173.038 474.47 172.87 474.494 172.685C474.518 172.498 474.608 172.347 474.764 172.234C474.923 172.118 475.101 172.072 475.298 172.098C475.496 172.123 475.655 172.212 475.777 172.364C475.902 172.513 475.952 172.682 475.928 172.869C475.905 173.054 475.813 173.204 475.655 173.32C475.499 173.434 475.322 173.478 475.124 173.452ZM479.684 183.099L480.081 180.006L480.012 179.997C479.928 180.112 479.811 180.241 479.662 180.384C479.515 180.527 479.323 180.644 479.085 180.734C478.847 180.825 478.551 180.847 478.196 180.802C477.726 180.741 477.321 180.567 476.983 180.28C476.647 179.99 476.403 179.607 476.25 179.132C476.101 178.656 476.066 178.102 476.147 177.472C476.228 176.842 476.402 176.317 476.669 175.896C476.939 175.475 477.274 175.17 477.674 174.979C478.074 174.789 478.508 174.724 478.976 174.784C479.338 174.83 479.621 174.928 479.826 175.078C480.033 175.225 480.187 175.387 480.288 175.561C480.392 175.737 480.47 175.89 480.523 176.02L480.618 176.032L480.739 175.087L481.847 175.229L480.819 183.244L479.684 183.099ZM478.571 179.866C478.897 179.908 479.184 179.857 479.432 179.714C479.682 179.569 479.885 179.349 480.041 179.056C480.199 178.762 480.305 178.41 480.357 178.001C480.409 177.596 480.396 177.234 480.319 176.916C480.242 176.597 480.101 176.339 479.898 176.14C479.694 175.942 479.427 175.821 479.095 175.779C478.754 175.735 478.458 175.787 478.207 175.935C477.957 176.083 477.754 176.302 477.598 176.594C477.445 176.885 477.344 177.223 477.295 177.608C477.245 177.997 477.258 178.355 477.334 178.681C477.411 179.007 477.551 179.276 477.756 179.488C477.963 179.697 478.235 179.823 478.571 179.866ZM486.307 179.269L486.745 175.857L487.883 176.003L487.135 181.833L486.02 181.69L486.149 180.68L486.088 180.672C485.914 180.966 485.666 181.198 485.343 181.368C485.024 181.535 484.645 181.59 484.207 181.534C483.833 181.486 483.512 181.361 483.244 181.16C482.98 180.956 482.786 180.681 482.664 180.333C482.544 179.986 482.515 179.572 482.576 179.091L483.052 175.384L484.187 175.529L483.729 179.1C483.678 179.498 483.747 179.828 483.937 180.092C484.127 180.355 484.398 180.509 484.749 180.555C484.962 180.582 485.18 180.556 485.404 180.476C485.63 180.397 485.826 180.259 485.993 180.062C486.162 179.865 486.267 179.601 486.307 179.269ZM490.837 182.427C490.262 182.353 489.783 182.167 489.4 181.869C489.019 181.568 488.745 181.179 488.577 180.702C488.413 180.223 488.369 179.682 488.447 179.077C488.523 178.48 488.702 177.968 488.983 177.541C489.267 177.114 489.626 176.799 490.061 176.595C490.499 176.392 490.988 176.325 491.53 176.394C491.858 176.436 492.17 176.532 492.465 176.68C492.76 176.828 493.015 177.035 493.23 177.299C493.446 177.563 493.601 177.89 493.695 178.28C493.789 178.668 493.802 179.126 493.734 179.655L493.683 180.057L489.049 179.463L489.158 178.613L492.68 179.064C492.718 178.766 492.691 178.494 492.599 178.248C492.508 178 492.361 177.794 492.158 177.632C491.957 177.47 491.71 177.37 491.417 177.332C491.098 177.292 490.81 177.334 490.552 177.461C490.297 177.585 490.089 177.764 489.927 177.998C489.769 178.229 489.671 178.491 489.634 178.782L489.549 179.446C489.499 179.836 489.525 180.176 489.626 180.466C489.73 180.758 489.897 180.991 490.126 181.167C490.356 181.341 490.637 181.449 490.968 181.491C491.183 181.519 491.383 181.514 491.568 181.476C491.753 181.435 491.918 181.361 492.063 181.254C492.208 181.146 492.327 181.006 492.418 180.832L493.468 181.164C493.341 181.469 493.151 181.726 492.898 181.935C492.648 182.143 492.347 182.29 491.996 182.379C491.648 182.466 491.262 182.482 490.837 182.427Z" fill="#003C36"/>
<path d="M410.815 188.529L411.729 181.405L412.498 181.503L412.392 182.326L412.487 182.339C412.557 182.256 412.653 182.152 412.774 182.026C412.898 181.897 413.065 181.791 413.274 181.706C413.487 181.619 413.762 181.597 414.099 181.64C414.535 181.696 414.906 181.854 415.211 182.115C415.516 182.376 415.736 182.719 415.871 183.143C416.006 183.567 416.039 184.051 415.969 184.596C415.899 185.144 415.744 185.608 415.506 185.987C415.268 186.363 414.97 186.64 414.611 186.818C414.252 186.994 413.857 187.054 413.425 186.999C413.092 186.956 412.833 186.867 412.647 186.731C412.461 186.593 412.323 186.446 412.234 186.29C412.144 186.133 412.076 186.003 412.03 185.901L411.962 185.892L411.611 188.631L410.815 188.529ZM412.179 184.096C412.129 184.487 412.142 184.84 412.218 185.154C412.295 185.465 412.433 185.719 412.631 185.916C412.83 186.111 413.09 186.229 413.409 186.27C413.742 186.312 414.031 186.26 414.276 186.114C414.524 185.965 414.723 185.748 414.874 185.463C415.027 185.177 415.127 184.849 415.175 184.48C415.221 184.116 415.207 183.78 415.132 183.473C415.06 183.165 414.922 182.91 414.719 182.711C414.519 182.509 414.25 182.386 413.913 182.343C413.589 182.302 413.306 182.349 413.065 182.485C412.824 182.618 412.628 182.824 412.478 183.102C412.328 183.378 412.229 183.709 412.179 184.096ZM418.659 187.67C418.191 187.61 417.795 187.446 417.471 187.178C417.148 186.911 416.914 186.564 416.767 186.138C416.623 185.713 416.585 185.233 416.654 184.697C416.723 184.158 416.881 183.699 417.129 183.321C417.378 182.944 417.693 182.667 418.072 182.489C418.454 182.312 418.879 182.253 419.346 182.313C419.814 182.373 420.209 182.537 420.531 182.805C420.856 183.073 421.09 183.42 421.234 183.848C421.38 184.276 421.419 184.76 421.35 185.3C421.281 185.835 421.122 186.29 420.873 186.665C420.626 187.04 420.312 187.316 419.93 187.494C419.55 187.671 419.127 187.73 418.659 187.67ZM418.751 186.955C419.106 187.001 419.41 186.947 419.663 186.794C419.916 186.642 420.116 186.424 420.265 186.141C420.413 185.858 420.509 185.544 420.554 185.198C420.598 184.851 420.584 184.521 420.513 184.208C420.441 183.895 420.302 183.631 420.096 183.418C419.89 183.204 419.61 183.074 419.255 183.028C418.899 182.983 418.595 183.038 418.342 183.193C418.089 183.348 417.888 183.567 417.74 183.852C417.591 184.137 417.495 184.453 417.45 184.799C417.406 185.146 417.42 185.474 417.492 185.785C417.564 186.096 417.703 186.358 417.909 186.569C418.115 186.781 418.396 186.909 418.751 186.955ZM422.949 188.111L422.035 182.727L422.871 182.834L423.482 186.945L423.536 186.952L425.152 183.127L426.002 183.236L426.588 187.33L426.642 187.336L428.269 183.526L429.105 183.634L426.862 188.613L426.079 188.512L425.457 184.386L425.376 184.376L423.731 188.211L422.949 188.111ZM431.191 189.278C430.691 189.214 430.275 189.048 429.941 188.782C429.61 188.513 429.372 188.167 429.227 187.744C429.085 187.318 429.048 186.84 429.116 186.31C429.184 185.779 429.341 185.324 429.586 184.944C429.834 184.562 430.147 184.279 430.525 184.097C430.905 183.913 431.329 183.85 431.797 183.91C432.067 183.945 432.327 184.024 432.579 184.148C432.831 184.272 433.051 184.449 433.241 184.679C433.432 184.907 433.57 185.194 433.655 185.541C433.741 185.888 433.753 186.303 433.691 186.787L433.648 187.124L429.654 186.612L429.742 185.924L432.926 186.332C432.964 186.04 432.939 185.771 432.851 185.527C432.766 185.283 432.625 185.081 432.428 184.921C432.234 184.761 431.993 184.663 431.705 184.626C431.388 184.585 431.104 184.628 430.852 184.756C430.602 184.882 430.4 185.062 430.244 185.295C430.088 185.529 429.992 185.789 429.956 186.075L429.897 186.533C429.847 186.925 429.872 187.265 429.972 187.554C430.074 187.842 430.238 188.072 430.462 188.245C430.687 188.416 430.961 188.521 431.282 188.563C431.492 188.59 431.684 188.585 431.86 188.548C432.039 188.509 432.198 188.438 432.337 188.334C432.476 188.229 432.591 188.091 432.682 187.919L433.423 188.234C433.309 188.484 433.143 188.696 432.927 188.87C432.71 189.041 432.455 189.163 432.159 189.238C431.864 189.309 431.541 189.323 431.191 189.278ZM434.276 189.564L434.941 184.382L435.71 184.481L435.609 185.264L435.663 185.271C435.791 185.026 435.988 184.84 436.256 184.712C436.524 184.584 436.813 184.54 437.124 184.58C437.182 184.588 437.255 184.598 437.342 184.612C437.43 184.625 437.496 184.637 437.54 184.647L437.436 185.457C437.41 185.447 437.35 185.429 437.255 185.403C437.162 185.375 437.063 185.354 436.957 185.341C436.706 185.308 436.474 185.332 436.262 185.413C436.054 185.491 435.88 185.615 435.742 185.785C435.606 185.952 435.523 186.153 435.493 186.387L435.072 189.666L434.276 189.564ZM439.526 190.347C439.027 190.283 438.611 190.118 438.277 189.851C437.946 189.582 437.708 189.236 437.563 188.813C437.421 188.388 437.384 187.91 437.452 187.379C437.52 186.848 437.677 186.393 437.922 186.013C438.17 185.631 438.483 185.349 438.861 185.166C439.241 184.982 439.665 184.92 440.133 184.98C440.403 185.014 440.663 185.094 440.915 185.217C441.166 185.341 441.387 185.518 441.577 185.748C441.767 185.976 441.905 186.263 441.991 186.61C442.077 186.957 442.089 187.373 442.027 187.856L441.984 188.194L437.989 187.681L438.078 186.993L441.262 187.402C441.3 187.109 441.275 186.841 441.187 186.596C441.102 186.352 440.961 186.15 440.764 185.99C440.57 185.83 440.329 185.732 440.041 185.695C439.724 185.654 439.439 185.698 439.188 185.826C438.938 185.951 438.736 186.131 438.58 186.365C438.424 186.599 438.328 186.858 438.291 187.144L438.233 187.603C438.182 187.994 438.207 188.334 438.307 188.624C438.41 188.911 438.574 189.141 438.798 189.314C439.023 189.485 439.297 189.591 439.618 189.632C439.827 189.659 440.02 189.654 440.196 189.617C440.375 189.578 440.534 189.507 440.673 189.404C440.812 189.298 440.927 189.16 441.017 188.989L441.759 189.303C441.644 189.554 441.479 189.766 441.262 189.939C441.046 190.11 440.79 190.233 440.495 190.307C440.2 190.379 439.877 190.392 439.526 190.347ZM444.555 190.992C444.123 190.937 443.756 190.779 443.453 190.518C443.151 190.256 442.932 189.912 442.797 189.488C442.661 189.061 442.629 188.574 442.7 188.025C442.769 187.481 442.923 187.02 443.161 186.644C443.399 186.268 443.699 185.992 444.06 185.816C444.42 185.641 444.819 185.581 445.255 185.637C445.593 185.68 445.852 185.771 446.033 185.908C446.217 186.044 446.351 186.189 446.437 186.344C446.525 186.497 446.592 186.622 446.639 186.72L446.706 186.728L447.033 184.178L447.83 184.28L446.943 191.189L446.174 191.09L446.276 190.294L446.182 190.282C446.111 190.369 446.013 190.478 445.886 190.608C445.76 190.735 445.59 190.843 445.375 190.93C445.161 191.014 444.887 191.035 444.555 190.992ZM444.754 190.291C445.074 190.332 445.354 190.283 445.596 190.145C445.838 190.005 446.035 189.794 446.188 189.511C446.341 189.227 446.443 188.889 446.493 188.498C446.543 188.111 446.53 187.765 446.455 187.461C446.38 187.154 446.242 186.905 446.043 186.715C445.843 186.523 445.582 186.406 445.258 186.364C444.921 186.321 444.628 186.372 444.381 186.516C444.137 186.658 443.939 186.869 443.789 187.15C443.641 187.428 443.544 187.749 443.497 188.114C443.45 188.482 443.463 188.825 443.537 189.14C443.613 189.454 443.752 189.714 443.951 189.92C444.154 190.125 444.421 190.248 444.754 190.291ZM450.722 191.674L451.608 184.765L452.404 184.867L452.077 187.417L452.144 187.426C452.214 187.344 452.31 187.239 452.431 187.113C452.555 186.985 452.722 186.878 452.932 186.793C453.144 186.706 453.419 186.684 453.756 186.728C454.193 186.784 454.563 186.942 454.868 187.203C455.173 187.464 455.393 187.806 455.528 188.23C455.664 188.655 455.696 189.139 455.627 189.683C455.556 190.232 455.402 190.696 455.164 191.074C454.926 191.451 454.627 191.728 454.268 191.906C453.91 192.082 453.514 192.142 453.083 192.086C452.75 192.044 452.49 191.954 452.304 191.818C452.119 191.68 451.981 191.533 451.891 191.378C451.802 191.22 451.734 191.09 451.687 190.988L451.593 190.976L451.491 191.772L450.722 191.674ZM451.837 189.183C451.786 189.575 451.799 189.927 451.876 190.241C451.952 190.553 452.09 190.807 452.289 191.004C452.488 191.198 452.747 191.316 453.066 191.357C453.399 191.4 453.688 191.348 453.933 191.201C454.181 191.052 454.38 190.835 454.531 190.551C454.685 190.264 454.785 189.936 454.832 189.568C454.879 189.203 454.865 188.868 454.79 188.561C454.718 188.252 454.58 187.998 454.377 187.798C454.176 187.596 453.908 187.474 453.57 187.431C453.246 187.389 452.964 187.436 452.722 187.572C452.481 187.706 452.286 187.912 452.136 188.19C451.986 188.465 451.886 188.796 451.837 189.183ZM456.307 194.365C456.172 194.348 456.053 194.321 455.95 194.285C455.847 194.251 455.777 194.222 455.739 194.196L456.031 193.521C456.218 193.595 456.387 193.635 456.537 193.64C456.687 193.646 456.827 193.596 456.957 193.492C457.089 193.39 457.22 193.214 457.351 192.963L457.551 192.577L456.303 187.123L457.167 187.234L458.067 191.546L458.121 191.553L460.081 187.608L460.945 187.718L457.984 193.373C457.851 193.628 457.7 193.834 457.531 193.991C457.362 194.15 457.175 194.259 456.971 194.32C456.769 194.381 456.547 194.396 456.307 194.365ZM467.984 188.621C467.987 188.274 467.857 187.988 467.593 187.762C467.33 187.536 466.989 187.396 466.57 187.343C466.265 187.304 465.991 187.319 465.749 187.388C465.509 187.458 465.314 187.571 465.163 187.728C465.015 187.885 464.927 188.074 464.899 188.294C464.875 188.479 464.898 188.643 464.969 188.787C465.042 188.929 465.143 189.052 465.271 189.158C465.4 189.261 465.537 189.351 465.682 189.427C465.828 189.5 465.963 189.562 466.087 189.612L466.765 189.891C466.939 189.962 467.13 190.053 467.34 190.164C467.552 190.276 467.75 190.417 467.934 190.587C468.12 190.755 468.266 190.958 468.37 191.198C468.474 191.438 468.505 191.719 468.464 192.043C468.416 192.417 468.275 192.741 468.04 193.018C467.808 193.294 467.494 193.497 467.098 193.627C466.704 193.757 466.242 193.788 465.711 193.72C465.216 193.657 464.798 193.522 464.457 193.316C464.117 193.11 463.862 192.851 463.692 192.539C463.524 192.227 463.451 191.88 463.472 191.499L464.336 191.61C464.325 191.874 464.385 192.101 464.516 192.291C464.65 192.48 464.829 192.631 465.055 192.744C465.283 192.856 465.534 192.929 465.808 192.964C466.127 193.005 466.421 192.99 466.688 192.92C466.956 192.847 467.176 192.726 467.348 192.559C467.521 192.389 467.623 192.178 467.656 191.926C467.685 191.697 467.645 191.502 467.535 191.341C467.426 191.181 467.272 191.042 467.074 190.925C466.877 190.809 466.661 190.701 466.427 190.602L465.608 190.25C465.088 190.026 464.689 189.75 464.411 189.421C464.133 189.093 464.024 188.696 464.084 188.231C464.133 187.844 464.281 187.52 464.527 187.259C464.776 186.996 465.088 186.807 465.464 186.693C465.842 186.577 466.252 186.548 466.693 186.604C467.138 186.661 467.523 186.792 467.849 186.996C468.175 187.198 468.422 187.449 468.589 187.749C468.759 188.05 468.827 188.375 468.793 188.725L467.984 188.621ZM468.956 195.988L469.87 188.863L470.639 188.962L470.534 189.785L470.628 189.797C470.698 189.715 470.794 189.61 470.915 189.484C471.039 189.356 471.206 189.25 471.416 189.165C471.628 189.077 471.903 189.056 472.24 189.099C472.677 189.155 473.047 189.313 473.352 189.574C473.657 189.835 473.877 190.177 474.012 190.602C474.148 191.026 474.18 191.51 474.111 192.054C474.04 192.603 473.886 193.067 473.648 193.445C473.41 193.822 473.111 194.099 472.752 194.277C472.394 194.453 471.998 194.513 471.567 194.458C471.234 194.415 470.974 194.326 470.788 194.19C470.603 194.052 470.465 193.905 470.375 193.749C470.286 193.591 470.218 193.462 470.171 193.36L470.104 193.351L469.752 196.09L468.956 195.988ZM470.321 191.555C470.27 191.946 470.283 192.298 470.36 192.612C470.436 192.924 470.574 193.178 470.773 193.375C470.972 193.57 471.231 193.688 471.55 193.729C471.883 193.771 472.172 193.719 472.417 193.572C472.665 193.423 472.864 193.207 473.015 192.922C473.169 192.635 473.269 192.308 473.316 191.939C473.363 191.575 473.349 191.239 473.274 190.932C473.202 190.623 473.064 190.369 472.861 190.169C472.66 189.968 472.392 189.845 472.054 189.802C471.73 189.76 471.448 189.808 471.206 189.943C470.965 190.077 470.77 190.283 470.62 190.561C470.47 190.836 470.37 191.168 470.321 191.555ZM476.392 187.944L475.506 194.853L474.709 194.751L475.596 187.842L476.392 187.944ZM476.679 195.004L477.343 189.822L478.14 189.924L477.475 195.106L476.679 195.004ZM477.859 189.01C477.704 188.99 477.577 188.92 477.478 188.8C477.381 188.681 477.342 188.546 477.362 188.398C477.381 188.25 477.452 188.13 477.576 188.038C477.702 187.947 477.842 187.911 477.998 187.931C478.153 187.951 478.279 188.021 478.375 188.141C478.474 188.261 478.514 188.395 478.495 188.543C478.476 188.692 478.403 188.812 478.277 188.903C478.154 188.994 478.014 189.03 477.859 189.01ZM480.739 195.634C480.253 195.572 479.85 195.404 479.528 195.129C479.207 194.855 478.978 194.504 478.84 194.077C478.703 193.651 478.668 193.179 478.734 192.661C478.802 192.135 478.958 191.683 479.203 191.305C479.45 190.926 479.763 190.645 480.141 190.462C480.521 190.278 480.945 190.216 481.413 190.276C481.777 190.322 482.097 190.432 482.372 190.604C482.647 190.777 482.862 190.996 483.018 191.263C483.173 191.53 483.253 191.828 483.256 192.158L482.46 192.056C482.43 191.812 482.322 191.585 482.136 191.376C481.953 191.165 481.685 191.037 481.335 190.992C481.024 190.953 480.742 190.999 480.487 191.131C480.235 191.261 480.025 191.463 479.857 191.739C479.692 192.013 479.584 192.345 479.534 192.736C479.482 193.137 479.5 193.493 479.588 193.806C479.678 194.12 479.829 194.373 480.039 194.567C480.252 194.761 480.516 194.879 480.831 194.919C481.038 194.946 481.23 194.934 481.408 194.883C481.586 194.833 481.742 194.748 481.876 194.628C482.011 194.508 482.115 194.357 482.188 194.174L482.984 194.276C482.9 194.576 482.754 194.838 482.544 195.06C482.338 195.28 482.08 195.444 481.772 195.551C481.466 195.655 481.121 195.683 480.739 195.634ZM485.828 196.287C485.329 196.223 484.912 196.058 484.578 195.791C484.247 195.522 484.009 195.176 483.865 194.753C483.723 194.328 483.686 193.85 483.754 193.319C483.822 192.788 483.978 192.333 484.224 191.953C484.472 191.571 484.784 191.289 485.162 191.106C485.542 190.922 485.966 190.86 486.434 190.92C486.704 190.954 486.965 191.033 487.216 191.157C487.468 191.281 487.689 191.458 487.879 191.688C488.069 191.916 488.207 192.203 488.293 192.55C488.379 192.897 488.39 193.313 488.328 193.796L488.285 194.133L484.291 193.621L484.379 192.933L487.564 193.341C487.601 193.049 487.576 192.781 487.489 192.536C487.403 192.292 487.263 192.09 487.066 191.93C486.872 191.77 486.63 191.672 486.343 191.635C486.025 191.594 485.741 191.638 485.489 191.765C485.24 191.891 485.037 192.071 484.882 192.305C484.726 192.538 484.63 192.798 484.593 193.084L484.534 193.543C484.484 193.934 484.509 194.274 484.609 194.564C484.712 194.851 484.875 195.081 485.1 195.254C485.325 195.425 485.598 195.531 485.92 195.572C486.129 195.599 486.322 195.594 486.498 195.557C486.676 195.518 486.835 195.447 486.974 195.344C487.114 195.238 487.228 195.1 487.319 194.928L488.06 195.243C487.946 195.494 487.781 195.705 487.564 195.879C487.348 196.05 487.092 196.173 486.797 196.247C486.502 196.319 486.179 196.332 485.828 196.287Z" fill="#003C36"/>
</g>
<defs>
<filter id="filter0_d_14_1090" x="37.9119" y="20.2414" width="37.9113" height="37.9116" filterUnits="userSpaceOnUse" color-interpolation-filters="sRGB">
<feFlood flood-opacity="0" result="BackgroundImageFix"/>
<feColorMatrix in="SourceAlpha" type="matrix" values="0 0 0 0 0 0 0 0 0 0 0 0 0 0 0 0 0 0 127 0" result="hardAlpha"/>
<feOffset dy="4.78868"/>
<feGaussianBlur stdDeviation="4.78868"/>
<feComposite in2="hardAlpha" operator="out"/>
<feColorMatrix type="matrix" values="0 0 0 0 0 0 0 0 0 0 0 0 0 0 0 0 0 0 0.02 0"/>
<feBlend mode="normal" in2="BackgroundImageFix" result="effect1_dropShadow_14_1090"/>
<feBlend mode="normal" in="SourceGraphic" in2="effect1_dropShadow_14_1090" result="shape"/>
</filter>
<clipPath id="clip0_14_1090">
<rect width="521.966" height="187.557" fill="white" transform="translate(23.8652) rotate(7.31032)"/>
</clipPath>
<clipPath id="clip1_14_1090">
<rect width="11.9717" height="11.9717" fill="white" transform="translate(51.6921 27.7097) rotate(7.31032)"/>
</clipPath>
</defs>
</svg>
