<svg width="138" height="172" viewBox="0 0 138 172" fill="none" xmlns="http://www.w3.org/2000/svg">
<path d="M129.12 138.513C129.737 138.279 131.377 141.195 133.093 146.338C134.087 149.364 134.913 152.443 135.569 155.559C135.934 157.358 136.283 159.155 136.586 161.128L136.996 164.102L137.089 165.014C137.106 165.518 137.079 166.022 137.008 166.521C136.913 167.496 136.523 168.419 135.888 169.165C135.258 169.866 134.423 170.35 133.502 170.548C132.37 170.755 132.195 170.71 131.71 170.79C130.798 170.884 129.922 170.979 128.993 171.054C127.206 171.207 125.42 171.342 123.866 171.472C120.581 171.705 117.621 171.849 115.128 171.893C110.162 171.964 107.05 171.637 106.982 170.904C106.915 170.172 109.903 169.176 114.814 168.141C117.009 167.672 119.595 167.206 122.464 166.773L121.129 166.132C120.176 165.654 119.083 165.151 117.908 164.501C116.734 163.851 115.441 163.088 114.01 162.246C111.147 160.563 107.713 158.601 103.822 155.884C101.867 154.534 99.7184 153.138 97.4573 151.523L90.279 146.087C78.2608 136.617 67.0772 126.134 56.8513 114.752C45.4783 102.081 35.236 88.4393 26.2419 73.9823L23.0472 68.8843L20.154 63.8025C18.2709 60.4468 16.395 57.2871 14.8581 54.11C13.3211 50.9328 11.7176 48.0011 10.3566 45.1892L6.78021 37.2607L5.18751 33.796L3.95105 30.6528L2.03609 25.5701C1.34556 24.1707 0.908721 22.6599 0.745892 21.1079C0.928942 21.011 1.77886 22.4083 3.13347 25.0065L5.56306 29.7788L7.03861 32.7748L8.81818 36.0716L12.8915 43.6889L17.7685 52.2385C19.3831 55.2953 21.4262 58.3217 23.4056 61.5404L26.4511 66.4347L29.7459 71.3246C39.0594 85.1665 49.4549 98.2487 60.8349 110.448C71.0605 121.354 82.107 131.46 93.8773 140.678L100.866 145.997C103.057 147.591 105.134 149 107.037 150.33C110.784 153.074 114.09 155.101 116.804 156.901L120.497 159.34L123.505 161.28C125.225 162.386 126.638 163.226 127.628 164.008C129.13 164.55 130.661 165.006 132.214 165.375L132.245 164.807L131.919 161.927C131.842 161.371 126.381 158.072 124.394 156.988C123.392 156.436 122.265 155.895 121.059 155.155C119.854 154.414 118.512 153.577 117.05 152.645L112.2 149.557C110.482 148.434 108.618 147.035 106.579 145.592C104.54 144.149 102.347 142.59 100.08 140.761C97.8126 138.932 95.3755 136.952 92.7509 134.819C80.5453 124.372 69.2601 112.895 59.0201 100.516C47.6159 86.7549 37.4149 72.0399 28.5296 56.5329C27.4543 54.6967 26.3789 52.8605 25.3922 51.029L22.5386 45.5403C20.6492 41.9708 18.8409 38.5479 17.3143 35.1757C15.7878 31.8035 14.2125 28.6776 12.8975 25.6725L9.40092 17.2503L7.81773 13.6083L6.61044 10.2532L4.74996 4.81778C4.08418 3.31813 3.65956 1.72265 3.49179 0.0904506C3.69162 0.0122362 4.51806 1.51498 5.86411 4.2728L8.25886 9.36341L9.70622 12.5535L11.4557 16.0799L15.339 24.2561C16.7838 27.1615 18.4535 30.1857 20.1836 33.4088C21.9138 36.6318 23.7447 39.967 25.7304 43.3994L28.7392 48.6474C29.779 50.4817 30.9171 52.1435 32.013 53.9275C41.2366 68.8532 51.6074 83.0388 63.0315 96.3557C73.2939 108.271 84.4664 119.372 96.448 129.557L103.587 135.4C105.802 137.209 107.962 138.712 109.892 140.203C111.822 141.694 113.598 143.069 115.296 144.228L119.927 147.428L123.714 150.104C124.844 150.911 125.913 151.538 126.822 152.173C128.537 153.35 129.962 154.316 130.971 155.064C130.557 152.178 130.148 149.524 129.789 147.264C128.967 142.026 128.47 138.692 129.177 138.445" fill="#E4C3AF"/>
</svg>
