<svg width="145" height="164" viewBox="0 0 145 164" fill="none" xmlns="http://www.w3.org/2000/svg">
<path d="M12.6158 99.3721C3.78705 110.54 -0.281398 123.009 0.0150886 133.419C0.0980707 138.105 0.972399 142.744 2.60113 147.139C3.79972 150.485 5.46318 153.646 7.54258 156.528C8.87857 158.372 10.4021 160.072 12.0887 161.601C13.2911 162.623 13.95 163.1 14.0324 163.035C14.1147 162.969 11.6769 160.729 8.58029 155.919C4.33315 149.189 2.15662 141.359 2.32109 133.402C2.32109 123.519 6.60367 111.742 15.2842 101.233C19.8648 95.6709 25.2762 90.8485 31.3274 86.9362C37.9325 82.6242 45.3287 79.668 53.0863 78.2392C61.2505 76.7738 69.6551 77.4491 77.4806 80.1993C81.7928 81.687 85.8119 83.9167 89.3565 86.7879C86.3916 87.8586 83.2785 88.9457 80.116 90.247C76.3143 91.7425 72.7169 93.7127 69.4095 96.1108C65.966 98.6541 63.1212 101.921 61.075 105.681C58.9541 109.484 57.7728 113.739 57.6295 118.091C57.4862 122.443 58.3852 126.767 60.2514 130.701C62.4283 135.099 66.0764 138.595 70.5625 140.584C73.0833 141.665 75.8416 142.074 78.5677 141.77C81.1639 141.435 83.664 140.571 85.914 139.233C87.9548 138.047 89.8699 136.656 91.6296 135.082C93.3683 133.562 94.9873 131.91 96.4722 130.141C97.9589 128.417 99.2979 126.571 100.475 124.623C101.67 122.688 102.674 120.642 103.473 118.512C104.281 116.389 104.834 114.177 105.12 111.923C105.471 109.673 105.527 107.386 105.284 105.121C104.806 100.57 103.259 96.196 100.771 92.3553C100.094 91.2935 99.3567 90.2706 98.5641 89.2916C100.014 88.6986 101.447 88.0727 102.83 87.3974C108.808 84.4672 114.08 80.2749 118.28 75.1097C121.723 70.8535 124.5 66.0995 126.516 61.0101C129.514 53.2707 131.066 45.047 131.095 36.7475C131.173 31.2391 130.832 25.7327 130.074 20.276C129.514 15.977 128.921 12.765 128.427 10.3931C128.048 8.51536 127.719 7.09882 127.439 6.07759L128.246 6.85175C129.34 7.80971 130.532 8.64893 131.804 9.3554C133.883 10.5067 136.095 11.3974 138.392 12.0073C142.263 13.0121 144.734 13.0945 144.981 12.5179C145.228 11.9414 143.07 10.7226 139.759 9.026C137.88 8.09287 136.064 7.03637 134.324 5.86345C133.367 5.219 132.468 4.49143 131.639 3.6892L130.305 2.28916C130.025 2.00915 129.728 1.71264 129.349 1.39969C128.902 1.02582 128.41 0.710315 127.883 0.460798C127.231 0.157274 126.52 0 125.8 0C125.08 0 124.369 0.157274 123.716 0.460798C123.405 0.610627 123.107 0.786987 122.827 0.987898C122.547 1.20203 122.283 1.44911 122.151 1.56441L121.394 2.35501C120.455 3.3433 119.582 4.29865 118.775 5.23752C117.334 6.89614 115.986 8.63384 114.739 10.4425C112.647 13.5227 111.741 15.664 112.285 16.0428C112.828 16.4217 114.723 14.9557 117.473 12.452C118.857 11.2002 120.438 9.68482 122.201 8.00472L123.848 6.45645C123.848 7.54357 123.963 8.99306 124.144 10.9861C124.375 13.4239 124.655 16.6194 125.034 20.869C125.505 26.1424 125.653 31.4396 125.479 36.731C125.286 44.4418 123.736 52.0584 120.899 59.2311C119.04 63.7949 116.514 68.058 113.405 71.8813C109.736 76.3803 105.133 80.0279 99.9147 82.5712C98.1523 83.4607 96.2745 84.2184 94.3144 84.9926C89.8653 81.054 84.658 78.0664 79.0124 76.2132C70.3587 73.2962 61.0957 72.6775 52.1309 74.4178C43.8435 76.0633 35.9692 79.3507 28.972 84.0866C22.7153 88.3144 17.1577 93.4941 12.5005 99.438L12.6158 99.3721ZM96.4063 94.7931C98.4809 98.0802 99.7507 101.811 100.112 105.681C100.301 107.581 100.234 109.497 99.9147 111.38C99.6154 113.3 99.0959 115.179 98.3664 116.98C97.6556 118.819 96.7675 120.584 95.7145 122.251C94.6547 123.963 93.4536 125.582 92.1237 127.094C90.7922 128.626 89.3438 130.052 87.7917 131.36C86.2922 132.683 84.6644 133.852 82.9326 134.852C81.4632 135.819 79.7791 136.412 78.0276 136.579C76.2761 136.746 74.5104 136.481 72.885 135.807C69.6399 134.29 67.0165 131.702 65.4564 128.477C64.6629 126.922 64.1076 125.256 63.8092 123.536C63.4779 121.8 63.3672 120.029 63.4798 118.265C63.6893 114.779 64.6643 111.383 66.3354 108.317C68.0066 105.251 70.3327 102.59 73.1485 100.525C76.0587 98.4562 79.2119 96.7524 82.5373 95.452C86.2269 93.9366 90.0483 92.6683 93.8038 91.3176C94.7512 92.4315 95.6207 93.6092 96.4063 94.8425" fill="#E4C3AF"/>
</svg>
