<svg width="544" height="256" viewBox="0 0 544 256" fill="none" xmlns="http://www.w3.org/2000/svg">
<g clip-path="url(#clip0_14_1068)">
<path d="M41.8867 181.88C41.2288 179.078 39.7279 177.032 37.3839 175.742C35.0398 174.453 32.0372 174.051 28.376 174.536C25.8883 174.865 23.8345 175.496 22.2145 176.427C20.5914 177.334 19.4031 178.459 18.6495 179.801C17.9194 181.139 17.6569 182.583 17.8621 184.132C17.9862 185.429 18.4054 186.52 19.1196 187.404C19.8573 188.286 20.8008 189.008 21.9502 189.572C23.0965 190.113 24.3962 190.55 25.8493 190.883C27.2993 191.192 28.8338 191.419 30.4529 191.562L37.1356 192.253C40.3737 192.541 43.3848 193.097 46.1688 193.922C48.9528 194.747 51.4206 195.889 53.5721 197.347C55.7235 198.805 57.4812 200.626 58.8452 202.81C60.2326 204.99 61.1371 207.581 61.5586 210.582C62.1197 214.997 61.5 218.972 59.6996 222.506C57.9195 226.014 55.0588 228.936 51.1176 231.273C47.1968 233.584 42.3028 235.128 36.4355 235.905C30.6151 236.676 25.4276 236.456 20.873 235.245C16.3418 234.03 12.6359 231.834 9.75526 228.658C6.89498 225.455 5.06256 221.267 4.25801 216.096L19.0084 214.142C19.4929 216.537 20.4527 218.464 21.8876 219.922C23.343 221.353 25.1577 222.342 27.3318 222.89C29.5263 223.411 31.9378 223.498 34.5663 223.149C37.1479 222.807 39.3395 222.135 41.141 221.132C42.9659 220.126 44.3179 218.884 45.1967 217.407C46.0756 215.929 46.4 214.322 46.1699 212.585C45.9553 210.966 45.2938 209.668 44.1855 208.693C43.1005 207.714 41.5915 206.959 39.6583 206.427C37.7485 205.892 35.4374 205.481 32.7249 205.196L24.6133 204.265C18.3389 203.592 13.2332 201.916 9.29611 199.237C5.35906 196.559 3.04934 192.554 2.36694 187.224C1.7651 182.862 2.42153 178.894 4.33622 175.321C6.27438 171.744 9.18747 168.767 13.0755 166.39C16.9635 164.012 21.5361 162.474 26.7932 161.778C32.1441 161.069 36.9358 161.365 41.1681 162.667C45.4238 163.966 48.8826 166.099 51.5444 169.066C54.2062 172.033 55.8568 175.659 56.4963 179.944L41.8867 181.88Z" fill="#003C36"/>
<path d="M538.063 187.122L30.538 254.366C29.2227 254.541 27.8837 254.12 26.815 253.197C25.7463 252.274 25.0355 250.925 24.8395 249.446L15.2318 176.932C18.7394 176.467 21.8947 174.455 24.0054 171.336C26.116 168.218 27.0091 164.25 26.4865 160.305C25.9638 156.36 24.0681 152.762 21.2183 150.301C18.3685 147.84 14.7979 146.718 11.2903 147.183L1.68265 74.6697C1.48664 73.1904 1.82161 71.7028 2.61311 70.5335C3.4046 69.3641 4.58778 68.609 5.90313 68.4347L365.085 20.8452C364.87 21.4489 364.805 22.1096 364.892 22.7618C364.979 23.414 365.215 24.0345 365.58 24.5607C365.945 25.0869 366.426 25.5009 366.971 25.7602C367.517 26.0196 368.11 26.1156 368.69 26.0387C369.27 25.9619 369.815 25.7151 370.274 25.3226C370.733 24.9301 371.089 24.4053 371.305 23.8022C371.52 23.199 371.59 22.538 371.504 21.8856C371.419 21.2333 371.18 20.6129 370.816 20.0858L513.428 1.19052C514.743 1.01625 516.082 1.43726 517.151 2.3601C518.22 3.28293 518.931 4.632 519.127 6.11137L528.734 78.6247C525.227 79.0895 522.071 81.1024 519.961 84.2205C517.85 87.3387 516.957 91.3066 517.48 95.2516C518.002 99.1965 519.898 102.795 522.748 105.256C525.598 107.717 529.168 108.839 532.676 108.374L542.283 180.887C542.479 182.367 542.144 183.854 541.353 185.023C540.561 186.193 539.378 186.948 538.063 187.122ZM391.352 197.101C390.698 197.187 390.087 197.49 389.598 197.971C389.108 198.451 388.762 199.089 388.601 199.802C388.441 200.514 388.476 201.27 388.699 201.974C388.922 202.679 389.324 203.3 389.855 203.758C390.386 204.217 391.021 204.493 391.682 204.552C392.342 204.61 392.998 204.449 393.565 204.087C394.132 203.726 394.584 203.181 394.866 202.522C395.148 201.862 395.248 201.117 395.151 200.381C395.02 199.395 394.546 198.496 393.834 197.881C393.121 197.265 392.229 196.985 391.352 197.101ZM389.381 182.226C388.727 182.313 388.116 182.616 387.627 183.096C387.137 183.577 386.791 184.214 386.631 184.927C386.47 185.64 386.505 186.395 386.728 187.1C386.951 187.804 387.353 188.425 387.884 188.884C388.416 189.343 389.051 189.619 389.711 189.677C390.371 189.736 391.028 189.574 391.595 189.213C392.161 188.851 392.613 188.307 392.895 187.647C393.177 186.988 393.277 186.242 393.18 185.507C393.049 184.521 392.575 183.621 391.863 183.006C391.151 182.391 390.258 182.11 389.381 182.226ZM387.41 167.352C386.756 167.438 386.146 167.741 385.656 168.222C385.166 168.702 384.82 169.34 384.66 170.052C384.5 170.765 384.534 171.521 384.757 172.225C384.98 172.93 385.382 173.551 385.914 174.009C386.445 174.468 387.08 174.744 387.74 174.803C388.401 174.861 389.057 174.7 389.624 174.338C390.191 173.977 390.642 173.432 390.924 172.773C391.207 172.113 391.307 171.368 391.209 170.632C391.079 169.646 390.605 168.747 389.892 168.131C389.18 167.516 388.287 167.236 387.41 167.352ZM385.439 152.477C384.785 152.564 384.175 152.866 383.685 153.347C383.196 153.828 382.849 154.465 382.689 155.178C382.529 155.891 382.563 156.646 382.786 157.351C383.01 158.055 383.411 158.676 383.943 159.135C384.474 159.594 385.109 159.87 385.769 159.928C386.43 159.987 387.086 159.825 387.653 159.464C388.22 159.102 388.671 158.558 388.954 157.898C389.236 157.238 389.336 156.493 389.238 155.758C389.108 154.772 388.634 153.872 387.921 153.257C387.209 152.642 386.316 152.361 385.439 152.477ZM383.469 137.603C382.815 137.689 382.204 137.992 381.714 138.473C381.225 138.953 380.878 139.591 380.718 140.303C380.558 141.016 380.592 141.772 380.816 142.476C381.039 143.181 381.441 143.801 381.972 144.26C382.503 144.719 383.138 144.995 383.799 145.054C384.459 145.112 385.115 144.951 385.682 144.589C386.249 144.228 386.701 143.683 386.983 143.024C387.265 142.364 387.365 141.619 387.268 140.883C387.137 139.897 386.663 138.998 385.951 138.382C385.238 137.767 384.345 137.487 383.469 137.603ZM381.498 122.728C380.844 122.815 380.233 123.117 379.744 123.598C379.254 124.079 378.908 124.716 378.748 125.429C378.587 126.142 378.622 126.897 378.845 127.602C379.068 128.306 379.47 128.927 380.001 129.386C380.532 129.845 381.168 130.121 381.828 130.179C382.488 130.238 383.144 130.076 383.711 129.714C384.278 129.353 384.73 128.809 385.012 128.149C385.294 127.489 385.394 126.744 385.297 126.009C385.166 125.022 384.692 124.123 383.98 123.508C383.267 122.893 382.375 122.612 381.498 122.728ZM379.527 107.854C378.873 107.94 378.262 108.243 377.773 108.723C377.283 109.204 376.937 109.842 376.777 110.554C376.616 111.267 376.651 112.023 376.874 112.727C377.097 113.432 377.499 114.052 378.03 114.511C378.562 114.97 379.197 115.246 379.857 115.305C380.517 115.363 381.174 115.201 381.741 114.84C382.307 114.478 382.759 113.934 383.041 113.275C383.323 112.615 383.424 111.87 383.326 111.134C383.195 110.148 382.721 109.249 382.009 108.633C381.297 108.018 380.404 107.737 379.527 107.854ZM377.556 92.9791C376.902 93.0657 376.292 93.3683 375.802 93.8489C375.312 94.3296 374.966 94.9672 374.806 95.6798C374.646 96.3924 374.68 97.1482 374.903 97.8526C375.126 98.5571 375.528 99.1779 376.06 99.6366C376.591 100.095 377.226 100.372 377.886 100.43C378.547 100.489 379.203 100.327 379.77 99.9654C380.337 99.6039 380.788 99.0596 381.07 98.4C381.353 97.7403 381.453 96.9951 381.355 96.2597C381.225 95.2734 380.751 94.374 380.038 93.7588C379.326 93.1436 378.433 92.8629 377.556 92.9791ZM375.585 78.1046C374.931 78.1912 374.321 78.4938 373.831 78.9744C373.342 79.4551 372.995 80.0926 372.835 80.8053C372.675 81.5179 372.709 82.2737 372.932 82.9781C373.156 83.6825 373.557 84.3033 374.089 84.7621C374.62 85.2209 375.255 85.4972 375.916 85.5557C376.576 85.6142 377.232 85.4524 377.799 85.0909C378.366 84.7294 378.817 84.1851 379.1 83.5254C379.382 82.8658 379.482 82.1206 379.384 81.3851C379.254 80.3989 378.78 79.4995 378.067 78.8843C377.355 78.269 376.462 77.9884 375.585 78.1046ZM373.615 63.23C372.961 63.3167 372.35 63.6192 371.86 64.0999C371.371 64.5805 371.025 65.2181 370.864 65.9307C370.704 66.6434 370.738 67.3991 370.962 68.1036C371.185 68.808 371.587 69.4288 372.118 69.8876C372.649 70.3464 373.284 70.6226 373.945 70.6811C374.605 70.7396 375.261 70.5778 375.828 70.2163C376.395 69.8548 376.847 69.3106 377.129 68.6509C377.411 67.9912 377.511 67.2461 377.414 66.5106C377.283 65.5243 376.809 64.625 376.097 64.0097C375.384 63.3945 374.492 63.1138 373.615 63.23ZM371.644 48.3555C370.99 48.4421 370.379 48.7447 369.89 49.2253C369.4 49.706 369.054 50.3435 368.894 51.0562C368.733 51.7688 368.768 52.5246 368.991 53.229C369.214 53.9335 369.616 54.5542 370.147 55.013C370.678 55.4718 371.314 55.7481 371.974 55.8066C372.634 55.8651 373.291 55.7033 373.857 55.3418C374.424 54.9803 374.876 54.436 375.158 53.7764C375.44 53.1167 375.54 52.3715 375.443 51.636C375.312 50.6498 374.838 49.7504 374.126 49.1352C373.413 48.52 372.521 48.2393 371.644 48.3555ZM369.673 33.4809C369.019 33.5676 368.408 33.8701 367.919 34.3508C367.429 34.8314 367.083 35.469 366.923 36.1816C366.763 36.8943 366.797 37.65 367.02 38.3545C367.243 39.0589 367.645 39.6797 368.176 40.1385C368.708 40.5973 369.343 40.8735 370.003 40.9321C370.664 40.9906 371.32 40.8288 371.887 40.4673C372.453 40.1058 372.905 39.5615 373.187 38.9018C373.47 38.2422 373.57 37.497 373.472 36.7615C373.341 35.7753 372.868 34.8759 372.155 34.2607C371.443 33.6454 370.55 33.3648 369.673 33.4809Z" fill="white"/>
<g filter="url(#filter0_d_14_1068)">
<rect x="32.2571" y="86.6804" width="16.7604" height="16.7604" rx="2.39434" transform="rotate(-7.54741 32.2571 86.6804)" fill="#003C36" shape-rendering="crispEdges"/>
<rect x="32.9291" y="87.1952" width="15.5632" height="15.5632" rx="1.79575" transform="rotate(-7.54741 32.9291 87.1952)" stroke="#003C36" stroke-width="1.19717" shape-rendering="crispEdges"/>
<g clip-path="url(#clip1_14_1068)">
<path d="M41.0757 89.4367C38.6187 89.7622 36.8894 92.0198 37.2149 94.4769C37.5405 96.9339 39.798 98.6632 42.2551 98.3377C44.7121 98.0121 46.4414 95.7546 46.1159 93.2975C45.7904 90.8405 43.5328 89.1112 41.0757 89.4367Z" stroke="white" stroke-width="0.897877" stroke-miterlimit="10"/>
<path d="M41.2725 90.9204L41.7147 94.2583L43.94 93.9634" stroke="white" stroke-width="0.897877" stroke-linecap="round" stroke-linejoin="round"/>
</g>
</g>
<path d="M55.8046 87.266L59.1383 93.9775L59.2352 93.9646L60.7061 86.6166L62.1137 86.4301L60.1512 95.4729L58.6467 95.6722L54.397 87.4525L55.8046 87.266ZM64.4707 94.9006L63.0884 95.0837L65.0508 86.0409L66.5554 85.8416L70.8051 94.0613L69.4227 94.2445L66.0467 87.5043L65.9792 87.5132L64.4707 94.9006ZM64.2547 91.4898L68.7389 90.8957L68.8841 91.9915L64.3999 92.5856L64.2547 91.4898ZM72.1702 93.8804L71.0266 85.2492L72.3289 85.0766L73.3239 92.5868L77.235 92.0686L77.3835 93.1897L72.1702 93.8804ZM79.1465 84.1733L80.2901 92.8046L78.9878 92.9771L77.8442 84.3459L79.1465 84.1733ZM85.0995 92.1674L82.3053 92.5376L81.1617 83.9063L84.0444 83.5244C84.8901 83.4123 85.6393 83.4889 86.2919 83.7541C86.9442 84.0165 87.4746 84.4479 87.8829 85.0485C88.2937 85.646 88.5585 86.3928 88.6773 87.2891C88.7964 88.1882 88.7344 88.9826 88.4913 89.6724C88.251 90.3618 87.8448 90.9216 87.2729 91.3519C86.7006 91.7794 85.9761 92.0512 85.0995 92.1674ZM83.4568 91.2271L84.8771 91.039C85.5345 90.9518 86.0646 90.7558 86.4673 90.4509C86.8697 90.1431 87.1478 89.7389 87.3016 89.2382C87.455 88.7347 87.4865 88.1416 87.3961 87.4588C87.3063 86.7817 87.122 86.2215 86.8432 85.7781C86.5671 85.3344 86.2007 85.0184 85.7441 84.8302C85.2874 84.6419 84.7444 84.5895 84.1151 84.6729L82.6147 84.8717L83.4568 91.2271ZM94.2483 90.9552L93.1048 82.3239L98.4571 81.6148L98.6057 82.7358L94.5556 83.2725L94.904 85.9023L98.5706 85.4165L98.7186 86.5333L95.052 87.0191L95.5506 90.7827L94.2483 90.9552ZM108.247 84.7091C108.369 85.6307 108.305 86.4453 108.056 87.1531C107.806 87.858 107.411 88.4278 106.871 88.8624C106.334 89.2939 105.693 89.5589 104.948 89.6576C104.201 89.7566 103.51 89.668 102.876 89.3918C102.244 89.1124 101.716 88.6635 101.291 88.0451C100.866 87.4267 100.593 86.6581 100.471 85.7394C100.349 84.8178 100.413 84.0045 100.662 83.2996C100.912 82.5918 101.305 82.0222 101.843 81.5908C102.382 81.1562 103.026 80.8893 103.774 80.7903C104.518 80.6917 105.206 80.782 105.838 81.0614C106.472 81.3376 107.002 81.785 107.427 82.4034C107.851 83.019 108.125 83.7875 108.247 84.7091ZM106.957 84.88C106.864 84.1776 106.672 83.6012 106.381 83.1509C106.092 82.6974 105.734 82.3731 105.308 82.178C104.885 81.9797 104.425 81.9133 103.931 81.9788C103.434 82.0447 103.006 82.2285 102.649 82.5303C102.291 82.8293 102.03 83.2355 101.867 83.749C101.706 84.2592 101.672 84.8655 101.765 85.5679C101.858 86.2703 102.049 86.8483 102.338 87.3018C102.629 87.7521 102.986 88.0764 103.41 88.2747C103.833 88.4702 104.294 88.535 104.791 88.4691C105.285 88.4036 105.712 88.2213 106.069 87.9223C106.43 87.6202 106.69 87.214 106.851 86.7037C107.015 86.1903 107.05 85.5824 106.957 84.88ZM110.561 88.7939L109.417 80.1626L112.494 79.755C113.162 79.6664 113.733 79.7081 114.204 79.88C114.679 80.0516 115.053 80.3266 115.326 80.7049C115.598 81.0805 115.77 81.5338 115.84 82.0648C115.91 82.593 115.861 83.0727 115.692 83.5039C115.526 83.9319 115.236 84.2863 114.821 84.5671C114.409 84.8475 113.869 85.032 113.2 85.1206L110.87 85.4294L110.721 84.3083L112.934 84.0152C113.355 83.9593 113.69 83.8535 113.938 83.6977C114.189 83.5415 114.361 83.3401 114.454 83.0933C114.547 82.8465 114.572 82.5616 114.53 82.2385C114.486 81.9125 114.386 81.6385 114.228 81.4165C114.072 81.194 113.853 81.0373 113.569 80.9462C113.288 80.852 112.933 80.8333 112.503 80.8903L110.867 81.1069L111.863 88.6214L110.561 88.7939ZM114.306 84.3352L116.954 87.9468L115.471 88.1434L112.864 84.5261L114.306 84.3352ZM124.491 87.0683C123.912 87.145 123.382 87.1138 122.9 86.9746C122.421 86.835 122.027 86.6057 121.716 86.2867C121.407 85.9645 121.212 85.5701 121.13 85.1035L122.453 84.9282C122.504 85.1816 122.619 85.3922 122.799 85.56C122.981 85.7246 123.205 85.8407 123.471 85.9083C123.737 85.976 124.025 85.9893 124.334 85.9484C124.674 85.9033 124.967 85.8045 125.212 85.6519C125.461 85.4989 125.646 85.3072 125.767 85.0767C125.887 84.8434 125.929 84.5877 125.892 84.3096C125.854 84.0202 125.746 83.7758 125.568 83.5763C125.392 83.3737 125.154 83.228 124.854 83.1392C124.556 83.05 124.208 83.0318 123.809 83.0847L123.08 83.1813L122.939 82.1192L123.668 82.0226C123.988 81.9802 124.262 81.8854 124.488 81.7381C124.717 81.5906 124.887 81.4051 124.997 81.1818C125.108 80.9556 125.144 80.7034 125.107 80.4253C125.072 80.1584 124.981 79.9346 124.834 79.7539C124.69 79.5701 124.5 79.4365 124.266 79.3531C124.035 79.2694 123.772 79.2471 123.477 79.2862C123.196 79.3234 122.94 79.4102 122.709 79.5465C122.481 79.6797 122.304 79.8518 122.177 80.063C122.051 80.2713 121.999 80.5083 122.023 80.7739L120.763 80.9409C120.715 80.4726 120.798 80.0442 121.013 79.6555C121.23 79.2665 121.542 78.9436 121.948 78.6868C122.354 78.43 122.821 78.2666 123.35 78.1966C123.903 78.1232 124.395 78.1681 124.826 78.3312C125.258 78.4912 125.608 78.735 125.875 79.0628C126.144 79.3902 126.305 79.7663 126.359 80.1909C126.425 80.6738 126.345 81.1019 126.117 81.4751C125.892 81.848 125.562 82.1218 125.128 82.2966L125.137 82.364C125.722 82.3752 126.196 82.544 126.559 82.8703C126.925 83.1963 127.143 83.6321 127.213 84.1775C127.278 84.652 127.203 85.0951 126.986 85.507C126.771 85.9185 126.45 86.2627 126.02 86.5397C125.591 86.814 125.081 86.9901 124.491 87.0683ZM131.472 77.2405L133.053 77.0311L136.689 83.3765L136.791 83.3631L138.649 76.2895L140.23 76.0801L141.373 84.7114L140.134 84.8756L139.307 78.6297L139.227 78.6403L137.507 85.2108L136.479 85.347L133.107 79.4469L133.027 79.4575L133.855 85.7076L132.616 85.8717L131.472 77.2405ZM150.311 79.1358C150.433 80.0574 150.37 80.872 150.12 81.5798C149.871 82.2847 149.476 82.8545 148.936 83.2891C148.399 83.7206 147.757 83.9856 147.013 84.0843C146.266 84.1833 145.575 84.0947 144.941 83.8185C144.309 83.5391 143.781 83.0902 143.356 82.4718C142.931 81.8534 142.657 81.0848 142.536 80.166C142.413 79.2445 142.477 78.4312 142.727 77.7263C142.976 77.0185 143.37 76.4489 143.907 76.0175C144.447 75.5828 145.091 75.316 145.838 75.217C146.583 75.1184 147.271 75.2087 147.902 75.4881C148.537 75.7643 149.066 76.2116 149.491 76.83C149.916 77.4456 150.189 78.2142 150.311 79.1358ZM149.022 79.3067C148.929 78.6043 148.736 78.0279 148.445 77.5776C148.156 77.1241 147.799 76.7998 147.373 76.6047C146.949 76.4064 146.49 76.34 145.996 76.4055C145.498 76.4714 145.071 76.6552 144.713 76.957C144.356 77.256 144.095 77.6622 143.931 78.1756C143.77 78.6859 143.736 79.2922 143.829 79.9946C143.922 80.697 144.113 81.275 144.402 81.7284C144.693 82.1787 145.051 82.5031 145.475 82.7014C145.898 82.8969 146.358 82.9617 146.855 82.8958C147.35 82.8303 147.776 82.648 148.134 82.349C148.494 82.0468 148.755 81.6406 148.916 81.1304C149.079 80.617 149.115 80.0091 149.022 79.3067ZM158.448 73.6663L159.592 82.2976L158.395 82.4561L153.169 76.7073L153.089 76.7179L153.928 83.048L152.625 83.2206L151.482 74.5893L152.687 74.4296L157.918 80.1864L157.999 80.1757L157.159 73.8372L158.448 73.6663ZM160.19 74.5763L160.041 73.4553L166.721 72.5702L166.869 73.6913L164.176 74.0481L165.172 81.5583L163.873 81.7303L162.878 74.2201L160.19 74.5763ZM169.459 80.9902L168.316 72.3589L169.618 72.1864L170.115 75.9373L174.418 75.3671L173.921 71.6162L175.228 71.4431L176.371 80.0744L175.065 80.2475L174.566 76.484L170.263 77.0541L170.762 80.8176L169.459 80.9902ZM182.251 72.8198C182.153 72.4268 181.927 72.1423 181.572 71.9663C181.216 71.7875 180.791 71.7309 180.297 71.7964C179.943 71.8433 179.644 71.9401 179.4 72.0867C179.156 72.2306 178.976 72.4089 178.858 72.6218C178.743 72.8314 178.701 73.0585 178.734 73.3029C178.761 73.508 178.832 73.6787 178.948 73.815C179.066 73.9508 179.21 74.0589 179.381 74.1392C179.554 74.2164 179.736 74.2765 179.928 74.3198C180.119 74.3602 180.302 74.3903 180.476 74.4101L181.348 74.5176C181.632 74.5485 181.927 74.6024 182.231 74.6793C182.536 74.7561 182.824 74.8723 183.096 75.0278C183.369 75.1833 183.599 75.3901 183.788 75.6481C183.979 75.9058 184.1 76.2285 184.152 76.6162C184.217 77.1051 184.148 77.556 183.945 77.9688C183.745 78.3812 183.421 78.7286 182.972 79.0111C182.527 79.2931 181.967 79.4788 181.292 79.5682C180.646 79.6538 180.073 79.6253 179.574 79.4828C179.075 79.3402 178.667 79.0984 178.35 78.7572C178.033 78.4133 177.826 77.9833 177.729 77.4672L179.035 77.2941C179.102 77.6027 179.238 77.8491 179.442 78.0336C179.649 78.2149 179.898 78.3377 180.19 78.402C180.484 78.4631 180.798 78.4715 181.132 78.4272C181.501 78.3784 181.82 78.2775 182.092 78.1243C182.365 77.9679 182.571 77.7748 182.71 77.5449C182.847 77.3123 182.898 77.0554 182.86 76.7745C182.827 76.5188 182.726 76.3191 182.558 76.1755C182.393 76.0316 182.18 75.9226 181.919 75.8486C181.66 75.7742 181.371 75.7167 181.051 75.6762L179.994 75.5332C179.278 75.4365 178.694 75.2323 178.241 74.9207C177.79 74.6087 177.526 74.152 177.446 73.5508C177.38 73.0535 177.457 72.6015 177.678 72.1949C177.898 71.7883 178.226 71.4519 178.659 71.1857C179.092 70.9168 179.598 70.7439 180.177 70.6673C180.762 70.5898 181.291 70.6241 181.765 70.77C182.241 70.9155 182.633 71.151 182.939 71.4764C183.245 71.799 183.434 72.1913 183.507 72.6534L182.251 72.8198Z" fill="#003C36"/>
<path d="M46.8571 123.873C46.6956 123.53 46.4997 123.23 46.2695 122.972C46.0426 122.71 45.7841 122.496 45.494 122.33C45.2033 122.161 44.8818 122.045 44.5295 121.984C44.1811 121.922 43.8063 121.918 43.405 121.971C42.7245 122.061 42.1341 122.317 41.6337 122.74C41.1333 123.162 40.7687 123.733 40.5397 124.452C40.3141 125.166 40.266 126.011 40.3952 126.986C40.525 127.966 40.794 128.773 41.2023 129.407C41.6105 130.041 42.1152 130.497 42.7162 130.774C43.3172 131.05 43.9717 131.142 44.6797 131.048C45.3366 130.961 45.8912 130.751 46.3436 130.419C46.7998 130.086 47.1294 129.658 47.3322 129.135C47.5385 128.608 47.5976 128.011 47.5095 127.347L47.9932 127.373L44.5357 127.831L44.3363 126.326L49.0861 125.697L49.2682 127.072C49.4027 128.086 49.3031 128.996 48.9694 129.801C48.6391 130.601 48.1213 131.254 47.4158 131.76C46.7142 132.265 45.8757 132.582 44.9002 132.712C43.8067 132.856 42.8135 132.732 41.9208 132.338C41.032 131.943 40.2962 131.314 39.7135 130.451C39.1303 129.584 38.7543 128.513 38.5854 127.238C38.4577 126.275 38.4768 125.391 38.6427 124.589C38.8085 123.786 39.0979 123.086 39.5109 122.487C39.9272 121.883 40.4451 121.396 41.0644 121.026C41.6872 120.651 42.39 120.412 43.1728 120.308C43.8257 120.222 44.4462 120.238 45.0343 120.356C45.6262 120.474 46.1659 120.68 46.6534 120.976C47.1448 121.271 47.5683 121.643 47.9241 122.092C48.2792 122.538 48.547 123.049 48.7275 123.625L46.8571 123.873ZM55.5875 131.314C54.7379 131.426 53.9706 131.33 53.2857 131.024C52.6008 130.719 52.037 130.239 51.5941 129.585C51.1513 128.931 50.8678 128.136 50.7438 127.2C50.6192 126.26 50.6853 125.415 50.9421 124.664C51.1989 123.914 51.6182 123.302 52.1999 122.829C52.7816 122.355 53.4972 122.062 54.3469 121.95C55.1965 121.837 55.9638 121.934 56.6487 122.239C57.3336 122.545 57.8977 123.026 58.3411 123.684C58.7844 124.342 59.0684 125.141 59.193 126.081C59.317 127.017 59.2504 127.858 58.9931 128.605C58.7357 129.351 58.3162 129.961 57.7345 130.435C57.1528 130.908 56.4372 131.201 55.5875 131.314ZM55.3972 129.832C55.9479 129.759 56.3849 129.553 56.7082 129.214C57.0315 128.875 57.2477 128.452 57.3566 127.945C57.4696 127.438 57.4874 126.893 57.4103 126.311C57.3337 125.733 57.1748 125.214 56.9337 124.753C56.696 124.288 56.3767 123.932 55.9757 123.685C55.5747 123.438 55.0989 123.351 54.5482 123.424C53.9936 123.498 53.5529 123.706 53.2262 124.05C52.9034 124.393 52.6858 124.82 52.5734 125.331C52.4644 125.838 52.4483 126.38 52.5249 126.958C52.602 127.54 52.7592 128.062 52.9963 128.523C53.2375 128.983 53.5582 129.335 53.9587 129.578C54.3631 129.821 54.8426 129.905 55.3972 129.832ZM61.5879 118.037L63.189 130.12L61.4248 130.354L59.8238 118.27L61.5879 118.037ZM68.6462 129.577C67.9145 129.674 67.2368 129.574 66.613 129.276C65.9926 128.974 65.4731 128.497 65.0543 127.844C64.639 127.186 64.3665 126.368 64.2367 125.389C64.1069 124.409 64.1592 123.55 64.3934 122.81C64.6316 122.07 65.0133 121.477 65.5386 121.031C66.0639 120.586 66.6904 120.314 67.4181 120.218C67.9806 120.143 68.4455 120.178 68.8127 120.321C69.1833 120.46 69.4795 120.641 69.7011 120.864C69.9267 121.086 70.1051 121.285 70.2363 121.46L70.3425 121.446L69.7476 116.955L71.5118 116.722L73.1128 128.805L71.3899 129.034L71.2031 127.624L71.0556 127.643C70.9749 127.85 70.8507 128.091 70.6829 128.365C70.5191 128.639 70.2763 128.891 69.9547 129.122C69.633 129.353 69.1969 129.504 68.6462 129.577ZM68.8362 128.021C69.3437 127.954 69.7547 127.763 70.0693 127.45C70.3874 127.131 70.6051 126.72 70.7225 126.216C70.8438 125.712 70.8622 125.141 70.7778 124.504C70.6944 123.875 70.5309 123.336 70.2875 122.888C70.044 122.44 69.7297 122.107 69.3447 121.89C68.9597 121.673 68.5096 121.598 67.9943 121.667C67.4633 121.737 67.039 121.933 66.7215 122.256C66.4039 122.578 66.1862 122.989 66.0683 123.489C65.9544 123.988 65.937 124.537 66.0162 125.135C66.0965 125.741 66.2591 126.273 66.5042 126.733C66.7492 127.193 67.0675 127.541 67.4591 127.777C67.854 128.009 68.3131 128.091 68.8362 128.021ZM85.9155 117.887L83.8298 127.386L81.9418 127.636L77.4486 119.009L79.3426 118.758L82.5619 125.428L82.6563 125.416L84.0215 118.138L85.9155 117.887ZM91.9754 126.492C91.1258 126.605 90.3585 126.509 89.6736 126.203C88.9887 125.897 88.4248 125.418 87.982 124.764C87.5391 124.11 87.2557 123.315 87.1317 122.379C87.0071 121.439 87.0732 120.594 87.33 119.843C87.5868 119.093 88.006 118.481 88.5877 118.008C89.1694 117.534 89.8851 117.241 90.7348 117.129C91.5844 117.016 92.3517 117.113 93.0366 117.418C93.7214 117.724 94.2856 118.205 94.729 118.863C95.1723 119.521 95.4563 120.32 95.5808 121.26C95.7049 122.196 95.6382 123.037 95.3809 123.784C95.1236 124.53 94.7041 125.14 94.1224 125.614C93.5407 126.087 92.825 126.38 91.9754 126.492ZM91.7851 125.011C92.3358 124.938 92.7728 124.732 93.0961 124.393C93.4194 124.054 93.6356 123.631 93.7445 123.124C93.8574 122.617 93.8753 122.072 93.7982 121.49C93.7216 120.912 93.5627 120.392 93.3216 119.932C93.0839 119.467 92.7646 119.111 92.3636 118.864C91.9626 118.617 91.4868 118.53 90.9361 118.603C90.3815 118.676 89.9408 118.885 89.6141 119.228C89.2913 119.571 89.0737 119.998 88.9613 120.51C88.8523 121.016 88.8361 121.559 88.9128 122.137C88.9899 122.719 89.147 123.241 89.3842 123.702C89.6253 124.162 89.9461 124.514 90.3466 124.757C90.7509 125 91.2305 125.084 91.7851 125.011ZM103.056 121.014L102.353 115.709L104.123 115.475L105.324 124.538L103.589 124.768L103.381 123.198L103.287 123.211C103.142 123.722 102.861 124.17 102.444 124.553C102.03 124.932 101.483 125.167 100.802 125.257C100.22 125.334 99.6877 125.274 99.2054 125.078C98.7265 124.877 98.3256 124.54 98.0027 124.067C97.6837 123.593 97.4747 122.982 97.3757 122.235L96.6119 116.47L98.3761 116.236L99.1117 121.788C99.1935 122.406 99.4298 122.875 99.8205 123.196C100.211 123.516 100.68 123.64 101.227 123.568C101.557 123.524 101.875 123.398 102.179 123.189C102.488 122.98 102.728 122.694 102.9 122.331C103.076 121.968 103.128 121.529 103.056 121.014ZM111.204 123.945C110.326 124.061 109.545 123.962 108.859 123.649C108.176 123.331 107.619 122.843 107.188 122.183C106.756 121.524 106.48 120.74 106.36 119.831C106.238 118.911 106.303 118.076 106.556 117.326C106.809 116.572 107.223 115.955 107.8 115.474C108.377 114.993 109.092 114.696 109.945 114.583C110.634 114.492 111.264 114.539 111.837 114.723C112.409 114.903 112.891 115.2 113.282 115.612C113.676 116.024 113.946 116.531 114.089 117.132L112.372 117.36C112.222 116.947 111.957 116.61 111.578 116.348C111.203 116.086 110.734 115.992 110.172 116.066C109.68 116.131 109.267 116.318 108.931 116.627C108.599 116.931 108.363 117.335 108.221 117.838C108.079 118.337 108.051 118.909 108.136 119.554C108.224 120.215 108.4 120.772 108.664 121.225C108.928 121.679 109.261 122.013 109.661 122.228C110.066 122.442 110.518 122.517 111.018 122.45C111.352 122.406 111.647 122.305 111.902 122.147C112.161 121.985 112.367 121.775 112.521 121.519C112.679 121.262 112.774 120.965 112.805 120.629L114.522 120.401C114.537 120.995 114.416 121.544 114.158 122.046C113.9 122.549 113.522 122.967 113.022 123.302C112.525 123.636 111.919 123.85 111.204 123.945ZM117.508 117.448L118.221 122.829L116.457 123.063L114.856 110.979L116.596 110.748L117.192 115.244L117.304 115.229C117.452 114.714 117.725 114.283 118.124 113.938C118.522 113.593 119.074 113.374 119.778 113.281C120.399 113.198 120.959 113.254 121.457 113.448C121.959 113.642 122.371 113.976 122.694 114.449C123.021 114.918 123.234 115.53 123.334 116.286L124.098 122.05L122.333 122.284L121.598 116.732C121.51 116.067 121.27 115.574 120.88 115.254C120.488 114.93 119.988 114.808 119.378 114.889C118.961 114.944 118.599 115.082 118.292 115.303C117.989 115.523 117.766 115.817 117.623 116.184C117.483 116.547 117.444 116.968 117.508 117.448ZM130.05 121.448C129.157 121.566 128.363 121.477 127.667 121.181C126.975 120.881 126.407 120.405 125.965 119.756C125.526 119.101 125.244 118.304 125.12 117.364C124.997 116.436 125.061 115.595 125.314 114.841C125.57 114.086 125.985 113.469 126.557 112.989C127.134 112.508 127.843 112.212 128.685 112.1C129.197 112.033 129.703 112.052 130.206 112.157C130.708 112.263 131.174 112.471 131.603 112.783C132.033 113.094 132.396 113.524 132.693 114.073C132.989 114.618 133.192 115.302 133.301 116.124L133.384 116.749L126.179 117.704L126.004 116.382L131.48 115.657C131.418 115.193 131.269 114.794 131.033 114.461C130.796 114.124 130.493 113.874 130.123 113.711C129.757 113.547 129.346 113.496 128.89 113.556C128.394 113.622 127.978 113.801 127.64 114.094C127.306 114.382 127.065 114.735 126.916 115.151C126.77 115.562 126.727 115.994 126.787 116.447L126.924 117.479C127.004 118.085 127.179 118.586 127.448 118.983C127.72 119.379 128.064 119.664 128.479 119.837C128.894 120.006 129.359 120.056 129.874 119.988C130.209 119.944 130.507 119.856 130.77 119.725C131.032 119.59 131.251 119.413 131.426 119.194C131.601 118.975 131.723 118.716 131.792 118.419L133.501 118.499C133.433 119.008 133.25 119.471 132.953 119.886C132.659 120.298 132.266 120.64 131.774 120.913C131.285 121.182 130.711 121.36 130.05 121.448ZM135.539 120.534L134.338 111.472L136.043 111.246L136.234 112.685L136.328 112.673C136.429 112.163 136.669 111.741 137.049 111.407C137.433 111.068 137.89 110.863 138.421 110.793C138.531 110.778 138.661 110.765 138.812 110.753C138.966 110.74 139.087 110.734 139.176 110.735L139.399 112.422C139.326 112.412 139.197 112.407 139.013 112.407C138.828 112.404 138.646 112.414 138.465 112.438C138.048 112.493 137.688 112.631 137.385 112.851C137.085 113.067 136.861 113.343 136.714 113.678C136.566 114.01 136.518 114.373 136.57 114.766L137.303 120.301L135.539 120.534Z" fill="#003C36"/>
<path d="M50.0855 147.599L48.8313 147.765C48.7093 147.414 48.5375 147.114 48.3159 146.866C48.0976 146.617 47.8447 146.417 47.5572 146.266C47.2725 146.112 46.9655 146.008 46.6361 145.956C46.3066 145.904 45.97 145.9 45.6261 145.946C44.9989 146.029 44.4518 146.262 43.9847 146.647C43.521 147.031 43.1799 147.551 42.9616 148.208C42.7467 148.864 42.6986 149.641 42.8174 150.538C42.9362 151.434 43.1849 152.172 43.5633 152.749C43.9452 153.327 44.4099 153.74 44.9577 153.99C45.5088 154.24 46.0979 154.323 46.725 154.24C47.0689 154.194 47.393 154.103 47.6975 153.967C48.0019 153.83 48.2716 153.652 48.5067 153.432C48.7446 153.209 48.9366 152.948 49.0824 152.651C49.2312 152.35 49.3191 152.016 49.3459 151.649L50.6001 151.483C50.5758 152.024 50.4667 152.521 50.2725 152.972C50.0784 153.423 49.8154 153.82 49.4834 154.162C49.1509 154.502 48.7638 154.778 48.322 154.991C47.8836 155.203 47.403 155.344 46.8804 155.413C45.9971 155.53 45.1829 155.418 44.4379 155.078C43.6929 154.738 43.0705 154.196 42.5706 153.452C42.0707 152.709 41.7484 151.791 41.6037 150.698C41.4589 149.606 41.5311 148.636 41.8201 147.788C42.1092 146.94 42.569 146.255 43.1996 145.732C43.8303 145.209 44.5872 144.889 45.4706 144.772C45.9932 144.703 46.4938 144.714 46.9725 144.805C47.4545 144.895 47.9003 145.063 48.3101 145.307C48.7194 145.548 49.0765 145.861 49.3814 146.246C49.6858 146.627 49.9205 147.078 50.0855 147.599ZM55.6439 154.273C54.9426 154.365 54.3051 154.28 53.7316 154.016C53.1614 153.752 52.6882 153.34 52.312 152.779C51.9391 152.218 51.6996 151.536 51.5932 150.733C51.486 149.924 51.5391 149.199 51.7525 148.556C51.9692 147.913 52.3184 147.39 52.8002 146.987C53.2853 146.583 53.8785 146.334 54.5798 146.241C55.2811 146.149 55.9168 146.234 56.487 146.498C57.0606 146.762 57.534 147.176 57.9073 147.741C58.284 148.305 58.5259 148.992 58.6331 149.801C58.7394 150.603 58.684 151.324 58.4668 151.964C58.253 152.603 57.9035 153.124 57.4184 153.528C56.9367 153.931 56.3452 154.18 55.6439 154.273ZM55.5018 153.2C56.0345 153.13 56.4547 152.935 56.7625 152.617C57.0702 152.298 57.2772 151.905 57.3834 151.438C57.4896 150.971 57.5084 150.478 57.4396 149.959C57.3708 149.44 57.2241 148.967 56.9994 148.54C56.7748 148.114 56.4722 147.785 56.0917 147.554C55.7112 147.323 55.2546 147.243 54.7218 147.314C54.1891 147.384 53.7691 147.58 53.4619 147.903C53.1546 148.225 52.9481 148.621 52.8423 149.091C52.7365 149.561 52.718 150.056 52.7868 150.575C52.8556 151.095 53.0021 151.566 53.2262 151.989C53.4504 152.412 53.7525 152.737 54.1326 152.965C54.5127 153.193 54.9691 153.271 55.5018 153.2ZM65.0118 149.635L64.4033 145.043L65.5969 144.885L66.6261 152.653L65.4326 152.811L65.2584 151.496L65.1774 151.507C65.0476 151.925 64.8089 152.298 64.4611 152.626C64.113 152.95 63.6455 153.151 63.0589 153.228C62.5734 153.293 62.1278 153.244 61.722 153.081C61.3158 152.916 60.9762 152.631 60.7032 152.228C60.4298 151.822 60.2493 151.288 60.1618 150.627L59.5078 145.691L60.7013 145.533L61.3446 150.388C61.4197 150.955 61.638 151.386 61.9996 151.681C62.3646 151.975 62.7949 152.09 63.2905 152.024C63.5872 151.985 63.8789 151.869 64.1656 151.677C64.4557 151.484 64.6845 151.217 64.852 150.876C65.0228 150.534 65.0761 150.12 65.0118 149.635ZM68.7709 155.333L67.3557 144.652L68.5088 144.499L68.6723 145.733L68.8139 145.714C68.8837 145.568 68.9823 145.38 69.1097 145.15C69.24 144.917 69.4409 144.698 69.7123 144.494C69.9867 144.286 70.3767 144.148 70.8824 144.081C71.5365 143.995 72.1347 144.082 72.6771 144.343C73.2194 144.604 73.6702 145.016 74.0296 145.579C74.389 146.142 74.6227 146.831 74.7308 147.647C74.8398 148.47 74.7943 149.202 74.5945 149.842C74.3941 150.479 74.0681 150.996 73.6162 151.392C73.1639 151.785 72.6141 152.024 71.9668 152.11C71.4678 152.176 71.0573 152.146 70.7353 152.021C70.4129 151.892 70.1567 151.732 69.9667 151.541C69.7763 151.347 69.6279 151.185 69.5215 151.055L69.4203 151.068L69.9644 155.175L68.7709 155.333ZM69.0436 148.38C69.1213 148.967 69.2759 149.473 69.5073 149.899C69.7382 150.321 70.0356 150.637 70.3995 150.846C70.763 151.051 71.1841 151.123 71.6629 151.059C72.1619 150.993 72.5608 150.806 72.8598 150.499C73.1616 150.188 73.3672 149.797 73.4763 149.326C73.5884 148.852 73.6078 148.338 73.5346 147.785C73.4622 147.239 73.3127 146.758 73.086 146.342C72.8623 145.922 72.5649 145.607 72.1938 145.395C71.8256 145.18 71.3886 145.105 70.8829 145.172C70.3974 145.237 70.0057 145.414 69.7079 145.704C69.4097 145.99 69.2053 146.364 69.0948 146.824C68.9838 147.282 68.9668 147.8 69.0436 148.38ZM76.4574 140.811L77.8297 151.168L76.6361 151.327L75.2638 140.969L76.4574 140.811ZM82.8669 150.666C82.1184 150.765 81.4508 150.685 80.8642 150.427C80.2806 150.164 79.8025 149.754 79.4301 149.196C79.0606 148.635 78.8232 147.956 78.7178 147.16C78.6123 146.365 78.6644 145.644 78.874 144.999C79.0864 144.35 79.4314 143.82 79.9089 143.41C80.3893 142.997 80.9801 142.744 81.6814 142.651C82.086 142.597 82.4945 142.612 82.9068 142.694C83.3192 142.777 83.7073 142.948 84.0712 143.209C84.4346 143.466 84.7452 143.83 85.0031 144.3C85.2609 144.77 85.4379 145.368 85.5339 146.092L85.6009 146.598L79.613 147.392L79.4763 146.36L84.2504 145.727C84.1924 145.289 84.0529 144.91 83.832 144.589C83.6145 144.268 83.3324 144.029 82.9857 143.872C82.6425 143.715 82.255 143.666 81.8235 143.723C81.3481 143.786 80.9524 143.958 80.6364 144.24C80.3233 144.519 80.0988 144.857 79.963 145.256C79.8271 145.655 79.7876 146.068 79.8443 146.496L79.9354 147.184C80.0132 147.771 80.1802 148.255 80.4366 148.636C80.6958 149.013 81.0216 149.284 81.4139 149.448C81.8057 149.609 82.2427 149.657 82.7248 149.594C83.0384 149.552 83.3158 149.471 83.557 149.349C83.8012 149.224 84.0042 149.06 84.1659 148.857C84.3273 148.65 84.4406 148.406 84.506 148.122L85.702 148.293C85.6324 148.701 85.474 149.071 85.2268 149.406C84.979 149.737 84.6554 150.014 84.2558 150.235C83.8558 150.452 83.3928 150.596 82.8669 150.666ZM92.154 143.136L91.122 143.582C91.0309 143.412 90.9084 143.252 90.7546 143.1C90.6037 142.945 90.4096 142.827 90.1724 142.745C89.9351 142.663 89.6428 142.646 89.2955 142.692C88.8202 142.755 88.4385 142.917 88.1506 143.178C87.8657 143.435 87.7453 143.731 87.7895 144.064C87.8288 144.361 87.9678 144.581 88.2063 144.725C88.4449 144.868 88.801 144.967 89.2748 145.02L90.4654 145.151C91.1822 145.227 91.734 145.417 92.1205 145.719C92.5066 146.018 92.7356 146.439 92.8075 146.981C92.8665 147.426 92.7911 147.841 92.5813 148.226C92.3749 148.61 92.0575 148.933 91.6291 149.196C91.2008 149.459 90.6848 149.63 90.0813 149.71C89.289 149.815 88.6104 149.73 88.0457 149.455C87.4809 149.179 87.0856 148.721 86.8598 148.078L87.9551 147.645C88.1184 148.049 88.3639 148.335 88.6917 148.504C89.0228 148.673 89.4328 148.725 89.9217 148.661C90.478 148.587 90.9041 148.41 91.1998 148.131C91.4985 147.848 91.6258 147.539 91.5816 147.206C91.5458 146.936 91.4215 146.722 91.2086 146.565C90.9952 146.405 90.6869 146.305 90.2837 146.266L88.9488 146.134C88.2151 146.06 87.6579 145.868 87.2772 145.558C86.8994 145.244 86.675 144.819 86.604 144.283C86.5459 143.845 86.6176 143.441 86.8191 143.071C87.0239 142.701 87.3277 142.391 87.7304 142.143C88.1365 141.893 88.6127 141.732 89.1589 141.66C89.9276 141.558 90.5534 141.647 91.0364 141.926C91.5228 142.204 91.8953 142.608 92.154 143.136ZM98.0419 148.49L97.0127 140.722L98.1657 140.569L98.3266 141.783L98.4277 141.77C98.5346 141.334 98.7532 140.977 99.0836 140.7C99.4136 140.42 99.8314 140.246 100.337 140.179C100.85 140.111 101.292 140.171 101.663 140.358C102.037 140.542 102.348 140.828 102.595 141.218L102.676 141.207C102.822 140.779 103.078 140.421 103.444 140.133C103.811 139.84 104.272 139.658 104.828 139.584C105.523 139.492 106.12 139.634 106.619 140.01C107.118 140.383 107.428 141.027 107.549 141.941L108.238 147.14L107.044 147.298L106.355 142.099C106.279 141.526 106.068 141.137 105.722 140.932C105.376 140.727 104.99 140.653 104.566 140.71C104.019 140.782 103.618 141.003 103.362 141.373C103.105 141.74 103.01 142.175 103.077 142.677L103.747 147.735L102.533 147.895L101.828 142.575C101.769 142.133 101.579 141.797 101.257 141.565C100.934 141.33 100.547 141.242 100.095 141.302C99.7846 141.343 99.5056 141.464 99.2578 141.665C99.0133 141.866 98.8279 142.123 98.7016 142.439C98.5782 142.75 98.5417 143.096 98.5922 143.477L99.2354 148.332L98.0419 148.49ZM112.303 146.786C111.81 146.851 111.351 146.818 110.926 146.686C110.499 146.55 110.145 146.321 109.862 145.998C109.578 145.672 109.403 145.256 109.336 144.75C109.277 144.305 109.317 143.933 109.456 143.633C109.594 143.33 109.799 143.08 110.072 142.882C110.344 142.685 110.652 142.524 110.996 142.4C111.343 142.272 111.693 142.16 112.048 142.065C112.512 141.942 112.888 141.845 113.178 141.776C113.47 141.703 113.678 141.619 113.803 141.524C113.931 141.428 113.982 141.284 113.957 141.092L113.951 141.051C113.885 140.552 113.697 140.182 113.387 139.942C113.081 139.701 112.653 139.617 112.104 139.69C111.534 139.766 111.104 139.95 110.813 140.242C110.522 140.534 110.33 140.831 110.236 141.132L109.05 140.877C109.189 140.378 109.41 139.975 109.713 139.667C110.018 139.356 110.364 139.121 110.752 138.964C111.142 138.802 111.533 138.696 111.924 138.644C112.173 138.611 112.464 138.603 112.795 138.621C113.13 138.635 113.461 138.713 113.789 138.855C114.12 138.996 114.411 139.237 114.662 139.578C114.913 139.918 115.079 140.397 115.161 141.014L115.839 146.132L114.645 146.291L114.506 145.239L114.445 145.247C114.387 145.426 114.276 145.624 114.112 145.841C113.949 146.059 113.72 146.255 113.424 146.432C113.128 146.608 112.754 146.726 112.303 146.786ZM112.343 145.69C112.815 145.627 113.2 145.482 113.499 145.254C113.802 145.025 114.016 144.753 114.143 144.438C114.272 144.122 114.316 143.802 114.273 143.479L114.128 142.386C114.086 142.454 113.982 142.524 113.816 142.597C113.654 142.667 113.464 142.735 113.246 142.802C113.032 142.864 112.822 142.923 112.616 142.978C112.414 143.028 112.25 143.071 112.124 143.105C111.819 143.186 111.538 143.29 111.28 143.417C111.025 143.54 110.827 143.702 110.685 143.902C110.547 144.099 110.498 144.349 110.538 144.653C110.593 145.067 110.788 145.361 111.123 145.532C111.461 145.7 111.867 145.753 112.343 145.69ZM122.294 139.143L121.262 139.588C121.171 139.419 121.048 139.258 120.894 139.107C120.744 138.952 120.549 138.834 120.312 138.752C120.075 138.67 119.783 138.652 119.435 138.698C118.96 138.761 118.578 138.923 118.29 139.184C118.006 139.442 117.885 139.737 117.929 140.071C117.969 140.368 118.108 140.588 118.346 140.731C118.585 140.875 118.941 140.973 119.415 141.027L120.605 141.158C121.322 141.234 121.874 141.423 122.26 141.726C122.646 142.024 122.875 142.445 122.947 142.988C123.006 143.433 122.931 143.848 122.721 144.232C122.515 144.617 122.197 144.94 121.769 145.203C121.341 145.465 120.825 145.636 120.221 145.716C119.429 145.821 118.75 145.736 118.186 145.461C117.621 145.186 117.225 144.727 117 144.085L118.095 143.651C118.258 144.055 118.504 144.342 118.832 144.511C119.163 144.68 119.573 144.732 120.062 144.667C120.618 144.593 121.044 144.417 121.34 144.138C121.638 143.854 121.766 143.546 121.721 143.212C121.686 142.942 121.561 142.729 121.348 142.572C121.135 142.412 120.827 142.312 120.424 142.273L119.089 142.141C118.355 142.066 117.798 141.874 117.417 141.564C117.039 141.251 116.815 140.826 116.744 140.29C116.686 139.852 116.757 139.448 116.959 139.078C117.164 138.708 117.468 138.398 117.87 138.149C118.276 137.9 118.753 137.739 119.299 137.667C120.067 137.565 120.693 137.653 121.176 137.932C121.663 138.211 122.035 138.615 122.294 139.143ZM129.307 138.214L128.275 138.659C128.184 138.489 128.062 138.329 127.908 138.178C127.757 138.023 127.563 137.904 127.326 137.823C127.088 137.741 126.796 137.723 126.449 137.769C125.973 137.832 125.592 137.994 125.304 138.255C125.019 138.513 124.899 138.808 124.943 139.142C124.982 139.439 125.121 139.659 125.36 139.802C125.598 139.945 125.954 140.044 126.428 140.098L127.619 140.228C128.336 140.305 128.887 140.494 129.274 140.796C129.66 141.095 129.889 141.516 129.961 142.059C130.02 142.504 129.944 142.919 129.735 143.303C129.528 143.687 129.211 144.011 128.782 144.273C128.354 144.536 127.838 144.707 127.235 144.787C126.442 144.892 125.764 144.807 125.199 144.532C124.634 144.257 124.239 143.798 124.013 143.156L125.108 142.722C125.272 143.126 125.517 143.413 125.845 143.582C126.176 143.751 126.586 143.803 127.075 143.738C127.631 143.664 128.057 143.488 128.353 143.208C128.652 142.925 128.779 142.617 128.735 142.283C128.699 142.013 128.575 141.8 128.362 141.643C128.148 141.482 127.84 141.383 127.437 141.343L126.102 141.211C125.368 141.137 124.811 140.945 124.43 140.635C124.053 140.322 123.828 139.897 123.757 139.361C123.699 138.922 123.771 138.518 123.972 138.149C124.177 137.778 124.481 137.469 124.884 137.22C125.29 136.971 125.766 136.81 126.312 136.737C127.081 136.635 127.707 136.724 128.19 137.003C128.676 137.282 129.049 137.685 129.307 138.214ZM133.927 143.921C133.435 143.986 132.976 143.953 132.55 143.82C132.124 143.685 131.769 143.456 131.486 143.133C131.203 142.807 131.028 142.391 130.961 141.885C130.902 141.44 130.942 141.068 131.08 140.768C131.219 140.465 131.424 140.215 131.696 140.017C131.968 139.82 132.277 139.659 132.62 139.535C132.967 139.406 133.318 139.295 133.672 139.2C134.136 139.077 134.513 138.98 134.802 138.911C135.094 138.838 135.303 138.754 135.427 138.658C135.555 138.563 135.606 138.419 135.581 138.226L135.576 138.186C135.509 137.687 135.322 137.317 135.012 137.077C134.705 136.836 134.277 136.752 133.728 136.825C133.158 136.901 132.728 137.085 132.437 137.377C132.147 137.669 131.954 137.966 131.86 138.267L130.674 138.012C130.814 137.513 131.035 137.11 131.337 136.802C131.642 136.491 131.989 136.256 132.376 136.099C132.766 135.937 133.157 135.83 133.548 135.779C133.798 135.746 134.088 135.738 134.42 135.756C134.755 135.77 135.086 135.848 135.413 135.989C135.744 136.131 136.035 136.372 136.286 136.713C136.537 137.053 136.703 137.532 136.785 138.149L137.463 143.267L136.27 143.425L136.13 142.373L136.07 142.382C136.011 142.561 135.9 142.759 135.737 142.976C135.573 143.193 135.344 143.39 135.048 143.567C134.753 143.743 134.379 143.861 133.927 143.921ZM133.967 142.825C134.439 142.762 134.825 142.617 135.124 142.388C135.426 142.16 135.641 141.888 135.767 141.573C135.897 141.257 135.94 140.937 135.897 140.614L135.752 139.521C135.71 139.589 135.606 139.659 135.441 139.732C135.278 139.802 135.088 139.87 134.871 139.936C134.656 139.999 134.446 140.058 134.241 140.113C134.038 140.163 133.874 140.206 133.748 140.24C133.443 140.321 133.162 140.425 132.904 140.552C132.65 140.675 132.451 140.837 132.31 141.037C132.171 141.234 132.122 141.484 132.162 141.788C132.217 142.202 132.412 142.496 132.747 142.667C133.085 142.835 133.492 142.888 133.967 142.825ZM142.757 145.695C142.181 145.771 141.675 145.763 141.241 145.669C140.807 145.579 140.436 145.433 140.128 145.23C139.824 145.03 139.573 144.806 139.375 144.558L140.237 143.764C140.364 143.892 140.522 144.035 140.711 144.196C140.901 144.359 141.148 144.489 141.453 144.586C141.761 144.686 142.149 144.705 142.618 144.643C143.245 144.56 143.743 144.339 144.11 143.982C144.478 143.624 144.619 143.122 144.533 142.475L144.324 140.897L144.223 140.91C144.154 141.063 144.053 141.255 143.919 141.486C143.787 141.712 143.583 141.926 143.304 142.128C143.028 142.326 142.637 142.458 142.132 142.525C141.505 142.608 140.922 142.535 140.384 142.304C139.849 142.073 139.399 141.693 139.034 141.165C138.672 140.637 138.438 139.968 138.33 139.159C138.225 138.363 138.273 137.652 138.475 137.025C138.676 136.394 139.005 135.884 139.461 135.494C139.916 135.101 140.471 134.861 141.125 134.775C141.631 134.708 142.044 134.739 142.363 134.868C142.685 134.993 142.939 135.152 143.125 135.343C143.315 135.531 143.462 135.686 143.568 135.81L143.689 135.794L143.526 134.56L144.679 134.407L145.738 142.397C145.826 143.065 145.746 143.628 145.498 144.086C145.254 144.547 144.89 144.909 144.407 145.173C143.928 145.438 143.378 145.612 142.757 145.695ZM142.151 141.432C142.63 141.368 143.02 141.205 143.322 140.942C143.623 140.679 143.832 140.331 143.95 139.897C144.067 139.462 144.088 138.959 144.012 138.386C143.938 137.826 143.788 137.343 143.563 136.937C143.338 136.531 143.044 136.229 142.681 136.03C142.319 135.831 141.895 135.764 141.409 135.828C140.903 135.895 140.499 136.079 140.196 136.38C139.896 136.68 139.69 137.058 139.579 137.511C139.471 137.965 139.452 138.455 139.521 138.981C139.593 139.52 139.74 139.986 139.964 140.378C140.19 140.767 140.486 141.057 140.851 141.249C141.219 141.437 141.652 141.498 142.151 141.432ZM150.744 141.672C149.996 141.771 149.328 141.692 148.741 141.433C148.158 141.171 147.68 140.761 147.307 140.203C146.938 139.641 146.7 138.963 146.595 138.167C146.49 137.371 146.542 136.651 146.751 136.005C146.964 135.356 147.309 134.827 147.786 134.417C148.267 134.003 148.857 133.75 149.559 133.657C149.963 133.604 150.372 133.618 150.784 133.701C151.196 133.783 151.585 133.955 151.948 134.216C152.312 134.473 152.622 134.836 152.88 135.307C153.138 135.777 153.315 136.374 153.411 137.099L153.478 137.605L147.49 138.398L147.354 137.367L152.128 136.734C152.07 136.296 151.93 135.916 151.709 135.595C151.492 135.274 151.21 135.036 150.863 134.879C150.52 134.722 150.132 134.672 149.701 134.729C149.225 134.792 148.83 134.965 148.514 135.247C148.201 135.525 147.976 135.864 147.84 136.262C147.704 136.661 147.665 137.075 147.722 137.503L147.813 138.191C147.89 138.777 148.057 139.261 148.314 139.643C148.573 140.02 148.899 140.291 149.291 140.455C149.683 140.616 150.12 140.664 150.602 140.6C150.916 140.559 151.193 140.477 151.434 140.356C151.678 140.231 151.881 140.067 152.043 139.864C152.205 139.657 152.318 139.412 152.383 139.129L153.579 139.3C153.51 139.707 153.351 140.078 153.104 140.413C152.856 140.744 152.533 141.02 152.133 141.241C151.733 141.459 151.27 141.603 150.744 141.672ZM156.92 139.248L156.912 139.805C156.905 140.197 156.872 140.62 156.812 141.074C156.756 141.528 156.691 141.957 156.617 142.361C156.544 142.765 156.482 143.087 156.431 143.327L155.521 143.448C155.536 143.226 155.556 142.934 155.58 142.57C155.604 142.207 155.622 141.801 155.635 141.354C155.651 140.909 155.653 140.456 155.64 139.994L155.625 139.42L156.92 139.248ZM164.9 131.728L165.034 132.739L160.847 133.294L160.713 132.282L164.9 131.728ZM162.996 139.884L161.825 131.044C161.766 130.599 161.821 130.214 161.991 129.89C162.161 129.565 162.402 129.307 162.717 129.114C163.031 128.922 163.373 128.801 163.744 128.752C164.037 128.713 164.28 128.705 164.472 128.728C164.663 128.75 164.807 128.776 164.904 128.804L164.697 129.881C164.633 129.869 164.546 129.855 164.434 129.839C164.325 129.822 164.185 129.826 164.013 129.848C163.618 129.901 163.347 130.038 163.198 130.26C163.052 130.482 163.005 130.785 163.056 131.169L164.19 139.726L162.996 139.884ZM169.262 139.239C168.77 139.305 168.311 139.271 167.885 139.139C167.459 139.003 167.104 138.774 166.821 138.451C166.538 138.125 166.363 137.709 166.296 137.203C166.237 136.758 166.277 136.386 166.416 136.086C166.554 135.783 166.759 135.533 167.031 135.336C167.304 135.138 167.612 134.977 167.955 134.853C168.302 134.725 168.653 134.613 169.007 134.518C169.471 134.395 169.848 134.299 170.137 134.229C170.429 134.156 170.638 134.072 170.762 133.977C170.89 133.881 170.942 133.737 170.916 133.545L170.911 133.504C170.845 133.005 170.657 132.636 170.347 132.395C170.041 132.155 169.613 132.071 169.063 132.143C168.493 132.219 168.063 132.403 167.773 132.695C167.482 132.988 167.29 133.284 167.196 133.585L166.009 133.33C166.149 132.831 166.37 132.428 166.672 132.121C166.978 131.809 167.324 131.575 167.711 131.417C168.102 131.255 168.492 131.149 168.883 131.097C169.133 131.064 169.423 131.056 169.755 131.074C170.09 131.088 170.421 131.166 170.748 131.308C171.079 131.449 171.37 131.69 171.621 132.031C171.872 132.372 172.039 132.85 172.12 133.467L172.799 138.586L171.605 138.744L171.466 137.692L171.405 137.7C171.346 137.879 171.235 138.077 171.072 138.295C170.909 138.512 170.679 138.709 170.383 138.885C170.088 139.061 169.714 139.179 169.262 139.239ZM169.302 138.143C169.774 138.081 170.16 137.935 170.459 137.707C170.761 137.478 170.976 137.206 171.102 136.891C171.232 136.575 171.275 136.255 171.232 135.932L171.088 134.839C171.045 134.907 170.941 134.977 170.776 135.051C170.614 135.12 170.424 135.188 170.206 135.255C169.991 135.317 169.781 135.376 169.576 135.431C169.373 135.482 169.209 135.524 169.083 135.558C168.778 135.639 168.497 135.744 168.24 135.87C167.985 135.993 167.787 136.155 167.645 136.356C167.507 136.552 167.457 136.803 167.498 137.106C167.552 137.521 167.747 137.814 168.082 137.986C168.42 138.154 168.827 138.206 169.302 138.143ZM177.727 138.097C176.999 138.194 176.349 138.105 175.777 137.831C175.206 137.556 174.738 137.136 174.375 136.57C174.012 136.004 173.779 135.334 173.676 134.558C173.572 133.769 173.625 133.054 173.835 132.412C174.047 131.766 174.393 131.238 174.87 130.829C175.351 130.415 175.941 130.162 176.643 130.069C177.189 129.996 177.695 130.032 178.16 130.177C178.625 130.321 179.021 130.556 179.349 130.884C179.678 131.211 179.907 131.612 180.039 132.089L178.846 132.247C178.708 131.905 178.464 131.618 178.114 131.387C177.767 131.151 177.331 131.069 176.805 131.138C176.34 131.2 175.948 131.375 175.629 131.665C175.314 131.95 175.087 132.325 174.95 132.789C174.815 133.249 174.787 133.773 174.865 134.36C174.944 134.96 175.108 135.47 175.355 135.89C175.607 136.309 175.922 136.619 176.302 136.819C176.685 137.019 177.113 137.088 177.585 137.025C177.895 136.984 178.17 136.893 178.408 136.751C178.647 136.61 178.84 136.426 178.989 136.201C179.137 135.975 179.23 135.716 179.266 135.423L180.46 135.265C180.453 135.732 180.341 136.168 180.124 136.57C179.909 136.969 179.598 137.306 179.192 137.579C178.788 137.849 178.3 138.021 177.727 138.097ZM182.078 137.356L181.049 129.588L182.242 129.43L183.271 137.198L182.078 137.356ZM181.484 128.213C181.251 128.244 181.04 128.191 180.851 128.055C180.664 127.918 180.557 127.739 180.527 127.516C180.498 127.294 180.555 127.092 180.699 126.912C180.847 126.731 181.037 126.625 181.269 126.595C181.502 126.564 181.712 126.617 181.898 126.753C182.087 126.889 182.197 127.069 182.226 127.291C182.256 127.514 182.197 127.715 182.049 127.896C181.905 128.076 181.717 128.182 181.484 128.213ZM187.34 136.844C186.848 136.909 186.389 136.876 185.963 136.744C185.537 136.608 185.182 136.379 184.899 136.056C184.616 135.73 184.441 135.314 184.374 134.808C184.315 134.363 184.355 133.991 184.493 133.691C184.632 133.388 184.837 133.138 185.109 132.94C185.382 132.743 185.69 132.582 186.033 132.458C186.38 132.33 186.731 132.218 187.085 132.123C187.549 132 187.926 131.903 188.215 131.834C188.507 131.761 188.716 131.677 188.84 131.582C188.968 131.486 189.02 131.342 188.994 131.149L188.989 131.109C188.923 130.61 188.735 130.24 188.425 130C188.119 129.759 187.691 129.675 187.141 129.748C186.571 129.824 186.141 130.008 185.85 130.3C185.56 130.592 185.368 130.889 185.274 131.19L184.087 130.935C184.227 130.436 184.448 130.033 184.75 129.725C185.055 129.414 185.402 129.179 185.789 129.022C186.179 128.86 186.57 128.753 186.961 128.702C187.211 128.669 187.501 128.661 187.833 128.679C188.168 128.693 188.499 128.771 188.826 128.913C189.157 129.054 189.448 129.295 189.699 129.636C189.95 129.976 190.117 130.455 190.198 131.072L190.876 136.19L189.683 136.348L189.544 135.297L189.483 135.305C189.424 135.484 189.313 135.682 189.15 135.899C188.987 136.117 188.757 136.313 188.461 136.49C188.166 136.666 187.792 136.784 187.34 136.844ZM187.38 135.748C187.852 135.685 188.238 135.54 188.537 135.312C188.839 135.083 189.054 134.811 189.18 134.496C189.31 134.18 189.353 133.86 189.31 133.537L189.166 132.444C189.123 132.512 189.019 132.582 188.854 132.655C188.692 132.725 188.502 132.793 188.284 132.859C188.069 132.922 187.859 132.981 187.654 133.036C187.451 133.086 187.287 133.129 187.161 133.163C186.856 133.244 186.575 133.348 186.317 133.475C186.063 133.598 185.865 133.76 185.723 133.96C185.584 134.157 185.535 134.407 185.575 134.711C185.63 135.125 185.825 135.419 186.16 135.59C186.498 135.758 186.905 135.811 187.38 135.748ZM192.449 125.443L193.821 135.8L192.628 135.958L191.255 125.601L192.449 125.443ZM200.284 128.81L199.252 129.255C199.161 129.085 199.038 128.925 198.884 128.774C198.733 128.619 198.539 128.5 198.302 128.419C198.065 128.337 197.773 128.319 197.425 128.365C196.95 128.428 196.568 128.59 196.28 128.851C195.995 129.109 195.875 129.404 195.919 129.738C195.959 130.035 196.097 130.255 196.336 130.398C196.575 130.541 196.931 130.64 197.404 130.694L198.595 130.824C199.312 130.901 199.864 131.09 200.25 131.392C200.636 131.691 200.865 132.112 200.937 132.655C200.996 133.1 200.921 133.515 200.711 133.899C200.505 134.283 200.187 134.607 199.759 134.869C199.331 135.132 198.815 135.303 198.211 135.383C197.419 135.488 196.74 135.403 196.175 135.128C195.611 134.853 195.215 134.394 194.99 133.752L196.085 133.318C196.248 133.722 196.494 134.009 196.821 134.178C197.153 134.347 197.563 134.399 198.051 134.334C198.608 134.26 199.034 134.084 199.33 133.804C199.628 133.521 199.756 133.213 199.711 132.879C199.676 132.609 199.551 132.396 199.338 132.239C199.125 132.078 198.817 131.979 198.413 131.939L197.079 131.807C196.345 131.733 195.788 131.541 195.407 131.231C195.029 130.918 194.805 130.493 194.734 129.957C194.676 129.518 194.747 129.114 194.949 128.745C195.154 128.374 195.457 128.065 195.86 127.816C196.266 127.567 196.742 127.406 197.289 127.333C198.057 127.231 198.683 127.32 199.166 127.599C199.652 127.878 200.025 128.281 200.284 128.81ZM204.186 132.986L204.177 133.543C204.171 133.935 204.138 134.358 204.078 134.812C204.021 135.265 203.956 135.694 203.883 136.098C203.81 136.503 203.748 136.825 203.697 137.065L202.787 137.185C202.802 136.964 202.822 136.671 202.846 136.308C202.869 135.944 202.888 135.539 202.901 135.091C202.917 134.646 202.919 134.193 202.906 133.732L202.891 133.158L204.186 132.986ZM209.736 133.692L208.707 125.923L209.86 125.771L210.021 126.984L210.122 126.971C210.229 126.535 210.447 126.178 210.778 125.901C211.108 125.621 211.525 125.447 212.031 125.38C212.544 125.312 212.986 125.372 213.357 125.559C213.731 125.743 214.042 126.03 214.289 126.419L214.37 126.408C214.516 125.981 214.772 125.622 215.138 125.334C215.505 125.042 215.966 124.859 216.522 124.785C217.217 124.693 217.814 124.835 218.313 125.212C218.812 125.585 219.122 126.228 219.243 127.142L219.932 132.341L218.738 132.499L218.049 127.3C217.973 126.727 217.762 126.338 217.416 126.133C217.07 125.929 216.684 125.854 216.26 125.911C215.713 125.983 215.312 126.204 215.056 126.575C214.799 126.941 214.704 127.376 214.771 127.878L215.441 132.936L214.227 133.097L213.522 127.776C213.463 127.335 213.273 126.998 212.951 126.766C212.628 126.531 212.241 126.443 211.789 126.503C211.479 126.544 211.2 126.665 210.952 126.866C210.707 127.067 210.522 127.325 210.396 127.64C210.272 127.951 210.236 128.297 210.286 128.678L210.929 133.533L209.736 133.692ZM223.997 131.987C223.504 132.053 223.045 132.019 222.62 131.887C222.193 131.751 221.839 131.522 221.556 131.199C221.273 130.873 221.097 130.457 221.03 129.951C220.971 129.506 221.011 129.134 221.15 128.834C221.288 128.531 221.493 128.281 221.766 128.084C222.038 127.886 222.346 127.725 222.69 127.601C223.037 127.473 223.387 127.361 223.742 127.266C224.206 127.143 224.582 127.047 224.872 126.977C225.164 126.904 225.372 126.82 225.497 126.725C225.625 126.629 225.676 126.485 225.651 126.293L225.645 126.252C225.579 125.753 225.391 125.384 225.081 125.143C224.775 124.903 224.347 124.819 223.798 124.891C223.228 124.967 222.798 125.151 222.507 125.443C222.216 125.736 222.024 126.032 221.93 126.333L220.744 126.078C220.883 125.579 221.104 125.176 221.407 124.869C221.712 124.557 222.058 124.323 222.446 124.165C222.836 124.003 223.227 123.897 223.618 123.845C223.867 123.812 224.158 123.804 224.49 123.822C224.824 123.836 225.155 123.914 225.483 124.056C225.814 124.197 226.105 124.438 226.356 124.779C226.607 125.12 226.773 125.598 226.855 126.215L227.533 131.334L226.339 131.492L226.2 130.44L226.139 130.448C226.081 130.627 225.97 130.825 225.806 131.043C225.643 131.26 225.414 131.457 225.118 131.633C224.822 131.809 224.448 131.928 223.997 131.987ZM224.037 130.891C224.509 130.829 224.894 130.683 225.193 130.455C225.496 130.226 225.71 129.954 225.837 129.639C225.966 129.323 226.01 129.003 225.967 128.68L225.822 127.587C225.78 127.655 225.676 127.725 225.51 127.799C225.348 127.868 225.158 127.936 224.941 128.003C224.726 128.065 224.516 128.124 224.31 128.179C224.108 128.23 223.944 128.272 223.818 128.306C223.513 128.387 223.232 128.492 222.974 128.618C222.719 128.741 222.521 128.903 222.38 129.104C222.241 129.3 222.192 129.551 222.232 129.854C222.287 130.269 222.482 130.562 222.817 130.734C223.155 130.902 223.561 130.954 224.037 130.891ZM229.859 126.27L230.478 130.943L229.284 131.102L228.255 123.333L229.408 123.181L229.569 124.394L229.67 124.381C229.8 123.962 230.034 123.609 230.373 123.32C230.712 123.028 231.175 122.844 231.761 122.766C232.287 122.696 232.762 122.743 233.185 122.907C233.608 123.067 233.957 123.35 234.234 123.756C234.51 124.158 234.692 124.69 234.78 125.351L235.434 130.287L234.24 130.445L233.597 125.59C233.516 124.98 233.295 124.525 232.933 124.227C232.57 123.925 232.113 123.81 231.56 123.884C231.179 123.934 230.849 124.062 230.571 124.267C230.296 124.471 230.094 124.743 229.964 125.083C229.834 125.423 229.799 125.819 229.859 126.27ZM237.188 130.054L236.158 122.286L237.352 122.128L238.381 129.896L237.188 130.054ZM236.594 120.911C236.361 120.942 236.15 120.889 235.96 120.753C235.774 120.617 235.666 120.437 235.637 120.215C235.607 119.992 235.665 119.791 235.809 119.61C235.957 119.429 236.147 119.324 236.379 119.293C236.612 119.262 236.821 119.315 237.008 119.451C237.197 119.588 237.307 119.767 237.336 119.989C237.366 120.212 237.307 120.414 237.159 120.594C237.015 120.775 236.826 120.88 236.594 120.911ZM240.526 132.576L239.111 121.895L240.264 121.742L240.427 122.976L240.569 122.958C240.639 122.811 240.737 122.623 240.865 122.393C240.995 122.16 241.196 121.941 241.467 121.737C241.742 121.529 242.132 121.392 242.638 121.325C243.292 121.238 243.89 121.325 244.432 121.586C244.974 121.847 245.425 122.259 245.785 122.822C246.144 123.385 246.378 124.075 246.486 124.891C246.595 125.713 246.549 126.445 246.35 127.086C246.149 127.723 245.823 128.239 245.371 128.636C244.919 129.028 244.369 129.268 243.722 129.353C243.223 129.419 242.812 129.39 242.49 129.264C242.168 129.135 241.912 128.976 241.722 128.785C241.531 128.59 241.383 128.428 241.277 128.298L241.175 128.312L241.72 132.418L240.526 132.576ZM240.799 125.624C240.876 126.21 241.031 126.716 241.262 127.142C241.493 127.564 241.791 127.88 242.155 128.089C242.518 128.295 242.939 128.366 243.418 128.303C243.917 128.236 244.316 128.05 244.615 127.743C244.917 127.432 245.122 127.041 245.231 126.57C245.344 126.095 245.363 125.582 245.29 125.029C245.217 124.482 245.068 124.001 244.841 123.585C244.617 123.166 244.32 122.85 243.949 122.638C243.581 122.423 243.144 122.349 242.638 122.416C242.152 122.48 241.761 122.657 241.463 122.947C241.165 123.234 240.96 123.607 240.85 124.068C240.739 124.525 240.722 125.044 240.799 125.624ZM251.67 128.3C250.921 128.399 250.254 128.32 249.667 128.061C249.083 127.799 248.605 127.389 248.233 126.831C247.863 126.269 247.626 125.591 247.521 124.795C247.415 123.999 247.467 123.279 247.677 122.633C247.889 121.984 248.234 121.455 248.712 121.045C249.192 120.631 249.783 120.378 250.484 120.285C250.889 120.232 251.297 120.246 251.71 120.329C252.122 120.411 252.51 120.583 252.874 120.843C253.237 121.101 253.548 121.464 253.806 121.934C254.064 122.405 254.241 123.002 254.337 123.727L254.404 124.233L248.416 125.026L248.279 123.994L253.053 123.362C252.995 122.924 252.856 122.544 252.635 122.223C252.417 121.902 252.135 121.664 251.788 121.507C251.445 121.35 251.058 121.3 250.626 121.357C250.151 121.42 249.755 121.593 249.439 121.875C249.126 122.153 248.902 122.492 248.766 122.89C248.63 123.289 248.59 123.703 248.647 124.131L248.738 124.819C248.816 125.405 248.983 125.889 249.239 126.27C249.499 126.648 249.824 126.919 250.217 127.083C250.608 127.244 251.045 127.292 251.528 127.228C251.841 127.187 252.119 127.105 252.36 126.984C252.604 126.859 252.807 126.695 252.969 126.492C253.13 126.285 253.243 126.04 253.309 125.757L254.505 125.928C254.435 126.335 254.277 126.706 254.029 127.041C253.782 127.372 253.458 127.648 253.059 127.869C252.659 128.087 252.196 128.231 251.67 128.3ZM259.208 127.302C258.56 127.387 257.967 127.299 257.428 127.038C256.889 126.773 256.44 126.359 256.08 125.796C255.72 125.23 255.486 124.535 255.377 123.713C255.269 122.897 255.315 122.17 255.515 121.533C255.716 120.896 256.044 120.381 256.499 119.987C256.955 119.594 257.51 119.354 258.164 119.268C258.67 119.201 259.08 119.232 259.396 119.362C259.715 119.488 259.965 119.647 260.149 119.838C260.335 120.026 260.481 120.182 260.586 120.305L260.687 120.292L260.181 116.469L261.374 116.31L262.747 126.668L261.594 126.821L261.435 125.627L261.294 125.646C261.225 125.799 261.124 125.994 260.991 126.232C260.857 126.465 260.651 126.687 260.374 126.895C260.095 127.1 259.707 127.235 259.208 127.302ZM259.228 126.208C259.706 126.144 260.094 125.966 260.392 125.673C260.689 125.376 260.894 124.994 261.007 124.526C261.119 124.055 261.136 123.526 261.059 122.939C260.982 122.359 260.83 121.863 260.604 121.451C260.378 121.035 260.083 120.727 259.72 120.528C259.357 120.326 258.933 120.257 258.448 120.321C257.942 120.388 257.538 120.574 257.235 120.878C256.935 121.179 256.73 121.561 256.62 122.025C256.513 122.485 256.495 122.988 256.568 123.534C256.641 124.087 256.792 124.578 257.02 125.008C257.252 125.434 257.552 125.757 257.921 125.98C258.293 126.198 258.729 126.274 259.228 126.208ZM264.671 126.413L263.642 118.645L264.835 118.487L265.865 126.255L264.671 126.413ZM264.077 117.27C263.845 117.301 263.633 117.248 263.444 117.112C263.258 116.975 263.15 116.796 263.12 116.573C263.091 116.351 263.148 116.149 263.292 115.969C263.44 115.788 263.63 115.682 263.863 115.651C264.095 115.621 264.305 115.673 264.491 115.81C264.681 115.946 264.79 116.125 264.82 116.348C264.849 116.571 264.79 116.772 264.643 116.953C264.498 117.133 264.31 117.239 264.077 117.27Z" fill="#003C36"/>
<path d="M64.2102 212.39L64.3889 213.739L50.6329 215.562L50.4542 214.213L64.2102 212.39ZM64.5962 215.303L64.7749 216.652L51.0188 218.475L50.8401 217.126L64.5962 215.303ZM62.3484 207.505L64.1782 221.315L61.9529 221.609L54.1927 213.066L54.0848 213.08L55.3311 222.487L52.8227 222.819L50.9929 209.009L53.2384 208.712L60.9793 217.265L61.1074 217.248L59.8602 207.834L62.3484 207.505ZM71.4573 220.542C70.7959 220.625 70.1356 220.596 69.4764 220.455C68.8167 220.309 68.2011 220.013 67.6297 219.567C67.0577 219.117 66.5668 218.484 66.1569 217.67C65.7465 216.85 65.4595 215.807 65.2961 214.538C65.1394 213.356 65.1256 212.285 65.2546 211.326C65.3837 210.366 65.6419 209.536 66.0294 208.835C66.4162 208.13 66.92 207.564 67.5406 207.139C68.1658 206.713 68.8919 206.445 69.7191 206.336C70.5867 206.221 71.3781 206.29 72.0932 206.543C72.8128 206.795 73.4187 207.191 73.9109 207.729C74.4025 208.263 74.7469 208.895 74.944 209.623L72.4828 209.949C72.2866 209.436 71.9721 209.047 71.5393 208.784C71.1104 208.516 70.5993 208.422 70.0059 208.5C69.0484 208.627 68.3662 209.141 67.9594 210.041C67.5571 210.941 67.4499 212.117 67.6378 213.569L67.7322 213.557C67.9001 213.132 68.1406 212.755 68.4537 212.425C68.7668 212.095 69.1335 211.825 69.5538 211.614C69.978 211.397 70.4374 211.256 70.9319 211.191C71.7411 211.084 72.4927 211.181 73.1868 211.482C73.8853 211.783 74.4684 212.248 74.936 212.877C75.4029 213.501 75.6919 214.25 75.803 215.122C75.9278 216.03 75.8291 216.873 75.5069 217.652C75.1841 218.427 74.677 219.07 73.9856 219.583C73.2941 220.095 72.4514 220.415 71.4573 220.542ZM71.1758 218.521C71.6658 218.456 72.0883 218.279 72.4433 217.989C72.7984 217.7 73.0615 217.338 73.2326 216.904C73.4038 216.469 73.4538 216.001 73.3826 215.498C73.3216 215.003 73.1544 214.57 72.8811 214.199C72.6123 213.827 72.2714 213.55 71.8583 213.367C71.4452 213.184 70.9937 213.125 70.5037 213.19C70.1395 213.238 69.8094 213.352 69.5131 213.533C69.2169 213.715 68.9683 213.944 68.7673 214.222C68.5657 214.496 68.4189 214.804 68.3269 215.145C68.2389 215.482 68.2167 215.832 68.2605 216.197C68.3287 216.677 68.4997 217.105 68.7736 217.481C69.0475 217.856 69.3938 218.14 69.8126 218.331C70.2314 218.523 70.6858 218.586 71.1758 218.521ZM82.9444 219.02C82.0453 219.139 81.2183 219.077 80.4633 218.834C79.7078 218.587 79.0817 218.194 78.585 217.656C78.0928 217.117 77.7826 216.468 77.6543 215.707L80.0819 215.386C80.2019 215.946 80.5082 216.377 81.0009 216.677C81.493 216.973 82.0515 217.08 82.6764 216.997C83.1664 216.932 83.5876 216.762 83.9399 216.487C84.2922 216.211 84.552 215.859 84.7193 215.43C84.8865 215.001 84.934 214.53 84.8616 214.018C84.797 213.496 84.6255 213.048 84.3471 212.673C84.0687 212.298 83.7188 212.022 83.2973 211.844C82.8753 211.662 82.4102 211.605 81.9022 211.672C81.4881 211.723 81.0914 211.853 80.7121 212.063C80.3329 212.274 80.0433 212.523 79.8435 212.81L77.5354 212.738L77.3135 205.522L85.3244 204.46L85.6013 206.551L79.6606 207.338L79.7479 211.052L79.8288 211.041C80.0451 210.706 80.374 210.409 80.8153 210.149C81.256 209.885 81.7551 209.716 82.3125 209.642C83.1487 209.531 83.9211 209.63 84.6299 209.939C85.338 210.243 85.9265 210.714 86.3952 211.352C86.864 211.989 87.157 212.751 87.2743 213.637C87.3953 214.549 87.2918 215.391 86.9639 216.162C86.6399 216.927 86.1319 217.564 85.4399 218.072C84.7517 218.575 83.9199 218.891 82.9444 219.02ZM91.744 215.741L91.7546 216.494C91.7667 217.069 91.7306 217.659 91.6462 218.265C91.5669 218.875 91.4723 219.439 91.3625 219.957C91.2527 220.474 91.1626 220.882 91.0922 221.179L89.4469 221.397C89.4735 221.115 89.5095 220.73 89.5548 220.244C89.6047 219.757 89.6423 219.212 89.6677 218.61C89.693 218.007 89.6835 217.4 89.639 216.788L89.5862 216.027L91.744 215.741ZM98.7335 217.004C97.6232 217.151 96.6329 216.996 95.7627 216.54C94.8965 216.078 94.1793 215.343 93.611 214.334C93.0467 213.32 92.6648 212.06 92.4652 210.554C92.2702 209.048 92.314 207.738 92.5966 206.626C92.8831 205.508 93.385 204.618 94.1023 203.956C94.8242 203.293 95.738 202.888 96.8439 202.742C97.9498 202.595 98.9375 202.748 99.8071 203.2C100.677 203.652 101.393 204.381 101.956 205.386C102.524 206.39 102.907 207.643 103.106 209.144C103.306 210.655 103.263 211.973 102.978 213.1C102.697 214.221 102.195 215.116 101.474 215.783C100.757 216.45 99.8439 216.857 98.7335 217.004ZM98.4539 214.893C99.317 214.779 99.9418 214.264 100.328 213.348C100.719 212.427 100.804 211.137 100.584 209.478C100.439 208.382 100.202 207.475 99.8738 206.759C99.5457 206.043 99.1475 205.524 98.6794 205.202C98.2107 204.876 97.6909 204.75 97.12 204.826C96.2614 204.939 95.6391 205.456 95.2533 206.377C94.8669 207.292 94.7804 208.573 94.9939 210.219C95.1354 211.321 95.3682 212.233 95.6924 212.954C96.0212 213.674 96.4199 214.197 96.8886 214.524C97.3567 214.846 97.8785 214.969 98.4539 214.893ZM110.829 215.401C109.719 215.548 108.729 215.394 107.858 214.937C106.992 214.475 106.275 213.74 105.707 212.731C105.142 211.718 104.76 210.458 104.561 208.952C104.366 207.445 104.41 206.136 104.692 205.023C104.979 203.906 105.481 203.016 106.198 202.353C106.92 201.691 107.834 201.286 108.94 201.139C110.045 200.993 111.033 201.146 111.903 201.598C112.772 202.05 113.489 202.778 114.052 203.783C114.619 204.787 115.003 206.04 115.202 207.542C115.402 209.052 115.359 210.371 115.074 211.497C114.792 212.619 114.291 213.513 113.57 214.18C112.853 214.847 111.94 215.254 110.829 215.401ZM110.55 213.291C111.413 213.176 112.037 212.661 112.424 211.745C112.814 210.825 112.899 209.535 112.68 207.876C112.534 206.779 112.298 205.873 111.97 205.157C111.641 204.441 111.243 203.922 110.775 203.6C110.306 203.273 109.787 203.147 109.216 203.223C108.357 203.337 107.735 203.854 107.349 204.774C106.963 205.69 106.876 206.971 107.09 208.617C107.231 209.719 107.464 210.63 107.788 211.351C108.117 212.071 108.516 212.595 108.984 212.922C109.452 213.244 109.974 213.367 110.55 213.291ZM122.925 213.799C121.815 213.946 120.824 213.791 119.954 213.334C119.088 212.873 118.371 212.138 117.802 211.129C117.238 210.115 116.856 208.855 116.657 207.349C116.462 205.842 116.505 204.533 116.788 203.42C117.074 202.303 117.576 201.413 118.294 200.751C119.016 200.088 119.929 199.683 121.035 199.537C122.141 199.39 123.129 199.543 123.998 199.995C124.868 200.447 125.584 201.175 126.147 202.18C126.715 203.185 127.098 204.438 127.297 205.939C127.497 207.45 127.455 208.768 127.17 209.895C126.888 211.016 126.387 211.91 125.666 212.578C124.949 213.244 124.035 213.651 122.925 213.799ZM122.645 211.688C123.508 211.574 124.133 211.059 124.52 210.143C124.91 209.222 124.995 207.932 124.775 206.273C124.63 205.176 124.393 204.27 124.065 203.554C123.737 202.838 123.339 202.319 122.871 201.997C122.402 201.67 121.882 201.545 121.311 201.62C120.453 201.734 119.831 202.251 119.445 203.171C119.058 204.087 118.972 205.368 119.185 207.014C119.327 208.116 119.56 209.027 119.884 209.748C120.213 210.469 120.611 210.992 121.08 211.319C121.548 211.641 122.07 211.764 122.645 211.688Z" fill="#003C36"/>
<path opacity="0.1" fill-rule="evenodd" clip-rule="evenodd" d="M451.18 81.8958L460.53 70.6075C462.251 68.5294 461.861 65.5816 459.658 64.0234C457.455 62.4653 454.273 62.8868 452.552 64.9649L443.202 76.2532C441.481 78.3313 441.872 81.279 444.075 82.8372C446.278 84.3954 449.459 83.9739 451.18 81.8958ZM462.774 60.2607C458.368 57.1444 452.006 57.9874 448.563 62.1436L439.213 73.4318C435.771 77.5881 436.552 83.4836 440.958 86.6C445.364 89.7163 451.727 88.8733 455.169 84.7171L464.519 73.4288C467.962 69.2726 467.18 63.377 462.774 60.2607ZM453.065 96.1211L462.415 84.8329C464.136 82.7547 463.746 79.807 461.543 78.2488C459.34 76.6906 456.158 77.1121 454.437 79.1902L445.087 90.4785C443.366 92.5566 443.756 95.5044 445.96 97.0626C448.163 98.6207 451.344 98.1992 453.065 96.1211ZM464.659 74.486C460.253 71.3697 453.891 72.2127 450.448 76.3689L441.098 87.6572C437.656 91.8134 438.437 97.709 442.843 100.825C447.249 103.942 453.612 103.099 457.054 98.9424L466.404 87.6542C469.846 83.4979 469.065 77.6024 464.659 74.486Z" fill="#003C36"/>
<path d="M416.451 129.629L416.318 128.62L422.33 127.823L422.463 128.832L420.04 129.153L420.935 135.913L419.767 136.067L418.871 129.308L416.451 129.629ZM424.952 131.86L425.41 135.32L424.276 135.47L423.247 127.702L424.366 127.554L424.749 130.444L424.821 130.434C424.916 130.103 425.091 129.826 425.348 129.604C425.604 129.382 425.958 129.242 426.411 129.182C426.81 129.129 427.17 129.165 427.49 129.289C427.813 129.414 428.078 129.628 428.286 129.933C428.496 130.234 428.633 130.628 428.697 131.113L429.188 134.819L428.054 134.969L427.581 131.4C427.524 130.973 427.37 130.656 427.119 130.45C426.868 130.242 426.546 130.163 426.154 130.215C425.886 130.251 425.653 130.339 425.456 130.481C425.261 130.623 425.118 130.812 425.026 131.048C424.935 131.281 424.911 131.552 424.952 131.86ZM432.908 134.446C432.333 134.522 431.823 134.465 431.376 134.275C430.931 134.081 430.566 133.776 430.282 133.358C429.999 132.938 429.818 132.425 429.738 131.821C429.659 131.224 429.701 130.683 429.863 130.199C430.028 129.714 430.294 129.317 430.662 129.008C431.033 128.699 431.489 128.509 432.03 128.437C432.359 128.393 432.685 128.406 433.008 128.473C433.331 128.541 433.63 128.675 433.906 128.875C434.182 129.076 434.416 129.352 434.607 129.705C434.797 130.056 434.928 130.495 434.998 131.024L435.051 131.426L430.42 132.039L430.307 131.19L433.827 130.723C433.787 130.425 433.692 130.169 433.54 129.955C433.388 129.738 433.193 129.577 432.955 129.472C432.72 129.367 432.455 129.334 432.162 129.373C431.843 129.415 431.576 129.53 431.359 129.719C431.144 129.904 430.989 130.13 430.893 130.398C430.799 130.662 430.772 130.94 430.81 131.231L430.898 131.895C430.95 132.284 431.062 132.606 431.235 132.861C431.41 133.116 431.631 133.299 431.898 133.41C432.165 133.519 432.464 133.552 432.795 133.508C433.01 133.479 433.202 133.423 433.371 133.339C433.539 133.252 433.68 133.138 433.792 132.997C433.905 132.856 433.983 132.69 434.027 132.499L435.126 132.55C435.082 132.878 434.965 133.175 434.774 133.442C434.585 133.707 434.332 133.927 434.016 134.102C433.702 134.275 433.332 134.39 432.908 134.446ZM444.167 124.93L445.197 132.698L444.119 132.841L439.416 127.667L439.344 127.676L440.099 133.374L438.927 133.529L437.898 125.761L438.982 125.617L443.691 130.798L443.763 130.788L443.007 125.084L444.167 124.93ZM448.208 132.43C447.838 132.479 447.495 132.455 447.179 132.358C446.862 132.259 446.599 132.089 446.39 131.849C446.183 131.609 446.054 131.298 446.004 130.916C445.96 130.587 445.988 130.308 446.086 130.079C446.184 129.85 446.333 129.659 446.531 129.507C446.73 129.355 446.957 129.229 447.215 129.131C447.472 129.032 447.736 128.949 448.007 128.879C448.351 128.792 448.63 128.722 448.844 128.668C449.058 128.611 449.21 128.546 449.3 128.472C449.391 128.399 449.427 128.293 449.409 128.157L449.405 128.13C449.362 127.799 449.234 127.555 449.023 127.398C448.814 127.24 448.526 127.185 448.16 127.234C447.778 127.285 447.488 127.409 447.291 127.608C447.095 127.803 446.969 128.009 446.913 128.225L445.815 128.124C445.895 127.753 446.041 127.443 446.255 127.193C446.471 126.94 446.732 126.744 447.038 126.603C447.343 126.46 447.671 126.365 448.023 126.318C448.256 126.287 448.506 126.282 448.774 126.304C449.044 126.322 449.302 126.388 449.549 126.502C449.798 126.616 450.014 126.797 450.196 127.045C450.378 127.291 450.497 127.627 450.553 128.052L451.066 131.921L449.958 132.067L449.852 131.271L449.807 131.277C449.753 131.433 449.662 131.592 449.534 131.753C449.406 131.914 449.234 132.056 449.016 132.181C448.798 132.305 448.529 132.388 448.208 132.43ZM448.333 131.487C448.647 131.446 448.907 131.348 449.113 131.195C449.322 131.041 449.471 130.857 449.561 130.642C449.653 130.424 449.683 130.2 449.653 129.969L449.553 129.218C449.518 129.264 449.445 129.313 449.333 129.363C449.224 129.411 449.098 129.458 448.954 129.502C448.811 129.545 448.671 129.585 448.534 129.624C448.397 129.66 448.283 129.69 448.191 129.715C447.975 129.772 447.78 129.846 447.607 129.936C447.436 130.025 447.304 130.139 447.212 130.277C447.122 130.413 447.09 130.582 447.117 130.784C447.154 131.065 447.286 131.263 447.513 131.38C447.739 131.494 448.012 131.53 448.333 131.487ZM452.256 131.763L451.484 125.937L452.618 125.786L453.39 131.613L452.256 131.763ZM451.937 124.962C451.74 124.988 451.562 124.945 451.403 124.832C451.246 124.716 451.156 124.566 451.131 124.382C451.106 124.195 451.155 124.026 451.276 123.876C451.4 123.723 451.561 123.634 451.758 123.608C451.955 123.582 452.132 123.626 452.289 123.742C452.448 123.855 452.54 124.005 452.565 124.192C452.589 124.376 452.54 124.545 452.416 124.698C452.294 124.848 452.135 124.936 451.937 124.962ZM454.7 123.534L455.729 131.303L454.595 131.453L453.566 123.685L454.7 123.534ZM459.532 130.799L458.503 123.031L461.347 122.654C461.899 122.581 462.367 122.611 462.753 122.745C463.138 122.877 463.441 123.085 463.662 123.37C463.882 123.652 464.017 123.985 464.068 124.37C464.111 124.693 464.088 124.974 463.998 125.213C463.909 125.448 463.773 125.647 463.591 125.807C463.411 125.965 463.206 126.09 462.977 126.182L462.987 126.258C463.246 126.236 463.509 126.286 463.775 126.408C464.043 126.527 464.276 126.716 464.475 126.975C464.674 127.234 464.8 127.565 464.854 127.967C464.906 128.364 464.86 128.733 464.715 129.074C464.571 129.412 464.319 129.699 463.956 129.935C463.594 130.168 463.111 130.325 462.509 130.404L459.532 130.799ZM460.571 129.638L462.262 129.414C462.824 129.34 463.211 129.178 463.425 128.928C463.639 128.679 463.725 128.391 463.682 128.064C463.649 127.819 463.557 127.602 463.406 127.414C463.255 127.226 463.057 127.086 462.81 126.995C462.567 126.904 462.288 126.879 461.975 126.92L460.241 127.15L460.571 129.638ZM460.12 126.236L461.69 126.028C461.953 125.993 462.183 125.911 462.379 125.782C462.578 125.653 462.728 125.489 462.828 125.291C462.93 125.089 462.964 124.863 462.931 124.613C462.888 124.292 462.74 124.038 462.486 123.85C462.232 123.662 461.873 123.599 461.408 123.661L459.807 123.873L460.12 126.236ZM468.579 129.72C468.033 129.792 467.539 129.73 467.099 129.534C466.659 129.337 466.296 129.029 466.012 128.609C465.727 128.188 465.545 127.677 465.465 127.076C465.385 126.471 465.427 125.928 465.592 125.445C465.758 124.963 466.027 124.569 466.401 124.265C466.775 123.961 467.235 123.773 467.781 123.7C468.327 123.628 468.821 123.69 469.261 123.886C469.701 124.083 470.064 124.392 470.349 124.815C470.634 125.238 470.816 125.752 470.897 126.356C470.976 126.958 470.933 127.499 470.768 127.978C470.603 128.458 470.333 128.851 469.959 129.155C469.585 129.459 469.125 129.647 468.579 129.72ZM468.456 128.767C468.81 128.72 469.091 128.588 469.299 128.37C469.507 128.152 469.646 127.88 469.716 127.554C469.789 127.228 469.8 126.878 469.751 126.504C469.701 126.132 469.599 125.798 469.444 125.502C469.291 125.204 469.086 124.975 468.828 124.816C468.571 124.657 468.265 124.601 467.911 124.648C467.554 124.695 467.271 124.829 467.061 125.05C466.853 125.271 466.713 125.545 466.641 125.874C466.571 126.199 466.561 126.548 466.61 126.92C466.66 127.294 466.761 127.629 466.913 127.926C467.068 128.222 467.274 128.448 467.532 128.604C467.792 128.76 468.1 128.814 468.456 128.767ZM475.595 126.212L475.143 122.802L476.281 122.651L477.053 128.477L475.938 128.625L475.804 127.616L475.743 127.624C475.651 127.953 475.47 128.241 475.202 128.487C474.936 128.731 474.584 128.882 474.146 128.94C473.772 128.989 473.43 128.951 473.12 128.825C472.812 128.696 472.554 128.479 472.347 128.175C472.142 127.87 472.007 127.477 471.944 126.997L471.453 123.291L472.587 123.141L473.06 126.71C473.112 127.107 473.264 127.408 473.515 127.615C473.766 127.821 474.068 127.9 474.419 127.854C474.632 127.826 474.836 127.744 475.032 127.61C475.23 127.476 475.384 127.292 475.495 127.059C475.608 126.825 475.641 126.543 475.595 126.212ZM480.204 122.131L480.325 123.042L477.142 123.463L477.022 122.553L480.204 122.131ZM477.69 121.044L478.824 120.894L479.555 126.405C479.584 126.625 479.639 126.786 479.719 126.889C479.799 126.989 479.894 127.052 480.003 127.079C480.114 127.103 480.232 127.107 480.356 127.09C480.447 127.078 480.525 127.061 480.592 127.04C480.659 127.018 480.71 127.001 480.747 126.988L481.076 127.898C481.014 127.932 480.924 127.97 480.806 128.011C480.688 128.055 480.538 128.09 480.356 128.117C480.059 128.161 479.774 128.145 479.501 128.068C479.228 127.991 478.997 127.847 478.807 127.635C478.617 127.424 478.498 127.142 478.452 126.791L477.69 121.044ZM481.91 127.834L481.138 122.008L482.272 121.857L483.044 127.684L481.91 127.834ZM481.592 121.033C481.395 121.059 481.216 121.016 481.057 120.903C480.901 120.787 480.81 120.637 480.786 120.453C480.761 120.266 480.809 120.097 480.931 119.947C481.055 119.794 481.215 119.705 481.412 119.679C481.61 119.653 481.787 119.697 481.944 119.813C482.103 119.926 482.194 120.076 482.219 120.263C482.244 120.447 482.194 120.616 482.07 120.769C481.949 120.919 481.789 121.007 481.592 121.033ZM488.472 129.187L488.063 126.096L487.995 126.105C487.943 126.238 487.863 126.393 487.755 126.569C487.65 126.745 487.494 126.907 487.287 127.056C487.08 127.204 486.8 127.302 486.446 127.349C485.975 127.411 485.54 127.346 485.139 127.155C484.74 126.961 484.406 126.654 484.137 126.234C483.87 125.812 483.694 125.285 483.611 124.656C483.528 124.026 483.561 123.474 483.712 122.998C483.865 122.523 484.11 122.141 484.448 121.855C484.786 121.568 485.188 121.394 485.656 121.332C486.018 121.284 486.317 121.306 486.553 121.398C486.791 121.488 486.981 121.604 487.124 121.747C487.269 121.89 487.384 122.018 487.468 122.13L487.563 122.118L487.438 121.173L488.545 121.026L489.607 129.037L488.472 129.187ZM486.568 126.348C486.894 126.305 487.158 126.183 487.361 125.981C487.565 125.776 487.705 125.512 487.78 125.188C487.858 124.864 487.87 124.497 487.816 124.087C487.762 123.683 487.657 123.336 487.501 123.048C487.344 122.76 487.142 122.546 486.895 122.407C486.647 122.267 486.358 122.219 486.027 122.263C485.685 122.308 485.412 122.435 485.208 122.642C485.004 122.849 484.864 123.113 484.788 123.435C484.715 123.756 484.704 124.108 484.755 124.493C484.807 124.882 484.911 125.225 485.069 125.52C485.226 125.816 485.431 126.04 485.683 126.192C485.936 126.341 486.232 126.393 486.568 126.348ZM493.892 123.788L493.44 120.378L494.578 120.227L495.35 126.053L494.235 126.201L494.101 125.192L494.04 125.2C493.948 125.529 493.767 125.816 493.499 126.063C493.232 126.307 492.881 126.457 492.443 126.515C492.069 126.565 491.727 126.527 491.417 126.401C491.109 126.272 490.851 126.055 490.644 125.75C490.439 125.446 490.304 125.053 490.241 124.573L489.75 120.867L490.884 120.716L491.357 124.286C491.409 124.683 491.561 124.984 491.812 125.19C492.063 125.396 492.365 125.476 492.716 125.429C492.929 125.401 493.133 125.32 493.328 125.186C493.527 125.052 493.681 124.868 493.792 124.635C493.905 124.401 493.938 124.119 493.892 123.788ZM499.08 125.679C498.506 125.755 497.995 125.697 497.548 125.507C497.103 125.314 496.738 125.008 496.454 124.591C496.172 124.17 495.991 123.658 495.911 123.053C495.832 122.456 495.873 121.916 496.035 121.431C496.2 120.946 496.467 120.549 496.835 120.241C497.206 119.932 497.662 119.741 498.203 119.67C498.531 119.626 498.857 119.638 499.18 119.706C499.503 119.774 499.803 119.908 500.079 120.108C500.355 120.308 500.588 120.585 500.779 120.938C500.97 121.288 501.1 121.728 501.17 122.256L501.223 122.658L496.592 123.272L496.479 122.422L499.999 121.956C499.96 121.657 499.864 121.401 499.712 121.187C499.56 120.971 499.365 120.81 499.127 120.705C498.892 120.6 498.628 120.567 498.334 120.605C498.016 120.648 497.748 120.763 497.531 120.951C497.316 121.137 497.161 121.363 497.065 121.63C496.972 121.895 496.944 122.173 496.983 122.463L497.071 123.127C497.122 123.517 497.234 123.839 497.407 124.094C497.582 124.349 497.804 124.532 498.07 124.643C498.337 124.752 498.636 124.784 498.967 124.74C499.182 124.712 499.374 124.655 499.543 124.571C499.712 124.485 499.852 124.371 499.965 124.23C500.077 124.089 500.156 123.923 500.2 123.732L501.299 123.783C501.255 124.11 501.137 124.408 500.946 124.675C500.757 124.939 500.505 125.159 500.188 125.335C499.874 125.508 499.505 125.622 499.08 125.679Z" fill="#003C36"/>
<path d="M423.298 152.096L422.355 144.975L423.124 144.873L423.233 145.696L423.327 145.683C423.374 145.586 423.439 145.46 423.524 145.307C423.611 145.152 423.745 145.006 423.926 144.87C424.109 144.731 424.369 144.64 424.706 144.595C425.142 144.537 425.541 144.595 425.903 144.769C426.264 144.943 426.565 145.218 426.804 145.593C427.044 145.968 427.2 146.428 427.272 146.972C427.344 147.521 427.314 148.008 427.181 148.435C427.047 148.86 426.83 149.205 426.529 149.469C426.227 149.73 425.861 149.89 425.429 149.947C425.096 149.991 424.823 149.971 424.608 149.888C424.393 149.802 424.222 149.695 424.096 149.568C423.969 149.438 423.87 149.33 423.799 149.244L423.731 149.253L424.094 151.99L423.298 152.096ZM423.48 147.461C423.532 147.852 423.635 148.189 423.789 148.473C423.943 148.755 424.142 148.965 424.384 149.104C424.627 149.242 424.907 149.289 425.226 149.247C425.559 149.203 425.825 149.078 426.024 148.873C426.226 148.666 426.363 148.405 426.435 148.092C426.51 147.775 426.523 147.433 426.474 147.064C426.426 146.7 426.326 146.379 426.175 146.102C426.026 145.822 425.828 145.612 425.58 145.471C425.335 145.327 425.044 145.277 424.707 145.322C424.383 145.365 424.122 145.483 423.923 145.676C423.724 145.867 423.588 146.116 423.514 146.424C423.44 146.728 423.429 147.074 423.48 147.461ZM430.66 149.254C430.193 149.316 429.768 149.259 429.385 149.083C429.005 148.907 428.69 148.632 428.439 148.258C428.19 147.884 428.031 147.43 427.96 146.895C427.888 146.355 427.924 145.871 428.066 145.443C428.21 145.015 428.443 144.666 428.764 144.397C429.088 144.128 429.483 143.962 429.951 143.9C430.418 143.838 430.842 143.895 431.222 144.071C431.605 144.247 431.92 144.523 432.169 144.899C432.42 145.276 432.582 145.733 432.653 146.273C432.724 146.808 432.687 147.288 432.542 147.715C432.4 148.141 432.167 148.488 431.843 148.758C431.522 149.027 431.128 149.192 430.66 149.254ZM430.565 148.539C430.921 148.492 431.201 148.362 431.406 148.15C431.611 147.938 431.749 147.676 431.82 147.364C431.891 147.053 431.903 146.724 431.857 146.378C431.811 146.032 431.714 145.717 431.564 145.433C431.414 145.148 431.212 144.929 430.959 144.775C430.705 144.621 430.401 144.568 430.045 144.615C429.69 144.662 429.41 144.793 429.205 145.007C429.001 145.222 428.863 145.486 428.792 145.8C428.722 146.113 428.71 146.443 428.755 146.789C428.801 147.135 428.899 147.45 429.048 147.732C429.198 148.014 429.399 148.231 429.653 148.382C429.906 148.534 430.21 148.586 430.565 148.539ZM434.919 148.58L432.655 143.61L433.492 143.499L435.136 147.316L435.19 147.309L435.771 143.197L436.62 143.085L438.236 146.892L438.29 146.885L438.886 142.785L439.722 142.674L438.83 148.062L438.048 148.165L436.388 144.337L436.307 144.348L435.702 148.476L434.919 148.58ZM443.185 147.595C442.686 147.661 442.241 147.608 441.85 147.435C441.461 147.26 441.142 146.987 440.894 146.615C440.647 146.241 440.489 145.788 440.419 145.258C440.349 144.727 440.383 144.247 440.523 143.817C440.665 143.384 440.895 143.031 441.213 142.758C441.533 142.482 441.927 142.313 442.395 142.251C442.664 142.216 442.937 142.225 443.212 142.28C443.486 142.335 443.745 142.45 443.988 142.623C444.23 142.795 444.437 143.037 444.609 143.351C444.781 143.664 444.899 144.063 444.963 144.546L445.008 144.883L441.016 145.412L440.924 144.724L444.107 144.302C444.069 144.01 443.976 143.757 443.828 143.543C443.683 143.329 443.495 143.17 443.264 143.066C443.035 142.961 442.777 142.928 442.489 142.966C442.172 143.008 441.909 143.123 441.698 143.311C441.489 143.497 441.34 143.722 441.249 143.988C441.158 144.254 441.132 144.53 441.17 144.815L441.231 145.274C441.282 145.665 441.394 145.987 441.565 146.241C441.738 146.493 441.955 146.673 442.216 146.783C442.477 146.89 442.769 146.922 443.09 146.88C443.299 146.852 443.484 146.798 443.645 146.717C443.808 146.634 443.943 146.524 444.051 146.389C444.158 146.251 444.234 146.088 444.278 145.899L445.075 146.013C445.029 146.284 444.923 146.532 444.758 146.755C444.593 146.976 444.377 147.16 444.111 147.307C443.844 147.452 443.536 147.548 443.185 147.595ZM446.24 147.08L445.554 141.901L446.323 141.799L446.427 142.582L446.481 142.574C446.541 142.306 446.684 142.075 446.91 141.883C447.137 141.69 447.405 141.574 447.715 141.533C447.773 141.525 447.847 141.516 447.935 141.507C448.022 141.498 448.089 141.492 448.135 141.491L448.242 142.3C448.214 142.297 448.151 142.295 448.053 142.294C447.956 142.291 447.855 142.296 447.749 142.31C447.498 142.344 447.28 142.426 447.096 142.558C446.914 142.687 446.778 142.852 446.688 143.051C446.6 143.248 446.571 143.464 446.602 143.697L447.036 146.975L446.24 147.08ZM451.516 146.491C451.017 146.557 450.572 146.504 450.181 146.331C449.792 146.157 449.473 145.883 449.225 145.511C448.979 145.137 448.82 144.684 448.75 144.154C448.68 143.623 448.715 143.143 448.854 142.713C448.996 142.28 449.226 141.927 449.544 141.654C449.864 141.378 450.258 141.209 450.726 141.147C450.996 141.112 451.268 141.121 451.543 141.176C451.818 141.231 452.076 141.346 452.319 141.52C452.561 141.691 452.768 141.933 452.94 142.247C453.112 142.56 453.23 142.959 453.294 143.442L453.339 143.779L449.347 144.308L449.256 143.62L452.439 143.199C452.4 142.906 452.307 142.653 452.16 142.44C452.015 142.225 451.827 142.066 451.595 141.962C451.367 141.857 451.108 141.824 450.821 141.862C450.504 141.904 450.24 142.019 450.029 142.207C449.82 142.393 449.671 142.618 449.58 142.884C449.49 143.15 449.463 143.426 449.501 143.711L449.562 144.17C449.614 144.561 449.725 144.883 449.896 145.138C450.069 145.389 450.286 145.57 450.548 145.679C450.809 145.786 451.1 145.819 451.422 145.776C451.631 145.748 451.815 145.694 451.976 145.613C452.139 145.53 452.274 145.421 452.382 145.285C452.49 145.147 452.565 144.984 452.609 144.795L453.406 144.909C453.36 145.181 453.254 145.428 453.089 145.651C452.924 145.872 452.709 146.056 452.442 146.203C452.176 146.349 451.867 146.444 451.516 146.491ZM456.542 145.825C456.11 145.882 455.715 145.824 455.355 145.649C454.996 145.473 454.696 145.197 454.457 144.821C454.217 144.444 454.06 143.981 453.988 143.432C453.916 142.888 453.946 142.404 454.08 141.979C454.214 141.554 454.432 141.211 454.736 140.949C455.04 140.687 455.41 140.527 455.846 140.469C456.183 140.424 456.457 140.445 456.667 140.532C456.88 140.616 457.047 140.722 457.169 140.85C457.293 140.975 457.39 141.079 457.461 141.161L457.528 141.152L457.19 138.603L457.986 138.498L458.901 145.403L458.132 145.504L458.027 144.709L457.932 144.721C457.886 144.823 457.819 144.953 457.73 145.112C457.641 145.268 457.504 145.415 457.319 145.554C457.133 145.69 456.874 145.781 456.542 145.825ZM456.555 145.096C456.874 145.054 457.133 144.935 457.331 144.739C457.529 144.541 457.666 144.287 457.741 143.975C457.816 143.661 457.827 143.308 457.776 142.917C457.724 142.53 457.623 142.199 457.473 141.924C457.322 141.647 457.125 141.442 456.883 141.309C456.641 141.174 456.359 141.128 456.035 141.171C455.698 141.216 455.428 141.34 455.226 141.543C455.026 141.743 454.89 141.998 454.816 142.307C454.745 142.614 454.733 142.949 454.782 143.313C454.831 143.682 454.931 144.01 455.083 144.296C455.238 144.58 455.438 144.796 455.684 144.944C455.932 145.089 456.222 145.14 456.555 145.096ZM462.677 144.902L461.762 137.997L462.558 137.892L462.896 140.441L462.963 140.432C463.01 140.334 463.075 140.209 463.16 140.056C463.247 139.9 463.381 139.754 463.562 139.618C463.745 139.48 464.005 139.388 464.342 139.343C464.778 139.286 465.177 139.344 465.539 139.518C465.9 139.692 466.201 139.966 466.44 140.342C466.68 140.717 466.836 141.177 466.908 141.721C466.98 142.269 466.95 142.757 466.817 143.184C466.683 143.609 466.466 143.953 466.165 144.217C465.863 144.479 465.497 144.638 465.065 144.696C464.732 144.74 464.459 144.72 464.244 144.636C464.029 144.55 463.858 144.444 463.732 144.316C463.605 144.187 463.506 144.079 463.435 143.992L463.341 144.005L463.446 144.8L462.677 144.902ZM463.116 142.209C463.168 142.6 463.271 142.938 463.425 143.221C463.579 143.503 463.778 143.713 464.02 143.853C464.263 143.99 464.543 144.037 464.863 143.995C465.195 143.951 465.461 143.827 465.66 143.622C465.862 143.414 465.999 143.154 466.072 142.84C466.146 142.524 466.159 142.181 466.11 141.812C466.062 141.448 465.962 141.128 465.811 140.85C465.662 140.57 465.464 140.36 465.216 140.219C464.971 140.075 464.68 140.026 464.343 140.071C464.019 140.113 463.758 140.232 463.559 140.425C463.36 140.616 463.224 140.865 463.15 141.172C463.077 141.477 463.065 141.823 463.116 142.209ZM468.766 146.072C468.631 146.089 468.509 146.094 468.401 146.086C468.292 146.079 468.216 146.069 468.173 146.054L468.283 145.326C468.483 145.35 468.656 145.345 468.802 145.312C468.949 145.279 469.072 145.195 469.17 145.061C469.272 144.928 469.353 144.724 469.415 144.449L469.51 144.024L466.905 139.072L467.768 138.958L469.745 142.895L469.799 142.888L470.681 138.572L471.545 138.458L470.132 144.683C470.069 144.963 469.976 145.201 469.853 145.396C469.73 145.593 469.578 145.747 469.396 145.858C469.216 145.968 469.006 146.04 468.766 146.072ZM478.579 137.526C478.494 137.189 478.295 136.946 477.982 136.795C477.669 136.644 477.304 136.597 476.886 136.652C476.58 136.693 476.319 136.778 476.103 136.907C475.889 137.036 475.729 137.195 475.624 137.385C475.521 137.575 475.484 137.78 475.514 138C475.538 138.185 475.603 138.337 475.708 138.458C475.815 138.577 475.944 138.671 476.095 138.74C476.246 138.807 476.401 138.858 476.562 138.894C476.722 138.928 476.868 138.953 477.001 138.97L477.727 139.066C477.913 139.089 478.122 139.128 478.353 139.182C478.586 139.235 478.814 139.321 479.035 139.438C479.259 139.552 479.451 139.712 479.613 139.917C479.775 140.122 479.878 140.386 479.921 140.71C479.97 141.083 479.917 141.433 479.762 141.76C479.608 142.087 479.357 142.364 479.007 142.591C478.66 142.818 478.221 142.966 477.69 143.037C477.196 143.102 476.757 143.079 476.374 142.967C475.993 142.855 475.681 142.67 475.436 142.412C475.194 142.154 475.034 141.838 474.957 141.464L475.82 141.349C475.877 141.607 475.993 141.811 476.169 141.962C476.346 142.11 476.558 142.21 476.805 142.262C477.054 142.311 477.316 142.318 477.59 142.281C477.909 142.239 478.189 142.149 478.429 142.012C478.669 141.873 478.851 141.7 478.975 141.494C479.098 141.286 479.143 141.055 479.11 140.804C479.08 140.574 478.991 140.396 478.844 140.27C478.696 140.143 478.512 140.048 478.291 139.986C478.07 139.924 477.834 139.875 477.582 139.84L476.701 139.709C476.141 139.626 475.684 139.461 475.331 139.215C474.979 138.969 474.771 138.613 474.71 138.148C474.658 137.761 474.718 137.41 474.889 137.095C475.062 136.777 475.316 136.515 475.65 136.308C475.986 136.099 476.374 135.965 476.814 135.907C477.259 135.848 477.666 135.875 478.033 135.989C478.4 136.1 478.703 136.28 478.941 136.527C479.182 136.774 479.331 137.071 479.389 137.418L478.579 137.526ZM481.409 144.397L480.465 137.276L481.234 137.174L481.343 137.997L481.437 137.984C481.484 137.886 481.55 137.761 481.634 137.608C481.721 137.452 481.855 137.307 482.036 137.171C482.219 137.032 482.479 136.94 482.816 136.896C483.252 136.838 483.651 136.896 484.013 137.07C484.374 137.244 484.675 137.518 484.914 137.894C485.154 138.269 485.31 138.729 485.382 139.273C485.455 139.821 485.424 140.309 485.291 140.736C485.157 141.161 484.94 141.505 484.639 141.769C484.337 142.031 483.971 142.191 483.539 142.248C483.207 142.292 482.933 142.272 482.718 142.189C482.503 142.103 482.332 141.996 482.206 141.869C482.079 141.739 481.98 141.631 481.909 141.544L481.842 141.553L482.204 144.291L481.409 144.397ZM481.59 139.761C481.642 140.153 481.745 140.49 481.899 140.774C482.053 141.055 482.252 141.266 482.494 141.405C482.737 141.542 483.017 141.59 483.337 141.547C483.669 141.503 483.935 141.379 484.135 141.174C484.336 140.967 484.473 140.706 484.546 140.392C484.62 140.076 484.633 139.733 484.584 139.365C484.536 139.001 484.436 138.68 484.285 138.403C484.136 138.123 483.938 137.912 483.691 137.771C483.445 137.628 483.154 137.578 482.817 137.623C482.493 137.666 482.232 137.784 482.033 137.977C481.834 138.168 481.698 138.417 481.625 138.724C481.551 139.029 481.539 139.375 481.59 139.761ZM486.533 134.715L487.448 141.62L486.652 141.726L485.737 134.821L486.533 134.715ZM488.62 141.465L487.934 136.286L488.73 136.181L489.416 141.359L488.62 141.465ZM488.224 135.369C488.069 135.39 487.929 135.355 487.802 135.264C487.678 135.173 487.606 135.053 487.586 134.905C487.567 134.757 487.605 134.622 487.701 134.502C487.8 134.382 487.926 134.311 488.081 134.29C488.237 134.27 488.376 134.305 488.5 134.396C488.627 134.487 488.7 134.607 488.719 134.755C488.739 134.903 488.7 135.038 488.601 135.158C488.505 135.278 488.379 135.349 488.224 135.369ZM492.707 141.033C492.221 141.098 491.788 141.038 491.407 140.856C491.026 140.673 490.714 140.393 490.472 140.015C490.23 139.638 490.075 139.191 490.006 138.674C489.937 138.148 489.972 137.671 490.112 137.243C490.254 136.812 490.484 136.461 490.802 136.187C491.122 135.912 491.516 135.743 491.984 135.681C492.348 135.633 492.685 135.657 492.995 135.753C493.305 135.849 493.57 136.006 493.788 136.224C494.007 136.442 494.16 136.71 494.248 137.028L493.452 137.133C493.361 136.905 493.198 136.714 492.965 136.56C492.734 136.403 492.443 136.347 492.092 136.394C491.782 136.435 491.521 136.552 491.308 136.745C491.098 136.935 490.947 137.185 490.855 137.494C490.766 137.801 490.747 138.15 490.798 138.541C490.851 138.942 490.961 139.282 491.126 139.562C491.293 139.841 491.503 140.048 491.757 140.181C492.012 140.314 492.297 140.36 492.612 140.318C492.819 140.291 493.002 140.23 493.161 140.136C493.32 140.042 493.449 139.919 493.548 139.769C493.647 139.619 493.709 139.446 493.733 139.25L494.529 139.145C494.524 139.457 494.449 139.747 494.304 140.015C494.161 140.281 493.954 140.505 493.683 140.688C493.414 140.867 493.089 140.983 492.707 141.033ZM497.793 140.359C497.294 140.425 496.849 140.372 496.458 140.2C496.069 140.025 495.75 139.752 495.502 139.38C495.255 139.005 495.097 138.553 495.027 138.022C494.956 137.492 494.991 137.012 495.131 136.581C495.273 136.149 495.502 135.796 495.821 135.523C496.141 135.247 496.535 135.078 497.003 135.016C497.272 134.98 497.545 134.99 497.819 135.045C498.094 135.1 498.353 135.214 498.596 135.388C498.838 135.56 499.045 135.802 499.217 136.116C499.389 136.429 499.507 136.827 499.571 137.311L499.616 137.648L495.624 138.177L495.532 137.489L498.715 137.067C498.676 136.775 498.583 136.522 498.436 136.308C498.291 136.094 498.103 135.935 497.872 135.831C497.643 135.726 497.385 135.693 497.097 135.731C496.78 135.773 496.516 135.888 496.306 136.076C496.097 136.261 495.947 136.487 495.857 136.753C495.766 137.019 495.74 137.294 495.778 137.58L495.839 138.038C495.89 138.429 496.002 138.752 496.173 139.006C496.345 139.258 496.563 139.438 496.824 139.548C497.085 139.655 497.377 139.687 497.698 139.645C497.907 139.617 498.092 139.563 498.253 139.482C498.416 139.399 498.551 139.289 498.659 139.154C498.766 139.016 498.842 138.853 498.886 138.664L499.683 138.778C499.637 139.049 499.531 139.297 499.366 139.52C499.201 139.741 498.985 139.925 498.719 140.072C498.452 140.217 498.143 140.313 497.793 140.359Z" fill="#003C36"/>
</g>
<defs>
<filter id="filter0_d_14_1068" x="22.6797" y="79.6903" width="37.9714" height="37.9714" filterUnits="userSpaceOnUse" color-interpolation-filters="sRGB">
<feFlood flood-opacity="0" result="BackgroundImageFix"/>
<feColorMatrix in="SourceAlpha" type="matrix" values="0 0 0 0 0 0 0 0 0 0 0 0 0 0 0 0 0 0 127 0" result="hardAlpha"/>
<feOffset dy="4.78868"/>
<feGaussianBlur stdDeviation="4.78868"/>
<feComposite in2="hardAlpha" operator="out"/>
<feColorMatrix type="matrix" values="0 0 0 0 0 0 0 0 0 0 0 0 0 0 0 0 0 0 0.02 0"/>
<feBlend mode="normal" in2="BackgroundImageFix" result="effect1_dropShadow_14_1068"/>
<feBlend mode="normal" in="SourceGraphic" in2="effect1_dropShadow_14_1068" result="shape"/>
</filter>
<clipPath id="clip0_14_1068">
<rect width="521.966" height="187.557" fill="white" transform="translate(0.943604 69.0918) rotate(-7.54741)"/>
</clipPath>
<clipPath id="clip1_14_1068">
<rect width="11.9717" height="11.9717" fill="white" transform="translate(34.9453 88.7395) rotate(-7.54741)"/>
</clipPath>
</defs>
</svg>
